<?xml version="1.0" encoding="utf-8"?>
<!-- Generator: Adobe Illustrator 16.0.0, SVG Export Plug-In . SVG Version: 6.00 Build 0)  -->
<!DOCTYPE svg PUBLIC "-//W3C//DTD SVG 1.1//EN" "http://www.w3.org/Graphics/SVG/1.1/DTD/svg11.dtd">
<svg version="1.1" id="Layer_1" xmlns="http://www.w3.org/2000/svg" xmlns:xlink="http://www.w3.org/1999/xlink" x="0px" y="0px"
	 width="200px" height="200px" viewBox="0 0 200 200" enable-background="new 0 0 200 200" xml:space="preserve">
<g>
	<g>
		<g>
			<g>
				<g>
					<g>
						
							<radialGradient id="SVGID_1_" cx="-175.6455" cy="674.1494" r="152.3777" gradientTransform="matrix(0.4759 0 0 0.3447 183.541 -124.9314)" gradientUnits="userSpaceOnUse">
							<stop  offset="0" style="stop-color:#414042"/>
							<stop  offset="0.486" style="stop-color:#343234"/>
							<stop  offset="1" style="stop-color:#231F20"/>
						</radialGradient>
						<path fill="url(#SVGID_1_)" d="M172.336,86.377c13.537,24.547-16.465,71.254-72.428,71.254
							c-55.96,0-85.905-46.707-72.317-71.254c9.883-17.854,41.317-29.113,72.401-29.113
							C131.078,57.264,162.488,68.522,172.336,86.377z"/>
						<path fill="#414042" d="M99.91,152.48c-37.462,0-63.135-20.146-71.661-40.34C35.278,133.293,61.198,155.5,99.91,155.5
							c38.75,0,64.711-22.248,71.744-43.42C163.121,132.293,137.408,152.48,99.91,152.48z"/>
						<g>
							<g>
								<g>
									
										<radialGradient id="SVGID_2_" cx="313.124" cy="1890.8701" r="6.3239" gradientTransform="matrix(-0.4749 0.0313 -0.0163 -0.2479 355.7162 539.7258)" gradientUnits="userSpaceOnUse">
										<stop  offset="0" style="stop-color:#414042"/>
										<stop  offset="0.486" style="stop-color:#343234"/>
										<stop  offset="1" style="stop-color:#231F20"/>
									</radialGradient>
									<polygon fill="url(#SVGID_2_)" points="173.498,80.326 177.939,79.609 178.895,80.824 174.148,81.859 									"/>
									
										<radialGradient id="SVGID_3_" cx="322.3057" cy="1592.2168" r="8.5486" gradientTransform="matrix(-0.4749 0.0313 -0.0273 -0.4134 367.4782 730.114)" gradientUnits="userSpaceOnUse">
										<stop  offset="0" style="stop-color:#414042"/>
										<stop  offset="0.486" style="stop-color:#343234"/>
										<stop  offset="1" style="stop-color:#231F20"/>
									</radialGradient>
									<polygon fill="url(#SVGID_3_)" points="167.17,80.303 173.35,79.896 174.77,82.029 168.352,84.136 									"/>
								</g>
								<polygon fill="#231F20" points="173.932,81.357 178.803,80.549 178.895,80.824 174.148,81.859 								"/>
								<polygon fill="#231F20" points="167.725,82.103 174.197,81.17 174.77,82.029 168.352,84.136 								"/>
								<polygon fill="#58595B" points="167.578,80.455 173.17,80.087 173.369,80.385 167.766,80.754 								"/>
							</g>
							<g>
								<g>
									
										<radialGradient id="SVGID_4_" cx="263.8896" cy="1725.7363" r="6.3243" gradientTransform="matrix(-0.4759 0 0 -0.2485 307.9336 523.696)" gradientUnits="userSpaceOnUse">
										<stop  offset="0" style="stop-color:#414042"/>
										<stop  offset="0.486" style="stop-color:#343234"/>
										<stop  offset="1" style="stop-color:#231F20"/>
									</radialGradient>
									<polygon fill="url(#SVGID_4_)" points="179.672,94.266 184.15,93.842 185.025,95.117 180.223,95.838 									"/>
									
										<radialGradient id="SVGID_5_" cx="274.9316" cy="1494.9043" r="8.5495" gradientTransform="matrix(-0.4759 0 0 -0.4142 307.9336 715.0414)" gradientUnits="userSpaceOnUse">
										<stop  offset="0" style="stop-color:#414042"/>
										<stop  offset="0.486" style="stop-color:#343234"/>
										<stop  offset="1" style="stop-color:#231F20"/>
									</radialGradient>
									<polygon fill="url(#SVGID_5_)" points="173.359,93.826 179.555,93.826 180.828,96.047 174.287,97.729 									"/>
								</g>
								<polygon fill="#231F20" points="180.039,95.324 184.953,94.836 185.025,95.117 180.223,95.838 								"/>
								<polygon fill="#231F20" points="173.795,95.658 180.314,95.152 180.828,96.047 174.287,97.729 								"/>
								<polygon fill="#58595B" points="173.758,94.004 179.359,94.004 179.539,94.315 173.924,94.315 								"/>
							</g>
							<radialGradient id="SVGID_6_" cx="185.4697" cy="88.5522" r="13.0401" gradientUnits="userSpaceOnUse">
								<stop  offset="0" style="stop-color:#414042"/>
								<stop  offset="0.486" style="stop-color:#343234"/>
								<stop  offset="1" style="stop-color:#231F20"/>
							</radialGradient>
							<path fill="url(#SVGID_6_)" d="M186.496,99.156l1.768,2.67c11.324,0.602,10.494-4.135,9.281-5.887l-12.016-17.328
								c-0.912-1.315-3.754-3.386-6.434-3.386l-6.373,1.015L186.496,99.156z"/>
							<path opacity="0.5" fill="#9B5F0E" d="M188.264,101.826l-1.768-2.67L172.723,76.24l5.148-0.82
								c-1.174,0-1.617,1.266-2.107,1.603c-0.496,0.339,6.102,11.042,8.742,15.109c2.805,4.326,4.891,5.701,9.141,5.701
								c4.252,0,3.898-1.894,3.898-1.894C198.758,97.691,199.469,102.309,188.264,101.826z"/>
							<path fill="#414042" d="M178.857,76.736c0,0,4.402-0.051,5.529,1.766c0.688,1.106,12.939,18.213,12.939,18.213
								s-0.709,0.048-1.496-0.709c-0.777-0.747-11.443-16.105-12.197-16.866C182.889,78.388,181.883,77.417,178.857,76.736z"/>
						</g>
						<g>
							<g>
								<g>
									
										<radialGradient id="SVGID_7_" cx="-1606.3213" cy="1716.1719" r="6.3243" gradientTransform="matrix(0.4749 0.0313 0.0163 -0.2479 758.6732 556.4917)" gradientUnits="userSpaceOnUse">
										<stop  offset="0" style="stop-color:#414042"/>
										<stop  offset="0.486" style="stop-color:#343234"/>
										<stop  offset="1" style="stop-color:#231F20"/>
									</radialGradient>
									<polygon fill="url(#SVGID_7_)" points="26.502,80.326 22.061,79.609 21.104,80.824 25.851,81.859 									"/>
									
										<radialGradient id="SVGID_8_" cx="-1597.1123" cy="1487.4414" r="8.5477" gradientTransform="matrix(0.4749 0.0313 0.0273 -0.4134 746.9077 746.8798)" gradientUnits="userSpaceOnUse">
										<stop  offset="0" style="stop-color:#414042"/>
										<stop  offset="0.486" style="stop-color:#343234"/>
										<stop  offset="1" style="stop-color:#231F20"/>
									</radialGradient>
									<polygon fill="url(#SVGID_8_)" points="32.829,80.303 26.648,79.896 25.23,82.029 31.648,84.136 									"/>
								</g>
								<polygon fill="#231F20" points="26.066,81.357 21.196,80.549 21.104,80.824 25.851,81.859 								"/>
								<polygon fill="#231F20" points="32.275,82.103 25.803,81.17 25.23,82.029 31.648,84.136 								"/>
								<polygon fill="#58595B" points="32.42,80.455 26.829,80.087 26.632,80.385 32.234,80.754 								"/>
							</g>
							<g>
								<g>
									
										<radialGradient id="SVGID_9_" cx="-1659.8154" cy="1725.7363" r="6.3243" gradientTransform="matrix(0.4759 0 0 -0.2485 807.5571 523.696)" gradientUnits="userSpaceOnUse">
										<stop  offset="0" style="stop-color:#414042"/>
										<stop  offset="0.486" style="stop-color:#343234"/>
										<stop  offset="1" style="stop-color:#231F20"/>
									</radialGradient>
									<polygon fill="url(#SVGID_9_)" points="20.328,94.266 15.848,93.842 14.975,95.117 19.779,95.838 									"/>
									
										<radialGradient id="SVGID_10_" cx="-1648.7744" cy="1494.9043" r="8.5486" gradientTransform="matrix(0.4759 0 0 -0.4142 807.5571 715.0414)" gradientUnits="userSpaceOnUse">
										<stop  offset="0" style="stop-color:#414042"/>
										<stop  offset="0.486" style="stop-color:#343234"/>
										<stop  offset="1" style="stop-color:#231F20"/>
									</radialGradient>
									<polygon fill="url(#SVGID_10_)" points="26.64,93.826 20.446,93.826 19.171,96.047 25.712,97.729 									"/>
								</g>
								<polygon fill="#231F20" points="19.961,95.324 15.047,94.836 14.975,95.117 19.779,95.838 								"/>
								<polygon fill="#231F20" points="26.204,95.658 19.684,95.152 19.171,96.047 25.712,97.729 								"/>
								<polygon fill="#58595B" points="26.242,94.004 20.64,94.004 20.461,94.315 26.076,94.315 								"/>
							</g>
							<radialGradient id="SVGID_11_" cx="14.5293" cy="88.5522" r="13.0401" gradientUnits="userSpaceOnUse">
								<stop  offset="0" style="stop-color:#414042"/>
								<stop  offset="0.486" style="stop-color:#343234"/>
								<stop  offset="1" style="stop-color:#231F20"/>
							</radialGradient>
							<path fill="url(#SVGID_11_)" d="M13.503,99.156l-1.767,2.67c-11.325,0.602-10.496-4.135-9.281-5.887l12.014-17.328
								c0.913-1.315,3.754-3.386,6.436-3.386l6.372,1.015L13.503,99.156z"/>
							<path opacity="0.5" fill="#9B5F0E" d="M11.736,101.826l1.767-2.67L27.276,76.24l-5.149-0.82c1.176,0,1.617,1.266,2.109,1.603
								c0.495,0.339-6.103,11.042-8.742,15.109c-2.806,4.326-4.891,5.701-9.142,5.701s-3.897-1.894-3.897-1.894
								C1.24,97.691,0.531,102.309,11.736,101.826z"/>
							<path fill="#414042" d="M21.143,76.736c0,0-4.403-0.051-5.529,1.766c-0.687,1.106-12.94,18.213-12.94,18.213
								s0.708,0.048,1.496-0.709C4.947,95.259,15.614,79.9,16.367,79.14C17.111,78.388,18.117,77.417,21.143,76.736z"/>
						</g>
						<g>
							<g>
								
									<radialGradient id="SVGID_12_" cx="-175.6455" cy="646.8125" r="140.0455" gradientTransform="matrix(0.4759 0 0 0.3447 183.541 -124.9314)" gradientUnits="userSpaceOnUse">
									<stop  offset="0" style="stop-color:#414042"/>
									<stop  offset="0.486" style="stop-color:#343234"/>
									<stop  offset="1" style="stop-color:#231F20"/>
								</radialGradient>
								<path fill="url(#SVGID_12_)" d="M172.336,86.377c13.537,24.547-16.465,52.408-72.428,52.408
									c-55.96,0-85.905-27.861-72.317-52.408c9.883-17.854,41.317-29.113,72.401-29.113
									C131.078,57.264,162.488,68.522,172.336,86.377z"/>
								<linearGradient id="SVGID_13_" gradientUnits="userSpaceOnUse" x1="36.1631" y1="94.6738" x2="163.7471" y2="94.6738">
									<stop  offset="0" style="stop-color:#58595B"/>
									<stop  offset="0.3086" style="stop-color:#4B4B4D"/>
									<stop  offset="0.8919" style="stop-color:#2A2728"/>
									<stop  offset="1" style="stop-color:#231F20"/>
								</linearGradient>
								<path fill="url(#SVGID_13_)" d="M161.775,86.377c9.609,20.408-16.695,42.291-61.855,42.291
									c-45.16,0-71.418-21.885-61.769-42.291C45.51,70.818,72.551,60.68,99.99,60.68C127.428,60.68,154.449,70.818,161.775,86.377
									z"/>
								<path fill="#414042" d="M99.99,58.843c29.402,0,58.756,10.748,67.377,27.534c0.156,0.306,0.283,0.609,0.424,0.917
									c-0.262-0.644-0.551-1.282-0.879-1.92c-8.504-16.546-37.65-27.157-66.871-27.157c-28.758,0-57.343,10.246-66.4,26.266
									C43.378,68.814,71.576,58.843,99.99,58.843z"/>
								<path fill="#414042" d="M100.146,135.055c-51.061,0-79.471-25.24-67.741-48.049c0.159-0.307,0.343-0.609,0.514-0.912
									c-0.395,0.636-0.767,1.283-1.105,1.94c-11.942,23.196,16.64,48.942,68.247,48.942c50.787,0,79.383-25.051,68.703-48.002
									C177.922,111.256,149.494,135.055,100.146,135.055z"/>
								
									<radialGradient id="SVGID_14_" cx="-177.3286" cy="656.0703" r="133.3586" gradientTransform="matrix(0.4759 0 0 0.2535 183.541 -65.0948)" gradientUnits="userSpaceOnUse">
									<stop  offset="0" style="stop-color:#F15D22"/>
									<stop  offset="0.0705" style="stop-color:#E95423"/>
									<stop  offset="0.1842" style="stop-color:#D23C24"/>
									<stop  offset="0.2883" style="stop-color:#B72126"/>
									<stop  offset="1" style="stop-color:#420000"/>
								</radialGradient>
								<path fill="url(#SVGID_14_)" d="M157.736,86.377c8.311,18.881-16.477,38.711-57.812,38.711
									c-41.337,0-66.082-19.83-57.734-38.711c6.48-14.656,31.818-24.331,57.799-24.331
									C125.967,62.046,151.287,71.721,157.736,86.377z"/>
								<linearGradient id="SVGID_15_" gradientUnits="userSpaceOnUse" x1="43.687" y1="72.8169" x2="156.2285" y2="72.8169">
									<stop  offset="0" style="stop-color:#F15D22"/>
									<stop  offset="0.0705" style="stop-color:#E95423"/>
									<stop  offset="0.1842" style="stop-color:#D23C24"/>
									<stop  offset="0.2883" style="stop-color:#B72126"/>
									<stop  offset="1" style="stop-color:#420000"/>
								</linearGradient>
								<path fill="url(#SVGID_15_)" d="M99.99,66.676c22.793,0,45.105,6.487,56.238,16.885
									c-8.268-13.066-31.965-21.515-56.24-21.515c-24.293,0-48.024,8.46-56.301,21.542C54.832,73.175,77.178,66.676,99.99,66.676z
									"/>
							</g>
							<g>
								<defs>
									<path id="SVGID_16_" d="M157.736,86.377c8.311,18.881-16.477,38.711-57.812,38.711c-41.337,0-66.082-19.83-57.734-38.711
										c6.48-14.656,31.818-24.331,57.799-24.331C125.967,62.046,151.287,71.721,157.736,86.377z"/>
								</defs>
								<clipPath id="SVGID_17_">
									<use xlink:href="#SVGID_16_"  overflow="visible"/>
								</clipPath>
								<g clip-path="url(#SVGID_17_)">
									<polygon fill="#231F20" points="127.605,61.87 144.33,126.447 136.178,126.449 122.531,61.871 									"/>
									<polygon fill="#231F20" points="139.883,61.868 164.053,126.443 155.9,126.445 134.809,61.869 									"/>
									<polygon fill="#231F20" points="115.328,61.871 124.607,126.451 116.453,126.453 110.252,61.871 									"/>
									<polygon fill="#231F20" points="103.051,61.873 104.883,126.453 96.729,126.455 97.975,61.873 									"/>
									<polygon fill="#231F20" points="90.773,61.875 85.158,126.459 77.002,126.459 85.697,61.875 									"/>
									<polygon fill="#231F20" points="78.494,61.876 65.432,126.461 57.277,126.461 73.418,61.877 									"/>
									<polygon fill="#231F20" points="66.215,61.877 45.706,126.465 37.548,126.467 61.139,61.877 									"/>
								</g>
							</g>
						</g>
						<linearGradient id="SVGID_18_" gradientUnits="userSpaceOnUse" x1="123.377" y1="91.9766" x2="136.8965" y2="91.9766">
							<stop  offset="0" style="stop-color:#414042"/>
							<stop  offset="0.486" style="stop-color:#343234"/>
							<stop  offset="1" style="stop-color:#231F20"/>
						</linearGradient>
						<polygon fill="url(#SVGID_18_)" points="123.977,64.834 136.896,118.543 135.082,119.264 123.377,64.689 						"/>
						
							<linearGradient id="SVGID_19_" gradientUnits="userSpaceOnUse" x1="1462.0977" y1="91.9766" x2="1475.6172" y2="91.9766" gradientTransform="matrix(-1 0 0 1 1539.7773 0)">
							<stop  offset="0" style="stop-color:#414042"/>
							<stop  offset="0.486" style="stop-color:#343234"/>
							<stop  offset="1" style="stop-color:#231F20"/>
						</linearGradient>
						<polygon fill="url(#SVGID_19_)" points="77.08,64.834 64.16,118.543 65.973,119.264 77.68,64.689 						"/>
						
							<linearGradient id="SVGID_20_" gradientUnits="userSpaceOnUse" x1="1449.4844" y1="93.1875" x2="1457.0039" y2="93.1875" gradientTransform="matrix(-1 0 0 1 1539.7773 0)">
							<stop  offset="0" style="stop-color:#414042"/>
							<stop  offset="0.486" style="stop-color:#343234"/>
							<stop  offset="1" style="stop-color:#231F20"/>
						</linearGradient>
						<polygon fill="url(#SVGID_20_)" points="89.693,62.863 82.773,122.934 84.588,123.656 90.293,62.719 						"/>
						
							<linearGradient id="SVGID_21_" gradientUnits="userSpaceOnUse" x1="-55.875" y1="93.1875" x2="-48.3555" y2="93.1875" gradientTransform="matrix(1 0 0 1 166.5918 0)">
							<stop  offset="0" style="stop-color:#414042"/>
							<stop  offset="0.486" style="stop-color:#343234"/>
							<stop  offset="1" style="stop-color:#231F20"/>
						</linearGradient>
						<polygon fill="url(#SVGID_21_)" points="111.316,62.863 118.236,122.934 116.422,123.656 110.717,62.719 						"/>
						
							<linearGradient id="SVGID_22_" gradientUnits="userSpaceOnUse" x1="-69.5898" y1="93.585" x2="-67.875" y2="93.585" gradientTransform="matrix(1 0 0 1 166.5918 0)">
							<stop  offset="0" style="stop-color:#414042"/>
							<stop  offset="0.486" style="stop-color:#343234"/>
							<stop  offset="1" style="stop-color:#231F20"/>
						</linearGradient>
						<polygon fill="url(#SVGID_22_)" points="98.717,62.055 98.477,125.078 97.002,125.115 98.23,62.061 						"/>
						<linearGradient id="SVGID_23_" gradientUnits="userSpaceOnUse" x1="137.5547" y1="89.7163" x2="152.0879" y2="89.7163">
							<stop  offset="0" style="stop-color:#414042"/>
							<stop  offset="0.486" style="stop-color:#343234"/>
							<stop  offset="1" style="stop-color:#231F20"/>
						</linearGradient>
						<polygon fill="url(#SVGID_23_)" points="137.988,69.482 152.088,108.965 150.916,110.141 137.555,69.292 						"/>
						
							<linearGradient id="SVGID_24_" gradientUnits="userSpaceOnUse" x1="1383.8574" y1="89.7163" x2="1398.3916" y2="89.7163" gradientTransform="matrix(-1 0 0 1 1447.3398 0)">
							<stop  offset="0" style="stop-color:#414042"/>
							<stop  offset="0.486" style="stop-color:#343234"/>
							<stop  offset="1" style="stop-color:#231F20"/>
						</linearGradient>
						<polygon fill="url(#SVGID_24_)" points="63.046,69.482 48.948,108.965 50.119,110.141 63.482,69.292 						"/>
					</g>
				</g>
			</g>
		</g>
	</g>
	<g>
		<g>
			<g>
				<g>
					<path fill="#E82A32" d="M107.682,105.676c15.818-0.336,31.088-8.972,40.562-20.902c2.367-2.982,8.6-4.654,11.52-1.307
						c6.732,7.717-5.617,18.568-10.834,22.627c-10.396,8.082-25.73,14.215-38.379,12.82c-4.07-0.451-10.066-2.691-9.24-8.029
						C101.768,107.932,104.639,105.74,107.682,105.676z"/>
					<g>
						<path opacity="0.6" fill="#EC6D41" d="M110.182,106.658c11.113-0.285,22.051-4.555,30.4-11.85
							c2.723-2.379,9.621-9.291,13.021-3.914c4.559,7.207-10.977,16.105-15.135,18.309c-7.869,4.17-17.391,6.457-26.33,6.504
							c-3.104,0.016-7.412-1.58-6.291-5.406C106.289,108.785,107.729,106.721,110.182,106.658z"/>
						<path fill="#D32A2F" d="M149.863,86.931c-9.639,11.805-24.914,20.632-40.82,21.366c-3.502,0.16-5.906,2.605-6.219,5.156
							c-0.068,0.564-0.281,1.6,0.072,2.359c-1.787-1.916-1.779-3.775-1.586-4.928c0.508-2.988,3.326-5.143,6.371-5.209
							c15.826-0.332,31.088-8.972,40.562-20.902c2.367-2.982,8.668-4.648,11.52-1.307c0.418,0.49,1.191,1.593,1.412,2.242
							C158.053,82.937,152.979,83.116,149.863,86.931z"/>
					</g>
				</g>
			</g>
			<path opacity="0.6" fill="#EF8F8F" d="M150.543,86.028c0,0,3.686-3.791,6.5-0.507c2.816,3.286-2.16,12.654-2.16,12.654
				s6.277-9.431,3.035-13.577C154.988,80.852,150.543,86.028,150.543,86.028z"/>
			
				<linearGradient id="SVGID_25_" gradientUnits="userSpaceOnUse" x1="253.3662" y1="-6.3164" x2="254.2218" y2="-0.872" gradientTransform="matrix(0.8964 -0.4433 0.4433 0.8964 -82.2168 209.3569)">
				<stop  offset="0" style="stop-color:#E4003C"/>
				<stop  offset="0.4672" style="stop-color:#B80431"/>
				<stop  offset="1" style="stop-color:#820924"/>
			</linearGradient>
			<path fill="url(#SVGID_25_)" d="M140.812,92.454c0,0,6.613,1.032,4.9,6.483c0,0,3.611-5.712-3.969-7.296L140.812,92.454z"/>
			
				<linearGradient id="SVGID_26_" gradientUnits="userSpaceOnUse" x1="321.417" y1="248.9883" x2="322.2726" y2="254.4327" gradientTransform="matrix(0.9488 -0.3158 0.3158 0.9488 -246.4766 -39.2788)">
				<stop  offset="0" style="stop-color:#E4003C"/>
				<stop  offset="0.4672" style="stop-color:#B80431"/>
				<stop  offset="1" style="stop-color:#820924"/>
			</linearGradient>
			<path fill="url(#SVGID_26_)" d="M135.594,96.395c0,0,7.053,1.412,3.963,7.096c0,0,4.465-6.011-2.926-7.773L135.594,96.395z"/>
			
				<linearGradient id="SVGID_27_" gradientUnits="userSpaceOnUse" x1="410.9404" y1="472.1162" x2="411.7963" y2="477.5619" gradientTransform="matrix(0.9814 -0.1918 0.1918 0.9814 -365.3643 -283.9893)">
				<stop  offset="0" style="stop-color:#E4003C"/>
				<stop  offset="0.4672" style="stop-color:#B80431"/>
				<stop  offset="1" style="stop-color:#820924"/>
			</linearGradient>
			<path fill="url(#SVGID_27_)" d="M127.057,101.193c0,0,4.73,2.445,3.023,7.543c0,0,4.59-4.258-1.91-8.084L127.057,101.193z"/>
			
				<linearGradient id="SVGID_28_" gradientUnits="userSpaceOnUse" x1="638.583" y1="817.1787" x2="639.4385" y2="822.6224" gradientTransform="matrix(0.9995 0.0305 -0.0305 0.9995 -492.4199 -732.5557)">
				<stop  offset="0" style="stop-color:#E4003C"/>
				<stop  offset="0.4672" style="stop-color:#B80431"/>
				<stop  offset="1" style="stop-color:#820924"/>
			</linearGradient>
			<path fill="url(#SVGID_28_)" d="M118.904,104.082c0,0,6,3.529,1.273,8.025c0,0,7.545-3.695-0.068-8.305L118.904,104.082z"/>
		</g>
		<path opacity="0.3" fill="#EF8F8F" d="M106.127,112.729c1.455,1.857,4.283,2.162,2.842,3.293
			c-1.443,1.127-3.793,0.535-5.246-1.324c-1.455-1.857-1.467-4.281-0.021-5.408C105.143,108.16,104.672,110.871,106.127,112.729z"/>
	</g>
	<g>
		<g>
			<path fill-rule="evenodd" clip-rule="evenodd" fill="#6D312F" d="M67.465,85.362c0,0-3.837-1.646-8.8-1.175
				c-5.759,0.547-10.45,1.071-12.387,1.746c-2.052,0.717-4.526,1.502-7.746,2.875c-3.534,1.512-13.176,13.125-7.782,18.492
				c5.442,5.41,18.991,7.812,31.359,4.92c9.577-2.24,13.813-3.869,15.163-6.541c1.223-2.424,2.027-5.29,1.33-7.715
				c-0.662-2.3-2.332-6.611-3.074-8.125C74.805,88.366,71.23,86.334,67.465,85.362z"/>
			<path fill-rule="evenodd" clip-rule="evenodd" fill="#B9542A" d="M65.793,83.721c0,0-3.876-1.689-8.958-1.344
				c-5.89,0.4-10.693,0.805-12.685,1.418c-2.11,0.649-4.656,1.355-7.97,2.617c-3.646,1.388-13.754,12.449-8.385,17.785
				c5.407,5.381,19.162,8.029,31.843,5.512c9.832-1.951,14.199-3.436,15.644-6.002c1.316-2.328,2.209-5.096,1.561-7.47
				c-0.615-2.255-2.211-6.487-2.932-7.977C73.213,86.811,69.613,84.752,65.793,83.721z"/>
			<path fill-rule="evenodd" clip-rule="evenodd" fill="#D86224" d="M65.684,84.816c0,0-3.647-1.561-8.394-1.151
				c-5.454,0.47-9.858,0.921-11.665,1.526c-1.907,0.639-4.201,1.334-7.157,2.552c-3.228,1.328-11.81,11.493-6.979,16.286
				c4.867,4.828,17.079,7.279,28.51,5.078c9.053-1.742,13.139-3.098,14.518-5.479c1.26-2.174,2.135-4.774,1.547-7.012
				c-0.561-2.131-2.035-6.145-2.709-7.56C72.701,87.678,69.295,85.751,65.684,84.816z"/>
			<path fill-rule="evenodd" clip-rule="evenodd" fill="#501613" d="M38.741,85.489c0,0,7.774,7.511,10.956,9.872
				c3.145,2.333,6.654,4.181,8.655,4.742c1.944,0.547,9.856,7.625,9.856,7.625s-7.11-5.918-11.61-7.047
				c-4.819-1.203-10.459-6.225-12.195-7.943C42.665,91.025,38.741,85.489,38.741,85.489z"/>
			<path fill-rule="evenodd" clip-rule="evenodd" fill="#501613" d="M52.359,82.545c0,0,6.524,6.238,9.115,8.223
				c2.565,1.969,5.36,3.574,6.913,4.104c1.516,0.52,8.146,6.468,8.146,6.468s-5.918-4.998-9.408-6.092
				c-3.687-1.158-8.351-5.326-9.81-6.746C55.86,87.087,52.359,82.545,52.359,82.545z"/>
			<path fill-rule="evenodd" clip-rule="evenodd" fill="#501613" d="M71.365,86.557c0,0-2.5,2.085-8.414,4.26
				c-3.437,1.264-7.829,4.282-9.205,5.598c-1.464,1.397-17.685,8.787-17.685,8.787s14.776-6.739,17.993-9.906
				c2.824-2.781,9.571-5.348,11.551-6.027C67.455,88.634,71.365,86.557,71.365,86.557z"/>
			<path fill-rule="evenodd" clip-rule="evenodd" fill="#501613" d="M75.389,91.887c0,0-1.895,2.191-6.457,4.625
				c-2.592,1.381-5.727,4.414-6.662,5.689c-0.987,1.338-12.084,8.457-12.084,8.457s10.071-6.467,12.223-9.504
				c1.928-2.717,6.989-5.509,8.514-6.275C72.359,94.158,75.389,91.887,75.389,91.887z"/>
			<path fill-rule="evenodd" clip-rule="evenodd" fill="#501613" d="M63.006,82.867c0,0-2.363,1.734-7.789,3.467
				c-3.077,0.981-6.882,3.316-8.038,4.322c-1.214,1.053-14.273,6.188-14.273,6.188s11.843-4.661,14.506-7.057
				c2.396-2.159,8.411-4.156,10.217-4.695C59.334,84.582,63.006,82.867,63.006,82.867z"/>
		</g>
		<path fill-rule="evenodd" clip-rule="evenodd" fill="#F2B5A5" d="M30.331,98.638c0,0,4.196-7.107,5.743-8.364
			c1.501-1.218,2.01-2.429,3.873-3.116c1.811-0.67,3.615-0.721,6.331-1.225c2.624-0.484,3.101-0.691,5.384-1.336
			c2.206-0.623,4.913-1.127,7.205-0.999c0,0-4.934-0.817-8.28,0.185c-3.526,1.054-4.975,1.59-7.414,1.689
			c-2.506,0.102-6.826,1.174-9.006,3.877C31.856,92.213,30.331,98.638,30.331,98.638z"/>
		<path fill-rule="evenodd" clip-rule="evenodd" fill="#F2B5A5" d="M76.18,95.191c0,0-0.969,4.287-1.58,5.158
			c-0.627,0.891-0.732,1.786-1.688,2.375c-0.973,0.598-2.061,0.729-3.727,1.287c-1.709,0.57-2.021,0.783-3.604,1.521
			c-1.623,0.756-3.759,1.49-5.676,1.588c0,0,4.049,0.324,6.51-0.93c2.361-1.203,3.26-1.752,4.791-1.979
			c1.502-0.225,3.795-1.262,4.521-3.272C76.43,99.003,76.18,95.191,76.18,95.191z"/>
		<path opacity="0.5" fill-rule="evenodd" clip-rule="evenodd" fill="#D86224" d="M66.416,106.191
			c-5.184,2.141-10.629,0.789-16.03,1.178c-5.716,0.414-7.355-2.188-16.022-5.453c-8.932-3.362-1.539-13.084-1.422-13.237
			c-4.106,3.774-9.235,11.454-5.146,15.519c0.547,0.545,1.21,1.057,1.936,1.547c0.246,0.564,0.557,1.1,1.018,1.557
			c5.442,5.41,18.991,7.812,31.359,4.92c9.577-2.24,13.813-3.869,15.163-6.541c1.223-2.424,2.027-5.29,1.33-7.715
			c-0.266-0.921-0.695-2.173-1.16-3.435c0,0.001,0,0.001,0,0.002C78.127,102.367,71.207,104.213,66.416,106.191z"/>
	</g>
	<g>
		<path fill="#944F2F" d="M67.137,60.135c-0.377,0.943-0.721,11.95,1.547,16.701c2.268,4.75,15.561,14.656,21.537,14.869
			c5.977,0.214,17.209,2.389,24.35,3.082c7.143,0.693,14.846-0.971,17.416-6.385c2.572-5.413,5.879-12.523,4.377-19.841
			C134.863,61.242,70.633,51.372,67.137,60.135z"/>
		<path opacity="0.5" fill="#944F2F" d="M131.986,88.402c2.572-5.413,5.879-12.523,4.377-19.841c-0.17-0.831-1.148-1.694-2.754-2.56
			c-4.596,4.643-7.816,17.768-9.107,22.302c-1.453,5.11-7.762,3.957-14.299,3.205c-6.539-0.752-20.826-2.04-26.666-4.241
			c-5.838-2.201-10.605-11.217-10.248-13.509s-5.566-10.47-5.566-10.47c-0.25-0.383-0.523-0.677-0.818-0.898
			c-0.156,3.693,0.064,10.855,1.779,14.445c2.268,4.75,15.561,14.656,21.537,14.869c5.977,0.214,17.209,2.389,24.35,3.082
			C121.713,95.48,129.416,93.816,131.986,88.402z"/>
		<path fill="#F9BB80" d="M108.582,51.437c0,0-7.135,2.103-15.07,1.354c-7.936-0.748-20.615-2.225-23.83,0.948
			c-3.217,3.173-5.048,15.228,3.607,20.021c8.654,4.792,17.633,7.81,25.396,8.147c7.766,0.338,14.586,2.806,18.93,3.506
			c4.346,0.7,9.623-0.532,12.496-4.527c2.871-3.996,8.48-9.998,5.314-16.208C132.26,58.466,120.25,49.923,108.582,51.437z"/>
		<g>
			<path fill="#E16242" d="M125.936,56.774c0,0-0.482,0.066-2.904,1.815c-2.422,1.75-2.004,1.748-5.885,2.166
				s-3.398,1.794-6.387,0.628c-2.986-1.165-7.303-0.7-9.578-3.348c-2.275-2.648-2.033-3.398,1.092-4.237
				c3.127-0.838,6.434-1.245,7.602-1.775C111.043,51.493,118.746,53.4,125.936,56.774z"/>
			<path fill="#E16242" d="M127.029,58.122c0,0-1.75,0.359-2.803,1.724s-3.42,2.352-4.873,2.538
				c-1.449,0.188-3.488,0.526-3.881,0.691c-0.396,0.164,3.338,3.011,2.703,5.268c-0.635,2.256-0.992,4.628-1.41,6.516
				c-0.418,1.889,1.148,4.201,1.939,5.215c0.793,1.014,5.629,3.17,7.201,2.607s6.059-5.812,7.256-9.275
				C134.359,69.939,137.6,64.7,127.029,58.122z"/>
			<path fill="#E16242" d="M99.229,80.68c0.129-0.471,3.955-4.52,7.693-5.891c3.736-1.371,10.885-3.561,8.275-7.385
				c-2.611-3.822-6.922-5.271-9.465-5.926s-5.705-3.025-6.76-3.148c-1.055-0.124-3.123,0.547-6.457,0.222
				c-3.332-0.327-4.609-1.277-5.553-0.097c-0.943,1.18-1.744,3.043-2.689,4.224c-0.943,1.181-2.201,2.724-1.625,4.104
				c0.576,1.382,5.885,5.009,7.549,5.891s6.41,2.936,6.756,4.877c0.344,1.94-0.396,2.943-0.396,2.943L99.229,80.68z"/>
			<path fill="#E16242" d="M100.715,81.07c0.02-0.285,2.615-3.174,5.664-4.305c3.051-1.131,8.871-3.509,9.535-4.805
				c0,0-2.291,5.401,0.68,8.195c2.971,2.793,6.541,3.807,6.541,3.807s-5.025,0.611-9.607-1.047
				C108.943,81.256,100.715,81.07,100.715,81.07z"/>
			<path fill="#E16242" d="M68.273,63.643c0,0,4.322,1.258,6.158,2.439c1.836,1.181,5.066,1.596,6.557,0.836
				c0,0,2.332,3.708,6.314,5.709c3.984,2.002,7.287,4.146,7.5,5.217c0.213,1.068-0.191,2.766-0.191,2.766s-9.803-2.403-14.053-4.71
				C76.309,73.592,70.146,72.591,68.273,63.643z"/>
			<path fill="#E16242" d="M81.096,64.861c0,0,1.572-3.342,2.32-4.44c0.746-1.099,1.672-3.581,2.73-3.532
				c1.061,0.048,5.35,0.32,6.586,0.433s5.582-0.28,5.582-0.28s-0.377-1.464-2.717-2.297c-2.338-0.833-7.178-1.55-10.244-1.571
				c-3.064-0.021-7.365-0.222-8.701-0.314c-1.334-0.092-2.92,0.661-0.77,2.822C78.033,57.844,78.361,64.193,81.096,64.861z"/>
			<path fill="#E16242" d="M79.631,65.17c0,0-2.596-2.672-3.414-6.084c-0.818-3.412-1.977-3.3-2.598-4.014
				c-0.621-0.714-0.32-2.584-0.32-2.584s-3.848,0.475-4.379,3.985c-0.529,3.51-0.77,5.602-0.77,5.602s4.398,1.551,6.055,2.529
				C75.863,65.58,78.979,66.275,79.631,65.17z"/>
		</g>
		<path opacity="0.4" fill="#FFFFFF" d="M108.121,54.322c0,0,3.758-1.147,7.709,0.114c3.953,1.261,8.406,3.38,10.338,4.689
			c1.93,1.309,7.07,3.216,6.643,7.504c-0.43,4.286-2.252,9.793-4.953,12.167c-2.699,2.376-4.811,2.131-6.945,2.843
			c-2.133,0.713-2.365-3.586,1.549-5.735s6.092-2.538,6.027-5.499c-0.064-2.963,0.906-5.316-3.57-6.701s-9.561-1.736-9.947-3.915
			C114.584,57.61,99.232,55.11,108.121,54.322z"/>
		<path opacity="0.6" fill="#F9BB80" d="M94.803,77.844c-5.771-1.283-14.244-1.944-18.893-4.156
			c-4.65-2.211-2.207-4.474-3.871-6.385c-1.666-1.913-1.676-6.107,0.166-11.072c1.84-4.964,9.541-4.25,8.672-4.413
			c-4.996-0.146-9.465,0.214-11.195,1.921c-3.217,3.173-5.048,15.228,3.607,20.021c8.654,4.792,17.633,7.81,25.396,8.147
			c2.566,0.111,5.027,0.456,7.33,0.892C103.582,82.297,100.574,79.126,94.803,77.844z"/>
	</g>
</g>
</svg>
