<?xml version="1.0" encoding="utf-8"?>
<!-- Generator: Adobe Illustrator 16.0.0, SVG Export Plug-In . SVG Version: 6.00 Build 0)  -->
<!DOCTYPE svg PUBLIC "-//W3C//DTD SVG 1.1//EN" "http://www.w3.org/Graphics/SVG/1.1/DTD/svg11.dtd">
<svg version="1.1" id="Layer_1" xmlns="http://www.w3.org/2000/svg" xmlns:xlink="http://www.w3.org/1999/xlink" x="0px" y="0px"
	 width="200px" height="200px" viewBox="0 0 200 200" enable-background="new 0 0 200 200" xml:space="preserve">
<g>
	<path fill-rule="evenodd" clip-rule="evenodd" fill="#9FC3D6" d="M25.139,95.558c-2.322,3.762-8.078,30.747,4.874,44.011
		c12.951,13.264,27.437,16.668,30.809,21.181c3.374,4.515-1.8,7.683-5.947,7.771c-4.148,0.091-24.804-1.174-37.679-15.571
		C4.32,138.55,3.962,119.81,8.471,112.73c4.51-7.077,5.483-6.246,10.647-12.675c5.167-6.43,1.014-3.735,1.165-6.796
		C20.437,90.199,27.427,90.268,25.139,95.558z"/>
	<path fill-rule="evenodd" clip-rule="evenodd" fill="#9FC3D6" d="M48.713,75.042c-9.162-9.629-7.823-21.304,1.794-28.897
		c0.185-0.146,0.369-0.288,0.553-0.429c1.329-3.592,5.168-6.954,12.725-9.645c-1.521,1.088-1.559,2.65-1.18,4.508
		c5.42-0.405,10.237,2.425,15.21,7.612c7.824,8.162,8.771,21.542-0.206,28.646C68.743,83.853,57.875,84.671,48.713,75.042z"/>
	<path fill-rule="evenodd" clip-rule="evenodd" fill="#9FC3D6" d="M171.509,73.686c5.149,5.296,10.369,10.514,15.62,15.704
		c1.855,1.833,3.716,3.663,5.566,5.5c1.079,1.071,2.188,2.15,3.224,3.266c0.178,0.192,0.349,0.391,0.515,0.597l0.009,0.009
		c0.985,1.058,1.755,2.374,2.06,3.828c0.269,1.271,0.175,2.66-0.5,3.901c-0.279,0.513-0.644,0.972-1.082,1.368l0,0l-0.021,0.02l0,0
		l-0.021,0.02l-0.022,0.02l-0.021,0.019l-0.025,0.022l-0.024,0.021l-0.025,0.02l0,0l-0.025,0.022l0,0
		c-0.5,0.411-1.062,0.716-1.676,0.892c-2.764,0.796-5.481-1.184-7.051-2.998c-0.1-0.115-0.199-0.23-0.297-0.35
		c-0.081-0.089-0.159-0.179-0.236-0.268c-1.064-1.231-2.057-2.604-3.015-3.92c-1.493-2.052-2.959-4.123-4.433-6.19
		c-4.208-5.898-8.46-11.75-12.879-17.494c-0.097-0.126-0.196-0.255-0.295-0.383l0.002-0.002c-1.862-1.98-3.76-3.766-5.592-5.886
		c-0.141-0.159-1.709-0.071-4.092-0.668v17.983c0,2.952-2.415,5.367-5.366,5.367h-41.781c-2.952,0-5.367-2.415-5.367-5.367V53.847
		c0-1.63,0.734-3.095,1.89-4.081c-1.218-1.206-1.89-2.521-1.89-3.901c0-5.774,11.756-10.455,26.259-10.455
		c14.501,0,26.256,4.681,26.256,10.455c0,1.38-0.671,2.696-1.889,3.901c1.155,0.986,1.889,2.45,1.889,4.081v3.187L171.509,73.686z"
		/>
	<path fill-rule="evenodd" clip-rule="evenodd" fill="#9FC3D6" d="M152.483,160.57c-0.993-0.146-3.314-1.205-2.669-5.496
		c1.175-7.483,2.141-14.888,1.997-22.487c-0.047-2.48,0.2-3.175-1.699-4.943c-1.692-1.574-2.852-4.786-2.852-8.489
		c0-5.259,2.338-9.524,5.223-9.524c2.884,0,5.223,4.266,5.223,9.524c0,3.703-1.159,6.915-2.851,8.489
		c-1.9,1.769-1.654,2.463-1.701,4.943c-0.144,7.6,0.823,15.004,1.999,22.487C155.798,159.365,153.477,160.425,152.483,160.57
		L152.483,160.57z M80.014,133.766c1.381-16.648,15.326-29.728,32.331-29.728c17.92,0,32.447,14.525,32.447,32.444
		c0,17.92-14.527,32.445-32.447,32.445c-16.381,0-29.925-12.141-32.129-27.912h-4.122c-1.396,0-2.537-1.144-2.537-2.539v-2.176
		c0-1.396,1.141-2.535,2.537-2.535H80.014z"/>
	<path fill-rule="evenodd" clip-rule="evenodd" fill="#9FC3D6" d="M83.638,86.746c0.527,0.854,1.207,3.314-2.493,5.579
		c-3.605,2.172-7.149,4.378-10.571,6.766c2.765,3.739,4.398,8.362,4.398,13.367c0,12.433-10.078,22.511-22.51,22.511
		c-12.432,0-22.511-10.078-22.511-22.511c0-12.431,10.08-22.51,22.511-22.51c6.664,0,12.65,2.897,16.772,7.499
		c2.938-2.946,5.719-6.048,8.479-9.213C80.583,84.982,82.888,86.078,83.638,86.746z"/>
	<g>
		<path fill-rule="evenodd" clip-rule="evenodd" fill="#FFE9BA" d="M20.646,91.22c-2.321,3.763-8.078,30.748,4.874,44.011
			c12.952,13.265,27.437,16.665,30.811,21.18c3.372,4.514-1.802,7.683-5.95,7.771c-4.148,0.091-24.804-1.174-37.679-15.571
			c-12.874-14.398-13.232-33.139-8.723-40.219c4.511-7.076,5.484-6.247,10.648-12.676c5.166-6.429,1.013-3.733,1.166-6.794
			C15.944,85.861,22.935,85.93,20.646,91.22z"/>
		<path fill-rule="evenodd" clip-rule="evenodd" fill="#FFAE00" d="M53.216,163.679c-0.924,0.309-1.905,0.484-2.835,0.504
			c-4.148,0.091-24.804-1.174-37.679-15.571c-12.874-14.398-13.232-33.139-8.723-40.219c4.511-7.076,5.484-6.247,10.648-12.676
			c5.166-6.429,1.013-3.733,1.166-6.794c0.11-2.206,3.771-2.785,4.951-0.958c-2.706,5.147-5.142,10.205-5.742,11.588
			c-2.321,3.765-6.631,26.723,6.321,39.983c12.951,13.264,27.437,16.668,30.811,21.181C52.932,161.786,53.251,162.78,53.216,163.679
			z"/>
		<path fill-rule="evenodd" clip-rule="evenodd" fill="#CF7602" d="M56.331,156.411c2.541,3.4,0.231,6.036-2.834,7.168
			c-1.38,0.51-1.71-0.84-1.894-2.391c-0.133-1.12,0.171-4.298,2.565-4.077C55.881,157.269,55.272,154.996,56.331,156.411z"/>
		<path fill-rule="evenodd" clip-rule="evenodd" fill="#CF7602" d="M20.646,91.22c-0.05,0.081-0.103,0.176-0.156,0.28l0,0
			c-1.081,0.984-1.415-0.295-2.011-1.227s-0.254,2.177-1.26,1.108l0,0c-0.112-0.851-1.517-0.656-1.426-2.459
			C15.944,85.861,22.935,85.93,20.646,91.22z"/>
	</g>
	<g>
		<path fill-rule="evenodd" clip-rule="evenodd" fill="#E6535F" d="M44.222,70.705c-9.163-9.629-7.824-21.303,1.794-28.897
			c11.058-8.731,18.962-6.657,27.307,2.046c7.824,8.162,8.772,21.542-0.204,28.646C64.25,79.516,53.382,80.334,44.222,70.705z"/>
		<path fill-rule="evenodd" clip-rule="evenodd" fill="#D4424E" d="M58.121,62.295c-2.906-0.69-6.942-5.882-4.311-8.718
			c2.628-2.834,7.17-2.225,7.867,1.471S61.371,63.067,58.121,62.295z"/>
		<path fill="#961E28" d="M57.396,55.78c0.501,0.098,0.831,0.588,0.73,1.092c-0.1,0.504-0.589,0.833-1.093,0.732
			c-0.378-0.075-0.604-0.118-0.83-0.161c-3.914-0.746-8.364-3.928-13.309-6.619c-0.332-0.393,0.407-1.586,0.8-1.917
			c0.392-0.33,0.979-0.28,1.307,0.112c4.397,5.237,7.963,5.916,11.553,6.599C56.883,55.681,57.216,55.744,57.396,55.78z"/>
		<path fill-rule="evenodd" clip-rule="evenodd" fill="#A8C76D" d="M59.292,31.733c-16.2,5.769-15.322,14.621-9.228,22.219
			C67.944,45.983,53.742,35.707,59.292,31.733z"/>
		<path fill-rule="evenodd" clip-rule="evenodd" fill="#6A8733" d="M49.762,52.326c0.147-5.798,4.647-16.065,7.006-17.708
			C53.771,35.688,48.905,45.626,49.762,52.326z"/>
		<circle fill-rule="evenodd" clip-rule="evenodd" fill="#F2B1B6" cx="69.621" cy="47.477" r="3.135"/>
	</g>
	<g>
		<circle fill-rule="evenodd" clip-rule="evenodd" fill="#FFFFFF" cx="109.588" cy="132.578" r="32.447"/>
		<circle fill-rule="evenodd" clip-rule="evenodd" fill="#E6E6E6" cx="109.588" cy="132.578" r="30.453"/>
		<path fill-rule="evenodd" clip-rule="evenodd" fill="#FFFFFF" d="M70.799,134.574v-2.175c0-1.396,1.142-2.539,2.538-2.539h15.951
			c1.395,0,2.537,1.144,2.537,2.539v2.175c0,1.394-1.142,2.536-2.537,2.536H73.336C71.94,137.11,70.799,135.968,70.799,134.574z"/>
		<path fill-rule="evenodd" clip-rule="evenodd" fill="#E6E6E6" d="M72.062,134.179v-1.383c0-0.887,0.727-1.614,1.612-1.614H88.65
			c0.885,0,1.611,0.728,1.611,1.614v1.383c0,0.883-0.726,1.61-1.611,1.61H73.674C72.789,135.789,72.062,135.062,72.062,134.179z"/>
		<circle fill-rule="evenodd" clip-rule="evenodd" fill="#FFFFFF" cx="109.589" cy="132.578" r="25.558"/>
		<circle fill-rule="evenodd" clip-rule="evenodd" fill="#B3B3B3" cx="109.589" cy="132.578" r="23.021"/>
		<circle fill-rule="evenodd" clip-rule="evenodd" fill="#542930" cx="109.589" cy="132.578" r="19.576"/>
		<circle fill-rule="evenodd" clip-rule="evenodd" fill="#3C1319" cx="109.589" cy="132.578" r="14.139"/>
		<path fill-rule="evenodd" clip-rule="evenodd" fill="#7A4D55" d="M98.81,118.918c2.964-2.34,6.707-3.739,10.778-3.739
			c9.611,0,17.401,7.789,17.401,17.399c0,4.072-1.397,7.814-3.74,10.78c1.793-2.765,2.834-6.061,2.834-9.602
			c0-9.759-7.912-17.672-17.672-17.672C104.869,116.085,101.573,117.126,98.81,118.918z"/>
	</g>
	<g>
		<path fill-rule="evenodd" clip-rule="evenodd" fill="#E8B588" d="M150.787,45.428c1.156,0.987,1.892,2.452,1.892,4.082v34.888
			c0,2.952-2.417,5.37-5.368,5.37h-41.779c-2.952,0-5.369-2.417-5.369-5.37V49.51c0-1.63,0.736-3.096,1.89-4.082
			c-1.218-1.204-1.89-2.521-1.89-3.901c0-5.774,11.756-10.455,26.258-10.455s26.258,4.681,26.258,10.455
			C152.679,42.907,152.007,44.224,150.787,45.428z"/>
		<path fill-rule="evenodd" clip-rule="evenodd" fill="#F8F2D0" d="M149.992,44.625c0.833-0.825,1.555-1.883,1.555-3.098
			c0-3.111-4.573-5.384-6.978-6.341c-5.511-2.195-12.252-2.982-18.148-2.982c-5.895,0-12.638,0.787-18.149,2.982
			c-2.403,0.958-6.978,3.23-6.978,6.341c0,1.215,0.723,2.273,1.555,3.098l0.876,0.864l-0.936,0.8
			c-0.945,0.807-1.495,1.974-1.495,3.221v34.888c0,2.33,1.908,4.238,4.237,4.238h41.779c2.328,0,4.236-1.908,4.236-4.238V49.51
			c0-1.247-0.549-2.414-1.496-3.221l-0.934-0.8L149.992,44.625z"/>
	</g>
	<path fill-rule="evenodd" clip-rule="evenodd" fill="#FFC64C" d="M107.62,53.029c9.782-5.681,20.083-10.482,27.538-12.246
		c7.013-1.659,11.392,2.971,7.294,9.26c-5.457,8.377-14.784,16.461-23.247,22.048C109.792,78.307,97.491,58.911,107.62,53.029z"/>
	<path fill-rule="evenodd" clip-rule="evenodd" fill="#FFFFFF" d="M149.726,156.666c-0.992-0.146-3.314-1.205-2.668-5.496
		c1.175-7.484,2.14-14.889,1.997-22.487c-0.048-2.479,0.199-3.173-1.699-4.943c-1.692-1.574-2.853-4.782-2.853-8.489
		c0-5.259,2.339-9.524,5.223-9.524c2.886,0,5.223,4.266,5.223,9.524c0,3.707-1.157,6.915-2.851,8.489
		c-1.901,1.771-1.654,2.465-1.7,4.943c-0.142,7.599,0.824,15.003,1.998,22.487C153.04,155.461,150.719,156.521,149.726,156.666z"/>
	<path fill-rule="evenodd" clip-rule="evenodd" fill="#FFFFFF" d="M47.971,130.631c12.397,0,22.51-10.113,22.51-22.51
		c0-12.399-10.113-22.513-22.51-22.513c-12.4,0-22.513,10.114-22.513,22.513C25.458,120.518,35.571,130.631,47.971,130.631z"/>
	<path fill-rule="evenodd" clip-rule="evenodd" fill="#E6E6E6" d="M69.046,100.199c-2.226,1.609-4.395,3.302-6.489,5.127
		c-1.869,1.63-2.559,1.887-2.693,4.478c-0.119,2.311-1.833,5.262-4.669,7.641c-4.029,3.382-8.8,4.334-10.655,2.123
		c-1.853-2.211-0.089-6.743,3.94-10.124c2.838-2.379,6.042-3.556,8.335-3.271c2.576,0.319,2.949-0.316,4.879-1.875
		c2.311-1.867,4.491-3.844,6.584-5.898C68.559,98.985,68.814,99.585,69.046,100.199z"/>
	<path fill-rule="evenodd" clip-rule="evenodd" fill="#E6E6E6" d="M47.971,126.904c10.346,0,18.786-8.438,18.786-18.783
		c0-10.348-8.44-18.788-18.786-18.788c-10.348,0-18.788,8.44-18.788,18.788C29.183,118.466,37.623,126.904,47.971,126.904z"/>
	<path fill-rule="evenodd" clip-rule="evenodd" fill="#E6535F" d="M47.971,124.455c8.997,0,16.335-7.338,16.335-16.334
		c0-8.998-7.338-16.337-16.335-16.337c-8.999,0-16.337,7.339-16.337,16.337C31.634,117.117,38.973,124.455,47.971,124.455z"/>
	<path fill-rule="evenodd" clip-rule="evenodd" fill="#F0717C" d="M50.095,121.035c7.074,0,12.843-5.769,12.843-12.843
		c0-7.073-5.769-12.842-12.843-12.842c-7.073,0-12.841,5.769-12.841,12.842C37.254,115.267,43.022,121.035,50.095,121.035z"/>
	<path fill-rule="evenodd" clip-rule="evenodd" fill="#FFFFFF" d="M79.146,82.408c0.527,0.854,1.207,3.314-2.493,5.577
		c-6.491,3.912-12.783,7.93-18.511,12.924c-1.871,1.63-2.561,1.887-2.694,4.478c-0.119,2.311-1.833,5.262-4.67,7.645
		c-4.029,3.381-8.8,4.331-10.653,2.119c-1.855-2.207-0.091-6.74,3.938-10.122c2.838-2.381,6.042-3.558,8.336-3.273
		c2.576,0.319,2.949-0.314,4.88-1.875c5.911-4.775,10.963-10.273,15.941-15.985C76.091,80.644,78.396,81.741,79.146,82.408z"/>
	<path fill-rule="evenodd" clip-rule="evenodd" fill="#F0717C" d="M47.156,120.697c-5.677-1.331-9.902-6.425-9.902-12.505
		c0-4.257,2.071-8.029,5.26-10.364c-0.168,5.606,3.511,15.631,15.275,19.472C54.241,119.532,50.527,120.573,47.156,120.697z"/>
	<g>
		<path fill-rule="evenodd" clip-rule="evenodd" fill="#FFFFFF" d="M169.683,72.447c4.704,4.775,9.481,9.478,14.291,14.151
			c1.684,1.635,3.374,3.266,5.055,4.907c0.979,0.955,1.988,1.919,2.923,2.919c0.984,1.055,1.752,2.374,2.06,3.824
			c0.269,1.271,0.175,2.662-0.501,3.904c-0.297,0.545-0.693,1.033-1.17,1.446c-0.524,0.454-1.12,0.787-1.775,0.978
			c-2.764,0.796-5.479-1.185-7.052-2.999c-0.957-1.106-1.838-2.355-2.69-3.546c-1.327-1.861-2.628-3.742-3.936-5.617
			c-3.732-5.354-7.512-10.657-11.455-15.853c-2.8-3.687-5.806-6.174-8.664-9.475c-0.393-0.455-12.188,1.076-21.543-16.416
			c-1.106-2.069-5.968-17.338-1.288-18.36c0.712-0.154,1.351,0.189,1.772,0.675L169.683,72.447z"/>
		<path fill-rule="evenodd" clip-rule="evenodd" fill="#635963" d="M166.804,69.129l0.079,0.082
			c5.192,5.34,10.458,10.605,15.754,15.842c1.854,1.833,3.715,3.662,5.565,5.499c1.079,1.072,2.19,2.151,3.223,3.266
			c1.093,1.177,1.969,2.619,2.37,4.184c0.351,1.368,0.33,2.841-0.311,4.124c-0.28,0.564-0.668,1.061-1.145,1.474
			c-0.524,0.454-1.131,0.776-1.806,0.941c-2.853,0.694-5.808-1.561-7.554-3.58c-1.065-1.231-2.058-2.604-3.015-3.921
			c-1.493-2.052-2.96-4.125-4.434-6.19c-4.206-5.9-8.458-11.75-12.877-17.494c-0.099-0.126-0.198-0.256-0.297-0.382
			c0.661-0.708,1.364-1.385,2.111-2.032C165.223,70.289,166.001,69.686,166.804,69.129z"/>
		<path fill-rule="evenodd" clip-rule="evenodd" fill="#7D767D" d="M164.922,72.524l22.139,26.659
			c1.554,1.87-0.295,3.467-1.822,1.504l-21.167-27.217c-0.043-0.055-0.088-0.109-0.134-0.162L164.922,72.524z"/>
	</g>
</g>
</svg>
