<?xml version="1.0" encoding="utf-8"?>
<!-- Generator: Adobe Illustrator 16.0.0, SVG Export Plug-In . SVG Version: 6.00 Build 0)  -->
<!DOCTYPE svg PUBLIC "-//W3C//DTD SVG 1.1//EN" "http://www.w3.org/Graphics/SVG/1.1/DTD/svg11.dtd">
<svg version="1.1" id="Layer_1" xmlns="http://www.w3.org/2000/svg" xmlns:xlink="http://www.w3.org/1999/xlink" x="0px" y="0px"
	 width="200px" height="200px" viewBox="0 0 200 200" enable-background="new 0 0 200 200" xml:space="preserve">
<g>
	<g>
		<path opacity="0.1" d="M105.857,166.345c24.578,3.391,50.047,2.181,73.999-3.513c5.476-1.303,11.09-2.944,15.099-6.32
			c0.673-0.566,1.329-1.269,1.267-2.065c-0.054-0.649-0.581-1.2-1.116-1.676c-6.328-5.651-16.177-7.26-25.372-8.195
			c-9.59-0.978-19.239-1.551-28.898-1.721c-11.499-0.202-26.904,0.175-37.137,5.377C92.317,154.019,90.711,164.256,105.857,166.345z
			"/>
		<g>
			<path fill="#EB850C" d="M199.02,104.15c-0.11,6.76-3.094,12.985-6.784,18.129c-14.354,20.003-35.784,31.896-56.623,40.277
				c-12.153,4.889-30.893,3.623-37.982-11.508c-2.215-4.727-2.215-9.074-0.854-12.879c2.036-5.69,7.113-10.167,12.377-12.884
				c13.892-7.169,29.466-10.331,42.033-20.229c6.578-5.179,12.273-11.361,19.314-15.769
				C180.579,82.982,199.271,88.396,199.02,104.15z"/>
			<path fill="#E66C14" d="M196.096,115.713c-14.354,20.004-35.786,31.897-56.625,40.278c-12.153,4.889-30.892,3.622-37.982-11.507
				c-2.151-4.591-2.208-8.822-0.963-12.548c-1.616,1.858-2.93,3.946-3.749,6.233c-1.361,3.805-1.362,8.152,0.854,12.879
				c7.09,15.131,25.829,16.396,37.982,11.508c20.839-8.381,42.27-20.274,56.623-40.277c1.497-2.084,2.87-4.348,3.989-6.749
				C196.181,115.591,196.14,115.653,196.096,115.713z"/>
			<path fill="#AA3915" d="M129.244,148.587c6.438-3.95,13.961-6.162,20.541-9.824c11.749-6.539,22.627-14.988,33.02-24.091
				c6.643-5.817,13.603-12.477,15.599-22.35c1.905-9.412-6.052-13.696-13.291-10.417c-5.269,2.389-9.061,7.665-13.087,12.265
				c-11.329,12.938-25.729,21.35-40.415,28.011c-6.63,3.007-14.19,6.438-21.05,8.683c-7.261,2.378-16.513,1.19-19.117,10.169
				c-1.85,6.375,1.858,13.654,7.932,16.162c10.289,4.248,20.46-2.415,28.742-7.89C128.49,149.06,128.865,148.82,129.244,148.587z"/>
			<path fill="#832C04" d="M197.903,85.647c-0.044,0.549-0.126,1.121-0.242,1.712c-1.999,9.873-8.959,16.532-15.602,22.35
				c-10.393,9.102-21.271,17.552-33.019,24.091c-6.579,3.662-14.104,5.875-20.54,9.824c-0.38,0.233-0.758,0.472-1.129,0.718
				c-7.62,5.038-16.839,11.073-26.278,8.698c-0.402-0.725-0.889-1.408-1.218-2.174c-0.482-1.116-0.729-2.296-0.986-3.479
				c-0.106-0.49-0.805-0.283-0.815,0.156c-0.034,1.496,0.415,3.483,1.339,4.985c-0.261-0.094-0.522-0.189-0.783-0.298
				c-0.489-0.202-0.962-0.438-1.419-0.698c-0.055-0.441-0.122-0.88-0.157-1.322c-0.086-1.072,0.054-2.138-0.043-3.209
				c-0.04-0.442-0.632-0.704-0.939-0.327c-0.684,0.835-1.026,2.108-0.974,3.351c-1.872-1.631-3.305-3.775-4.118-6.124
				c-0.235,5.554,3.219,11.156,8.395,13.293c10.289,4.248,20.459-2.415,28.742-7.89c0.373-0.245,0.748-0.484,1.127-0.718
				c6.438-3.95,13.961-6.162,20.541-9.824c11.749-6.539,22.627-14.988,33.02-24.091c6.643-5.817,13.603-12.477,15.599-22.35
				C198.941,89.672,198.695,87.429,197.903,85.647z"/>
			<path fill="#EB850C" d="M118.23,143.654c3.994-3.406,8.705-5.765,13.26-8.173c19.409-10.262,37.844-22.951,54.896-37.786
				c2.071-1.801,4.263-3.702,6.85-4.01c6.13-0.732,6.148,6.66,5.049,11.501c-1.038,4.561-3.999,8.106-6.941,11.314
				c-15.73,17.153-34.131,31.003-54.134,40.486c-5.779,2.739-12.853,6.942-19.337,5.521c-6.625-1.454-7.934-9.301-3.52-14.864
				C115.533,146.156,116.838,144.841,118.23,143.654z"/>
			<path fill="#FFBB27" d="M182.047,88.555c-0.132-0.034-0.264-0.063-0.399-0.085c-0.575-0.098-1.257-0.049-1.615,0.412
				c-0.478,0.615-0.051,1.563,0.606,1.98c0.657,0.417,1.465,0.5,2.197,0.761c1.11,0.396,2.081,1.266,2.427,2.393
				c0.786,2.564-1.597,5.675-4.344,4.548c-0.855-0.35-1.497-1.141-2.132-1.772c-1.656-1.648-3.971-3.706-6.501-2.587
				c-1.898,0.84-2.408,3.021-1.833,4.883c0.39,1.266,1.314,2.258,2.232,3.17c0.761,0.758,1.619,1.404,2.244,2.297
				c0.68,0.83,0.953,1.785,0.82,2.863c-1.474,1.373-2.75,1.441-3.832,0.204c-3.945-3.218-9.685-7.869-14.464-2.979
				c-1.585,1.619-2.31,3.951-1.4,6.086c0.764,1.797,5.12,4.895,1.311,6.514c-1.822,0.775-3.806-1.166-4.832-2.438
				c-1.46-1.81-3.038-4.359-5.803-3.74c-2.369,0.531-2.908,3.064-2.246,5.115c0.352,1.092,0.993,1.931,1.704,2.814
				c0.52,0.65,1.34,1.342,1.664,2.126c1.017,2.456-0.273,3.921-2.437,4.114c-4.319,0.385-6.313-5.034-9.996-6.328
				c-1.619-0.568-3.476-0.314-4.447,1.245c-1.248,2.006,0.002,4.545,1.343,6.144c0.988,1.179,2.188,1.535,2.37,3.156
				c0.154,1.355-0.397,2.84-1.339,3.81c-0.265,0.272-0.563,0.516-0.907,0.672c-0.564,0.257-1.207,0.265-1.826,0.24
				c-3.942-0.163-5.56-1.827-8.133-4.417c-1.566-1.574-4.505-3.167-6.468-1.295c-1.934,1.844-0.846,4.554,0.468,6.333
				c0.535,0.725,1.215,1.357,1.692,2.124c1.583,2.536-0.402,4.131-2.764,2.503c-1.481-1.021-2.479-2.642-3.963-3.699
				c-2.49-1.775-5.871-2.426-8.885-2.483c-3.054-0.059-4.684,3.536-3.646,6.168c0.237,0.603,0.627,1.186,1.22,1.445
				c0.578,0.255,1.25,0.161,1.859-0.007c0.372-0.102,0.76-0.245,0.996-0.55c0.479-0.617,0.116-1.5,0.143-2.28
				c0.025-0.75,0.466-1.475,1.121-1.841c1.296-0.727,3.021,0.062,4.159,0.731c2.41,1.418,3.36,3.556,5.288,5.407
				c1.036,0.996,2.421,1.715,3.856,1.639c0.488-0.024,0.986-0.149,1.373-0.45c0.854-0.664,2.144-2.623,2.318-3.729
				c0.25-1.578-0.543-3.238-1.518-4.431c-0.509-0.622-1.111-1.163-1.596-1.806c-0.352-0.465-1.19-1.486-1.12-2.131
				c0.28-2.542,1.826-1.705,2.802-1.245c1.532,0.722,2.539,2.612,3.552,3.895c1.689,2.135,3.683,3.911,6.583,3.803
				c2.662-0.099,5.547-1.757,6.88-4.088c2.513-4.393-3.132-6.762-3.741-10.551c-0.276-1.717,1.839-2.02,3.104-1.6
				c1.548,0.514,2.629,2.358,3.845,3.361c2.115,1.744,4.774,2.839,7.45,1.691c2.143-0.919,3.319-2.998,2.688-5.281
				c-0.638-2.302-3.214-3.494-3.747-5.822c-0.291-1.271,0.196-3.026,1.789-2.512c1.32,0.428,2.263,2.708,3.131,3.676
				c1.743,1.944,4.645,3.448,7.323,2.925c2.422-0.476,3.343-2.695,2.53-4.92c-0.505-1.385-1.652-2.33-2.489-3.497
				c-1.915-2.658-0.043-5.921,3.116-6.336c4.627-0.609,6.843,3.934,10.442,5.656c2.062,0.987,4.479,0.354,5.373-1.871
				c1.867-4.664-4.697-7.552-5.281-11.92c-0.02-0.129-0.032-0.272,0.04-0.38c0.061-0.091,0.17-0.135,0.273-0.167
				c2.135-0.651,3.663,1.111,5.018,2.373c1.153,1.076,2.427,2.016,4.059,2.08c2.622,0.104,4.828-2.417,5.143-4.883
				C187.266,92.885,184.955,89.314,182.047,88.555z"/>
			<path fill="#FFEECB" d="M174.031,94.571c-0.456-0.672-1.717-0.322-2.235,0.103c-0.613,0.5-0.814,1.364-0.566,2.095
				c0.045,0.132,0.262,0.097,0.246-0.047c-0.069-0.632,0.141-1.276,0.676-1.653c0.273-0.192,0.597-0.297,0.93-0.276
				c0.271,0.017,0.516,0.139,0.786,0.102C174.021,94.874,174.125,94.71,174.031,94.571z"/>
			<path fill="#FFEECB" d="M175.927,94.6c-0.516,0.029-0.654,0.648-0.321,0.959c0.02,0.027,0.041,0.052,0.054,0.082
				c0.136,0.238,0.544,0.215,0.647-0.036c0.013-0.032,0.031-0.059,0.048-0.088C176.649,95.17,176.442,94.57,175.927,94.6z"/>
			<path fill="#FFEECB" d="M176.892,106.916c-0.06-0.087-0.183-0.139-0.283-0.098c-0.327,0.131-0.361,0.334-0.531,0.627
				c-0.227,0.396-0.55,0.717-0.942,0.953c-0.817,0.488-1.745,0.492-2.647,0.282c-0.195-0.046-0.333,0.218-0.176,0.348
				c0.852,0.714,2.027,0.659,2.992,0.2C175.955,108.918,177.477,107.764,176.892,106.916z"/>
			<path fill="#FFEECB" d="M176.917,105.392c-0.39,0.022-0.358,0.628,0.034,0.606C177.341,105.976,177.307,105.369,176.917,105.392z
				"/>
			<path fill="#FFEECB" d="M183.465,89.569c-0.606-0.357-1.468-0.789-2.188-0.679c-0.079,0.013-0.136,0.118-0.063,0.178
				c0.513,0.415,1.211,0.615,1.776,0.96c0.34,0.206,0.663,0.431,0.965,0.686c0.239,0.2,0.409,0.379,0.729,0.413
				c0.098,0.01,0.208-0.053,0.195-0.167C184.808,90.31,183.978,89.873,183.465,89.569z"/>
			<path fill="#FFEECB" d="M160.941,115.219c-0.077-0.326-0.581-0.271-0.64,0.036c-0.198,1.027-0.348,1.933-1.361,2.491
				c-0.929,0.513-1.986,0.307-2.894-0.146c-0.16-0.079-0.284,0.126-0.168,0.246C157.732,119.782,161.576,117.93,160.941,115.219z"/>
			<path fill="#FFEECB" d="M148.439,120.229c-0.195-0.126-0.469,0.119-0.381,0.327c0.337,0.792,0.713,1.385,0.571,2.293
				c-0.142,0.893-0.683,1.577-1.395,2.099c-0.203,0.148-0.054,0.481,0.196,0.402C149.278,124.765,150.241,121.403,148.439,120.229z"
				/>
			<path fill="#FFEECB" d="M147.826,111.293c-0.361-0.393-1.221-0.048-1.614,0.145c-0.271,0.133-0.52,0.307-0.741,0.511
				c-0.299,0.273-0.347,0.507-0.531,0.846c-0.043,0.081,0.075,0.166,0.135,0.092c0.315-0.405,0.954-0.792,1.415-0.986
				c0.416-0.175,1.032-0.101,1.349-0.423C147.89,111.424,147.874,111.343,147.826,111.293z"/>
			<path fill="#FFEECB" d="M135.966,131.183c-0.09-0.322-0.518-0.235-0.601,0.034c-0.377,1.205-0.629,2.074-1.743,2.839
				c-0.936,0.645-2.048,0.882-3.024,1.436c-0.134,0.074-0.049,0.276,0.09,0.271c1.39-0.058,2.963-0.656,4-1.591
				C135.471,133.467,136.272,132.279,135.966,131.183z"/>
			<path fill="#FFEECB" d="M136.178,130.054c0.005,0.031,0.01,0.062,0.015,0.094c0.056,0.375,0.573,0.348,0.587-0.033
				c0.002-0.031,0.002-0.063,0.004-0.095C136.797,129.628,136.118,129.666,136.178,130.054z"/>
			<path fill="#FFEECB" d="M117.77,128.255c-0.653-0.001-1.246,0.798-1.524,1.327c-0.329,0.626-0.479,1.43-0.312,2.12
				c0.028,0.116,0.227,0.107,0.239-0.013c0.072-0.681,0.186-1.271,0.551-1.864c0.178-0.289,0.381-0.549,0.634-0.776
				c0.216-0.192,0.42-0.313,0.562-0.565C117.98,128.373,117.883,128.255,117.77,128.255z"/>
			<path fill="#FFEECB" d="M119.197,140.414c-0.312,0.187-0.52,0.485-0.838,0.665c-0.6,0.341-1.334,0.328-1.971,0.13
				c-1.055-0.328-1.859-1.151-2.679-1.854c-0.135-0.116-0.366,0.062-0.245,0.213c0.914,1.137,2.08,2.322,3.63,2.397
				c0.91,0.046,2.319-0.331,2.385-1.41C119.488,140.408,119.304,140.351,119.197,140.414z"/>
			<path fill="#832C04" d="M103.135,148.353c-1.058-0.913-2.697-1.337-3.973-1.869c-0.308-0.129-0.676,0.304-0.357,0.522
				c1.173,0.808,2.68,1.834,4.155,1.845C103.211,148.853,103.314,148.508,103.135,148.353z"/>
			<path fill="#832C04" d="M99.531,141.867c-0.536,0.364-0.819,0.967-1.127,1.521c-0.376,0.678-0.729,1.359-1.033,2.071
				c-0.112,0.259,0.244,0.555,0.435,0.298c0.45-0.608,0.854-1.238,1.242-1.887c0.348-0.581,0.744-1.159,0.794-1.848
				C99.852,141.867,99.645,141.79,99.531,141.867z"/>
			<path fill="#832C04" d="M94.36,141.174c-0.286-0.202-0.567-0.23-0.877-0.062c-0.185,0.1-0.282,0.239-0.305,0.447
				c-0.027,0.242,0.007,0.53,0.224,0.688c1.27,0.926,2.157,2.058,3.165,3.241c0.187,0.218,0.666,0.162,0.609-0.203
				C96.916,143.615,95.708,142.127,94.36,141.174z"/>
			<path fill="#832C04" d="M95.924,145.42c-0.68,0.053-1.385,0.036-2.059-0.068c-0.514-0.08-1.052-0.383-1.526-0.066
				c-0.125,0.083-0.161,0.229-0.126,0.368c0.168,0.657,1.078,0.751,1.647,0.819c0.778,0.094,1.483-0.011,2.214-0.276
				C96.489,146.045,96.383,145.385,95.924,145.42z"/>
			<path fill="#D35A35" d="M189.743,82.77c-0.918,0.17-1.928,1.301-1.119,2.233c0.968,1.117,2.508,1.252,2.964,2.858
				c0.466,1.646-0.864,2.764-1.952,3.74c-0.82,0.736,0.217,1.77,1.05,1.59c2.361-0.508,3.568-3.227,3.458-5.438
				C194.046,85.742,192.15,82.322,189.743,82.77z"/>
			<path fill="#D35A35" d="M167.659,108.965c-1.035,0.451-1.896,1.263-2.852,1.865c-0.921,0.581-1.956,1.124-2.74,1.882
				c-0.466,0.448-0.023,1.306,0.6,1.244c1.097-0.108,2.21-0.667,3.156-1.218c0.996-0.578,2.206-1.232,2.898-2.164
				C169.253,109.857,168.661,108.529,167.659,108.965z"/>
			<path fill="#D35A35" d="M173.745,104.716c-0.563-0.122-1.057,0.173-1.462,0.541c-0.157,0.142-0.324,0.26-0.497,0.382
				c-0.235,0.168-0.33,0.307-0.496,0.535c-0.236,0.328-0.057,0.804,0.383,0.792c0.239-0.007,0.402,0.011,0.636-0.069
				c0.22-0.075,0.431-0.181,0.65-0.236c0.513-0.131,1.088-0.314,1.305-0.852C174.442,105.357,174.257,104.829,173.745,104.716z"/>
			<path fill="#D35A35" d="M178.46,100.979c-0.109,0.063-0.197,0.151-0.282,0.245c-0.017,0.015-0.189,0.178-0.069,0.08
				c-0.085,0.068-0.176,0.15-0.265,0.215c0.013-0.018-0.119,0.054-0.021,0.01c-0.305,0.139-0.531,0.401-0.51,0.756
				c0.016,0.31,0.268,0.652,0.592,0.693c0.411,0.052,0.816,0.029,1.172-0.215c0.402-0.276,0.651-0.647,0.67-1.141
				C179.765,100.947,178.957,100.699,178.46,100.979z"/>
			<path fill="#D35A35" d="M153.715,119.611c-0.531,0.042-0.994,0.274-1.462,0.518c-0.415,0.216-0.877,0.599-0.979,1.068
				c-0.075,0.344,0.155,0.684,0.492,0.763c0.413,0.099,0.88-0.093,1.253-0.27c0.4-0.189,0.829-0.319,1.199-0.571
				C154.876,120.668,154.546,119.547,153.715,119.611z"/>
			<path fill="#D35A35" d="M140.51,127.329c-0.55,0.083-0.998,0.331-1.506,0.544c-0.487,0.202-1.011,0.362-1.47,0.624
				c-0.531,0.305-0.374,1.268,0.253,1.344c1.065,0.13,2.682-0.324,3.354-1.202C141.513,128.153,141.242,127.217,140.51,127.329z"/>
			<path fill="#D35A35" d="M132.885,130.723c-0.355-0.661-1.367-0.174-1.836,0.053c-0.882,0.427-1.963,0.891-2.574,1.683
				c-0.27,0.351-0.054,0.888,0.418,0.867c0.983-0.043,1.922-0.63,2.774-1.088C132.099,132.005,133.253,131.407,132.885,130.723z"/>
			<path fill="#D35A35" d="M110.578,141.014c-0.999,0.187-1.808,0.526-2.737,0.9c-0.956,0.385-1.981,0.475-3.005,0.496
				c-1.283,0.027-1.5,2.148-0.18,2.298c2.174,0.245,5.009,0.368,6.786-1.098C112.377,142.839,112.126,140.726,110.578,141.014z"/>
			<path fill="#D35A35" d="M123.696,136.805c-0.428,0.065-0.805,0.188-1.152,0.449c-0.577,0.433-0.265,1.249,0.424,1.276
				c0.353,0.015,0.703-0.056,1.021-0.21c0.351-0.169,0.596-0.475,0.51-0.885C124.426,137.088,124.084,136.745,123.696,136.805z"/>
			<path fill="#E66C14" d="M145.306,144.027c-0.09-0.369-0.512-0.48-0.83-0.411c-0.322,0.072-0.487,0.458-0.853,0.352
				c-0.426-0.125-0.561-0.688-0.803-0.993c-0.292-0.37-0.982-0.339-1.07,0.201c-0.157,0.971,0.602,1.994,1.543,2.231
				C144.172,145.63,145.572,145.143,145.306,144.027z"/>
			<path fill="#E66C14" d="M157.95,137.564c-0.212,0.092-0.341,0.257-0.531,0.366c-0.099,0.058-0.225,0.083-0.336,0.04
				c-0.257-0.102-0.351-0.513-0.438-0.74c-0.124-0.326-0.611-0.493-0.852-0.174c-0.58,0.771-0.098,1.809,0.72,2.189
				c0.396,0.185,0.872,0.205,1.287,0.076c0.438-0.136,0.977-0.481,1.026-0.975C158.875,137.887,158.474,137.339,157.95,137.564z"/>
			<path fill="#E66C14" d="M169.388,139.748c-0.106-0.229-0.299-0.398-0.569-0.384c-0.235,0.014-0.483,0.202-0.521,0.445
				c-0.031,0.21-0.11,0.542-0.399,0.371c-0.323-0.188-0.327-0.699-0.496-0.992c-0.113-0.201-0.466-0.237-0.607-0.044
				c-0.553,0.757,0.098,1.89,0.896,2.149c0.434,0.139,0.902,0.025,1.254-0.259C169.303,140.744,169.607,140.211,169.388,139.748z"/>
			<path fill="#E66C14" d="M139.438,155.304c-0.163-0.285-0.629-0.246-0.762,0.043c-0.056,0.121-0.112,0.348-0.283,0.361
				c-0.239,0.016-0.395-0.357-0.454-0.531c-0.19-0.555-0.103-1.152-0.471-1.642c-0.237-0.315-0.696-0.149-0.705,0.234
				c-0.025,0.979,0.124,2.415,1.15,2.867C138.71,156.989,139.955,156.217,139.438,155.304z"/>
			<path fill="#E66C14" d="M125.866,156.418c-0.898,0.562-1.265-0.775-1.442-1.415c-0.072-0.266-0.457-0.217-0.518,0.028
				c-0.187,0.783-0.104,1.661,0.574,2.199c0.542,0.432,1.576,0.568,2.027-0.071C126.817,156.721,126.373,156.102,125.866,156.418z"
				/>
			<path fill="#E66C14" d="M171.604,120.51c-0.337,0.093-0.648,0.27-0.984,0.067c-0.239-0.144-0.513-0.619-0.547-0.893
				c-0.038-0.277-0.443-0.416-0.575-0.121c-0.157,0.352-0.258,0.629-0.136,1.016c0.113,0.358,0.374,0.668,0.683,0.874
				c0.601,0.397,1.591,0.438,2.087-0.146C172.459,120.921,172.075,120.378,171.604,120.51z"/>
			<path fill="#E66C14" d="M178.941,127.945c-0.054,0.082-0.088,0.11-0.17,0.125c-0.17,0.029-0.232-0.01-0.358-0.117
				c-0.191-0.164-0.245-0.396-0.32-0.63c-0.038-0.127-0.072-0.26-0.126-0.383c-0.019-0.046-0.119-0.223-0.119-0.208
				c-0.017-0.234-0.327-0.24-0.394-0.031c-0.006,0.017-0.132,0.142-0.157,0.189c-0.044,0.086-0.078,0.194-0.104,0.286
				c-0.066,0.247-0.069,0.529-0.013,0.78c0.101,0.468,0.327,0.908,0.748,1.157c0.724,0.428,1.996,0.177,2.173-0.755
				C180.236,127.635,179.312,127.374,178.941,127.945z"/>
			<path fill="#E66C14" d="M187.263,115.503c-0.133,0.104-0.201,0.21-0.374,0.185c-0.224-0.033-0.406-0.296-0.528-0.463
				c-0.302-0.413-0.516-0.979-0.972-1.246c-0.135-0.079-0.371-0.018-0.428,0.139c-0.282,0.795,0.394,1.871,0.997,2.37
				c0.601,0.497,1.764,0.606,2.141-0.236C188.315,115.765,187.746,115.116,187.263,115.503z"/>
			<path fill="#FFCF81" d="M190.984,104.623c-0.11-0.312-0.245-0.604-0.405-0.894c-0.154-0.274-0.353-0.515-0.506-0.782
				c-0.205-0.355-0.865-0.162-0.793,0.263c0.113,0.633,0.139,1.248,0.365,1.864C189.963,105.923,191.289,105.484,190.984,104.623z"
				/>
			<path fill="#FFCF81" d="M187.407,115.161c-0.195-0.416-0.312-0.824-0.371-1.281c-0.062-0.446,0.01-0.935-0.173-1.353
				c-0.232-0.524-1.031-0.691-1.308-0.096c-0.487,1.043,0.267,2.376,0.918,3.188C186.812,116.045,187.681,115.74,187.407,115.161z"
				/>
			<path fill="#FFCF81" d="M171.802,119.845c-0.125-0.596-0.544-1.099-0.653-1.709c-0.082-0.435-0.72-0.563-0.83-0.064
				c-0.18,0.842-0.057,1.924,0.782,2.379C171.522,120.679,171.887,120.243,171.802,119.845z"/>
			<path fill="#FFCF81" d="M178.287,124.439c-0.364-0.402-1.138,0.099-0.898,0.595c0.408,0.858,0.625,1.775,0.789,2.706
				c0.169,0.956,1.59,0.937,1.546-0.088C179.674,126.406,179.111,125.347,178.287,124.439z"/>
			<path fill="#FFCF81" d="M168.312,137.062c-0.323-0.278-0.823-0.116-0.924,0.3c-0.192,0.804,0.311,1.563,0.676,2.238
				c0.261,0.48,1.097,0.197,1.024-0.34C168.985,138.501,168.938,137.595,168.312,137.062z"/>
			<path fill="#FFCF81" d="M157.578,135.468c-0.307-0.51-1.237-0.24-1.143,0.38c0.113,0.749,0.528,1.372,0.946,1.983
				c0.214,0.311,0.756,0.158,0.718-0.239C158.032,136.865,157.966,136.11,157.578,135.468z"/>
			<path fill="#FFCF81" d="M143.232,141.09c-0.431-0.2-1.064,0.107-0.989,0.645c0.062,0.429,0.244,0.765,0.381,1.168
				c0.127,0.377,0.17,0.75,0.264,1.134c0.137,0.552,0.936,0.543,1.173,0.086C144.556,143.173,144.259,141.564,143.232,141.09z"/>
			<path fill="#FFCF81" d="M137.902,151.503c-0.221-0.097-0.438,0.012-0.505,0.238c-0.167,0.562,0.057,1.022,0.216,1.561
				c0.187,0.633,0.271,1.269,0.378,1.917c0.082,0.498,0.838,0.646,0.945,0.074C139.143,154.203,139.102,152.026,137.902,151.503z"/>
			<path fill="#FFCF81" d="M125.809,155.692c-0.258-0.507-0.291-1.058-0.271-1.617c0.021-0.549-0.866-0.609-0.96-0.075
				c-0.137,0.779,0.06,1.53,0.454,2.207C125.34,156.732,126.072,156.214,125.809,155.692z"/>
		</g>
	</g>
	<g>
		<path opacity="0.1" d="M126.378,130.48c1.777-0.758,3.647-1.723,4.487-3.463c0.924-1.915,0.281-4.313-1.108-5.924
			c-1.388-1.61-3.391-2.56-5.404-3.244c-5.481-1.867-11.365-2.083-17.152-2.282c-14.03-0.483-26.313-2.976-37.556,6.66
			c-1.529,1.311-2.448,3.562-1.607,5.392c0.616,1.338,1.985,2.143,3.303,2.8C87.372,138.403,110.175,137.387,126.378,130.48z"/>
		<path fill="#F94705" d="M140.94,45.649c-0.434,4.135-1.003,8.238-1.674,12.318c-1.168,7.194-2.65,14.309-4.241,21.392
			c-0.105,0.462-0.207,0.924-0.314,1.386c-1.053,4.63-2.148,9.25-3.229,13.875c-0.43,1.839-0.849,3.682-1.279,5.525
			c-0.027,0.13-0.061,0.255-0.087,0.384c-0.884,3.779-1.803,7.544-2.847,11.228c-0.722,2.541-2.62,15.049-4.449,16.135
			c-8.067,4.805-21.3,4.278-29.862,1.815c-3.822-1.1-7.111-2.698-10.507-4.948c-0.578-0.384-1.169-0.781-1.576-1.382
			c-0.563-0.836-0.698-1.94-0.799-2.993c-0.776-8.008-1.433-16.08-2.102-24.161c-0.106-1.293-0.212-2.587-0.323-3.886
			c-0.084-1.04-0.171-2.083-0.264-3.123c-0.171-2.083-0.351-4.172-0.541-6.256c-0.088-1.04-0.185-2.083-0.276-3.123
			c-0.153-1.659-0.31-3.313-0.472-4.967c-0.143-1.47-0.287-2.934-0.439-4.398c-0.572-5.577-1.118-10.229-0.873-15.765
			c0.102-2.296-1.201-6.22-0.138-8.293c1.913-3.72,5.087-0.606,8.303,0.147c2.764,0.652,5.585,0.846,8.4,0.966
			c3.322,0.143,34.436-0.943,45.612-1.558C139.435,45.834,140.931,45.719,140.94,45.649z"/>
		<path fill="#C53E0F" d="M98.402,124.498c-3.822-1.101-7.109-2.699-10.507-4.95c-0.575-0.381-1.167-0.777-1.575-1.38
			c-0.564-0.836-0.698-1.943-0.8-2.995c-1.6-16.516-2.699-33.29-4.415-49.914c-0.576-5.576-1.119-10.227-0.875-15.765
			c0.049-1.123-0.237-2.633-0.417-4.126c-2.042-0.875-3.887-1.443-5.165,1.046c-1.065,2.074,0.237,5.995,0.137,8.29
			c-0.243,5.539,0.3,10.189,0.875,15.766c1.717,16.624,2.815,33.397,4.416,49.914c0.102,1.053,0.236,2.159,0.8,2.994
			c0.408,0.604,1,1.001,1.576,1.382c3.397,2.25,6.685,3.85,10.506,4.949c8.562,2.464,21.795,2.987,29.862-1.814
			c0.545-0.323,1.094-1.661,1.617-3.442C116.437,127.289,105.716,126.604,98.402,124.498z"/>
		<path fill="#C53E0F" d="M140.94,45.514c-0.484,4.005-0.288,9.213-3.984,11.697c-2.79,1.874-6.505,2.32-9.669,2.924
			c-8.726,1.666-17.734,2.341-26.593,1.505c-7.612-0.718-19.668-2.406-24.286-9.17c-0.687-1.007-1.383-2.03-1.773-3.186
			c-1.396-4.134,1.637-5.239,4.725-4.01c3.765,1.5,7.971,1.721,11.99,1.872c3.322,0.124,34.434-0.818,45.614-1.352
			C139.437,45.676,140.931,45.577,140.94,45.514z"/>
		<path fill="#CEB4A3" d="M126.587,58.056c4.388-0.568,14.578-1.936,15.953-6.448c0.332-1.088,0.593-2.189,0.788-3.298
			c0.303-1.726,0.782-2.484-0.975-3.232c-0.808-0.344-1.926-0.237-2.795-0.549c-1.297-0.466-2.471-1.32-3.734-1.871
			c-5.32-2.314-11.292-3.356-17.174-4.139c-10.363-1.379-20.867-2.065-31.379-2.049c-3.03,0.005-6.101,0.641-8.805,1.838
			c-1.219,0.54-2.304,1.431-3.555,1.813c-1.012,0.308-2.349-0.282-2.952,0.886c-0.197,0.383-0.143,0.818-0.117,1.233
			c0.132,2.051-0.542,4.287,0.716,6.132c0.929,1.362,2.893,2.669,4.41,3.526C90.73,59.67,110.624,60.122,126.587,58.056z"/>
		<path fill="#EFD3BD" d="M126.409,53.989c5.616-0.727,11.51-1.984,15.509-5.448c0.74-0.642,1.421-1.382,1.666-2.252
			c0.544-1.939-1.192-3.759-2.999-4.998c-6.161-4.226-14.255-5.793-22.113-6.839c-10.363-1.379-20.866-2.065-31.378-2.049
			c-11.146,0.018-22.009,8.815-10.302,15.428C90.552,55.603,110.445,56.055,126.409,53.989z"/>
		<path fill="#FF6C31" d="M129.353,77.725c-0.514-1.61-2.312-1.474-2.987-0.143c-0.729,1.434-0.598,3.056-0.693,4.684
			c-0.1,1.721-0.209,3.44-0.335,5.159c-0.263,3.575-0.662,7.13-0.992,10.696c-0.315,3.403-0.901,6.75-1.708,10.042
			c-0.445,1.818-0.946,3.617-1.515,5.391c-0.508,1.588-1.139,2.98-1.209,4.69c-0.022,0.572,0.485,0.865,0.856,0.461
			c1.971-2.147,2.716-6.007,3.527-8.903c0.986-3.527,1.782-7.126,2.598-10.709c0.82-3.603,1.333-7.279,1.803-10.961
			c0.216-1.699,0.415-3.4,0.605-5.102C129.506,81.228,129.909,79.466,129.353,77.725z"/>
		<path fill="#FF6C31" d="M132.101,63.633c-0.269-0.375-0.611-0.661-1.028-0.86c-0.088-0.049-0.176-0.099-0.266-0.149
			c-0.212-0.067-0.424-0.136-0.637-0.204c-0.352-0.077-0.694-0.062-1.029,0.044c-0.23,0.021-0.441,0.099-0.632,0.233
			c-0.31,0.131-0.57,0.333-0.781,0.604c-0.271,0.354-0.46,0.756-0.56,1.192c-0.077,0.351-0.062,0.695,0.044,1.029
			c0.047,0.34,0.176,0.65,0.39,0.928c0.064,0.079,0.129,0.157,0.193,0.236c0.27,0.374,0.611,0.661,1.026,0.86
			c0.431,0.201,0.886,0.281,1.36,0.241c0.692-0.093,1.331-0.387,1.79-0.935c0.434-0.519,0.665-1.252,0.604-1.927
			C132.532,64.453,132.374,64.021,132.101,63.633z"/>
		<path fill="#CEB4A3" d="M130.607,43.818c-0.132-0.682-1.215-0.829-1.519-0.199c-1.021,2.121-2.106,3.193-4.492,3.719
			c-1.89,0.417-3.844,0.603-5.769,0.767c-3.76,0.319-7.533,0.314-11.296,0.033c-3.951-0.294-7.842-0.863-11.683-1.839
			c-3.436-0.873-6.497-1.95-8.851-4.733c-0.413-0.489-1.023,0.136-0.813,0.628c1.404,3.283,5.325,4.545,8.485,5.449
			c4.686,1.341,9.552,2.257,14.418,2.574c4.767,0.31,9.553,0.121,14.281-0.547C126.33,49.251,131.381,47.818,130.607,43.818z"/>
		<path fill="#CEB4A3" d="M112.739,40.218c-1.859-1.554-5.635-2.628-7.838-1.269c-0.486,0.299-0.954,0.775-0.917,1.345
			c0.185,2.781,6.786,2.064,8.332,1.521C112.935,41.599,113.332,40.714,112.739,40.218z"/>
		<path fill="#F94705" d="M133.161,18.564c-2.448-1.576-4.71-3.426-7.177-4.981c-1.27-0.802-2.574-1.536-3.969-2.106
			c-0.433-0.178-1.221-0.613-1.684-0.607c-0.158,0.001-1.917,0.559-1.599,0.851c-0.282-0.26-0.709-0.35-1.073-0.228
			c-0.257,0.351-0.384,0.794-0.35,1.229c-0.22-0.164-0.55-0.082-0.747,0.107s-0.295,0.458-0.386,0.716
			c-0.556,1.578-1.132,3.152-1.713,4.717c-1.498,4.044-3.088,8.059-4.581,12.106c-0.268,0.723-3.889,10.861-3.096,10.935
			c0.764,0.071,2.152,0.482,2.879,0.195c0.914-0.362,0.521-0.392,0.955-1.254c0.757-1.504,1.189-3.11,1.696-4.722
			c1.117-3.555,2.272-7.117,3.92-10.468c0.287-0.583,3.764-9.403,3.787-9.391c1.615,0.933,3.232,1.865,4.85,2.798
			c1.947,1.123,4.341,3.141,6.38,3.921c0.797,0.305,1.735-0.093,2.268-0.759c0.532-0.667,0.725-1.542,0.793-2.392
			C133.985,19.071,133.597,18.843,133.161,18.564z"/>
		<path fill="#C53E0F" d="M120.605,14.859c-0.387-0.265-0.238-1.021-0.238-1.412c-0.001-0.521,0.037-0.812-0.329-1.188
			c-0.013-0.013-0.033-0.012-0.046,0c-0.318,0.301-0.329,0.436-0.36,0.87c-0.025,0.358-0.044,0.723-0.03,1.081
			c0.004,0.123,0.017,0.24,0.035,0.354c-0.518-0.43-0.791-1.06-0.979-1.763c-0.039-0.146-0.286-0.164-0.314,0
			c-0.144,0.855,0.313,1.661,0.965,2.209c-0.172-0.011-0.333-0.021-0.456-0.049c-0.71-0.159-1.141-0.511-1.666-0.984
			c-0.087-0.079-0.27-0.033-0.256,0.106c0.072,0.717,0.73,1.143,1.353,1.383c0.5,0.192,1.671,0.624,2.067,0.113
			C120.7,15.66,120.969,15.107,120.605,14.859z"/>
		<path fill="#C53E0F" d="M116.021,14.045c-2.197,3.91-3.327,8.697-4.795,12.927c-0.746,2.155-1.488,4.312-2.226,6.471
			c-0.807,2.364-1.915,4.817-2.332,7.277c-0.07,0.414,0.502,0.736,0.727,0.307c0.998-1.91,1.531-4.125,2.229-6.162
			c0.783-2.286,1.57-4.568,2.366-6.85c0.749-2.154,1.509-4.306,2.265-6.458c0.833-2.37,1.918-4.784,2.362-7.261
			C116.68,13.952,116.214,13.703,116.021,14.045z"/>
		<path fill="#FFFFFF" d="M131.579,18.209c-2.957-1.758-5.757-3.771-8.72-5.517c-0.155-0.092-0.341,0.133-0.197,0.256
			c2.628,2.257,5.589,4.116,8.467,6.032C131.605,19.297,132.075,18.504,131.579,18.209z"/>
		<path fill="#C53E0F" d="M133.978,19.068c-0.587-0.5-1.431,0.228-1.825,0.651c-0.541,0.578-0.949,1.35-0.908,2.156
			c0.013,0.234,0.194,0.358,0.377,0.357c0.091,0.258,0.399,0.489,0.684,0.375c0.737-0.298,1.322-0.797,1.653-1.53
			C134.2,20.544,134.512,19.524,133.978,19.068z"/>
		<path fill="#FFFFFF" d="M140.326,47.402c-1.121,2.111-3.479,2.915-5.601,3.693c-1.967,0.722-3.973,1.329-6.009,1.82
			c-4.255,1.026-8.629,1.555-12.998,1.747c-4.112,0.183-8.236,0.052-12.339-0.288c-4.597-0.38-9.081-1.309-13.642-1.926
			c-0.424-0.057-0.628,0.556-0.183,0.666c4.504,1.119,9.219,1.662,13.825,2.184c4.831,0.549,9.707,0.79,14.566,0.535
			c4.486-0.235,8.955-0.921,13.278-2.14c3.498-0.985,8.422-2.135,10.327-5.574C141.997,47.317,140.753,46.595,140.326,47.402z"/>
		<path fill="#FFFFFF" d="M123.676,39.289c-0.392,0.049-0.712,0.536-0.355,0.857c0.856,0.771,1.677,0.719,2.765,1.014
			c0.946,0.257,3.723,1.243,1.841,3.001c-0.498,0.465-1.717,0.639-2.336,0.821c-2.939,0.864-5.974,1.461-9.024,1.746
			c-2.88,0.269-5.763,0.25-8.646,0.017c-3.224-0.261-6.303-1.066-9.487-1.542c-0.337-0.05-0.627,0.429-0.255,0.607
			c7.125,3.421,16.618,3.194,24.178,1.594c2.131-0.452,7.352-1.009,7.698-3.88C130.425,40.446,126.02,39,123.676,39.289z"/>
		<path fill="#FFD500" d="M135.025,79.359c-0.105,0.462-0.207,0.924-0.314,1.386c-1.053,4.63-2.148,9.25-3.229,13.875
			c-0.43,1.839-0.849,3.682-1.279,5.525c-0.027,0.13-0.061,0.255-0.087,0.384c-2.963,1.138-7.628,1.616-9.755,2.061
			c-9.902,2.067-20.502,1.942-30.152-1.275c-1.677-0.559-12.073-3.104-12.235-5.092c-0.106-1.293-0.212-2.587-0.323-3.886
			c-0.088-1.04-0.176-2.083-0.264-3.123c-0.171-2.083-0.351-4.172-0.541-6.256c-0.088-1.04-0.185-2.083-0.276-3.123
			c-0.153-1.659-0.31-3.313-0.472-4.967c2.014,1.331,4.103,2.536,6.26,3.613c10.549,5.263,24.423,7.503,36.123,5.776
			c4.999-0.74,11.181-1.876,15.835-4.482C134.554,79.642,134.795,79.502,135.025,79.359z"/>
		<path fill="#EFD3BD" d="M134.726,80.736c0.121-0.512,0.25-1.021,0.397-1.52C135.595,79.66,135.266,80.279,134.726,80.736z"/>
		<path fill="#F0BA00" d="M84.077,98.941c-2.384-0.712-4.556-1.418-6.104-2.717c-0.106-1.293-0.212-2.587-0.323-3.886
			c-0.088-1.04-0.176-2.083-0.264-3.123c-0.175-2.088-0.355-4.172-0.541-6.256c-0.088-1.04-0.185-2.083-0.276-3.123
			c-0.153-1.659-0.31-3.313-0.472-4.967c2.014,1.331,4.103,2.536,6.26,3.613C82.959,85.307,83.504,92.135,84.077,98.941z"/>
		<path fill="#FF6C31" d="M129.449,81.858c-0.051,0.389-0.101,0.777-0.148,1.169c-0.188,1.701-0.388,3.406-0.604,5.102
			c-0.472,3.683-0.979,7.36-1.802,10.964c-0.186,0.817-0.369,1.64-0.56,2.462c-0.629,2.763-1.279,5.526-2.037,8.243
			c-0.812,2.896-1.558,6.755-3.53,8.903c-0.37,0.407-0.879,0.11-0.854-0.458c0.069-1.709,0.702-3.104,1.21-4.689
			c0.569-1.774,1.067-3.576,1.517-5.392c0.493-2.033,0.908-4.089,1.223-6.164c0.2-1.284,0.361-2.578,0.481-3.876
			c0.333-3.567,0.73-7.125,0.993-10.701c0.105-1.492,0.207-2.989,0.296-4.486c0.014-0.222,0.028-0.448,0.04-0.67
			c0.095-1.626-0.036-3.248,0.688-4.685c0.681-1.331,2.478-1.465,2.991,0.143C129.787,79.087,129.635,80.464,129.449,81.858z"/>
		<path fill="#FFDD96" d="M129.449,81.858c-0.051,0.389-0.101,0.777-0.148,1.169c-0.188,1.701-0.388,3.406-0.604,5.102
			c-0.472,3.683-0.979,7.36-1.802,10.964c-0.186,0.817-0.369,1.64-0.56,2.462c-0.836,0.167-1.677,0.314-2.473,0.443
			c0.2-1.284,0.361-2.578,0.481-3.876c0.333-3.567,0.73-7.125,0.993-10.701c0.105-1.492,0.207-2.989,0.296-4.486
			C126.918,82.63,128.202,82.28,129.449,81.858z"/>
	</g>
	<g>
		<g>
			<g>
				<path fill="#F0BA00" d="M56.05,161.276c-6.574,3.907-5.55-12.483-5.573-15.111c-0.041-5.419-0.979-10.799-1.921-16.146
					c-1.14-6.481-2.205-12.905-3.038-19.43c-0.011-0.104-0.028-0.21-0.04-0.313c2.54-1.221,5.201-2.198,7.935-2.922
					c0.376-0.104,0.783-0.197,1.159-0.078c0.431,0.141,0.719,0.537,0.995,0.893c1.75,2.261,2.536,2.34,2.432,5.41
					c-0.248,7.317,1.028,14.512,1.089,21.807c0.038,4.644,0.125,9.307-0.247,13.933C58.624,151.968,58.658,159.727,56.05,161.276z"
					/>
				<path fill="#FFD500" d="M51.738,116.241c-0.132-0.725-0.266-1.449-0.401-2.176c-0.13-0.697-0.192-1.566,0.407-1.96
					c0.26-0.173,0.588-0.204,0.901-0.231c2.32-0.2,4.64-0.401,6.96-0.603c-0.175,0.016-0.855,45.268-1.214,48.881
					c-0.113,1.127-2.658,2.595-3.712,2.21c-1.72-0.629-0.821-2.941-0.675-4.371c0.474-4.645,0.793-9.286,0.793-13.959
					C54.8,134.594,53.42,125.478,51.738,116.241z"/>
				<path fill="#FFD500" d="M58.738,111.696c-2.241,0.389-4.481,0.775-6.722,1.164c-0.195,0.034-0.396,0.067-0.59,0.026
					c-0.198-0.041-0.372-0.157-0.538-0.273c-0.972-0.681-1.722-0.962-2.883-1.248c-0.776-0.192-2.018-0.316-2.479-1.066
					c2.409-1.368,5.214-2.201,7.887-2.945c0.376-0.104,0.783-0.197,1.159-0.078c1.762,0.563,3.316,2.686,4.768,3.809
					c0.151,0.117,0.305,0.351,0.151,0.461c-0.039,0.027-0.086,0.036-0.133,0.044C59.151,111.625,58.944,111.661,58.738,111.696z"/>
			</g>
			<g>
				<path fill="#F0BA00" d="M19.107,131.12c-5.379,4.474-6.643-10.688-7.013-13.092c-0.758-4.961-2.316-9.765-3.874-14.536
					c-1.887-5.785-3.698-11.528-5.314-17.395c-0.023-0.094-0.053-0.188-0.076-0.282c2.116-1.464,4.374-2.722,6.73-3.757
					c0.324-0.147,0.676-0.289,1.029-0.229c0.405,0.071,0.717,0.395,1.011,0.682c1.872,1.834,2.587,1.8,2.903,4.628
					c0.752,6.739,2.855,13.16,3.88,19.836c0.653,4.25,1.352,8.513,1.635,12.804C20.177,122.237,21.241,129.345,19.107,131.12z"/>
				<path fill="#FFD500" d="M9.241,90.431c-0.215-0.646-0.432-1.292-0.649-1.938c-0.209-0.623-0.381-1.411,0.104-1.853
					c0.21-0.192,0.5-0.267,0.778-0.334c2.055-0.499,4.11-0.999,6.166-1.498c-0.155,0.037,5.261,41.602,5.419,44.962
					c0.049,1.048-2.039,2.74-3.036,2.53c-1.627-0.342-1.128-2.584-1.188-3.914c-0.193-4.321-0.525-8.618-1.146-12.9
					C14.433,106.836,11.98,98.668,9.241,90.431z"/>
				<path fill="#FFD500" d="M14.917,85.314c-1.958,0.661-3.918,1.321-5.876,1.981c-0.171,0.058-0.346,0.116-0.525,0.105
					c-0.184-0.012-0.355-0.094-0.52-0.178c-0.963-0.491-1.673-0.647-2.753-0.752c-0.722-0.07-1.852-0.014-2.367-0.64
					c1.979-1.581,4.386-2.726,6.686-3.771c0.324-0.147,0.676-0.289,1.029-0.229c1.656,0.277,3.333,2.01,4.786,2.843
					c0.151,0.086,0.32,0.279,0.196,0.401c-0.031,0.03-0.072,0.045-0.113,0.058C15.278,85.192,15.097,85.254,14.917,85.314z"/>
			</g>
			<g>
				<path fill="#F0BA00" d="M21.619,132.722c-6.631,2.229-2.333-12.364-1.81-14.74c1.086-4.9,1.368-9.942,1.64-14.955
					c0.33-6.075,0.717-12.085,1.329-18.139c0.012-0.097,0.018-0.195,0.031-0.291c2.501-0.601,5.061-0.958,7.633-1.071
					c0.354-0.021,0.734-0.024,1.042,0.158c0.353,0.212,0.526,0.626,0.696,1.001c1.083,2.387,1.763,2.613,1.035,5.365
					c-1.734,6.556-2.091,13.302-3.548,19.899c-0.927,4.199-1.814,8.425-3.102,12.529C25.826,124.825,24.25,131.838,21.619,132.722z"
					/>
				<path fill="#FFD500" d="M27.118,91.217c0.033-0.68,0.064-1.36,0.095-2.042c0.029-0.656,0.153-1.452,0.766-1.691
					c0.267-0.103,0.563-0.067,0.846-0.03c2.097,0.277,4.194,0.554,6.291,0.83c-0.158-0.021-10.124,40.693-11.19,43.884
					c-0.333,0.994-2.891,1.819-3.745,1.263c-1.393-0.907-0.119-2.816,0.307-4.079c1.381-4.099,2.624-8.226,3.592-12.443
					C26.034,108.389,26.697,99.887,27.118,91.217z"/>
				<path fill="#FFD500" d="M34.259,88.497c-2.065-0.092-4.13-0.184-6.195-0.276c-0.18-0.008-0.365-0.018-0.528-0.092
					c-0.167-0.077-0.297-0.216-0.419-0.354c-0.721-0.806-1.327-1.208-2.296-1.696c-0.647-0.326-1.722-0.683-1.976-1.453
					c2.417-0.758,5.075-0.957,7.597-1.101c0.354-0.021,0.734-0.024,1.042,0.158c1.444,0.856,2.382,3.078,3.436,4.379
					c0.109,0.135,0.198,0.376,0.039,0.446c-0.04,0.017-0.084,0.016-0.127,0.013C34.64,88.513,34.45,88.504,34.259,88.497z"/>
			</g>
			<g>
				<path fill="#DCAA00" d="M39.361,134.185c-5.779,3.942-5.597-11.27-5.738-13.698c-0.284-5.011-1.378-9.939-2.476-14.839
					c-1.329-5.938-2.586-11.827-3.639-17.82c-0.014-0.096-0.034-0.192-0.048-0.289c2.245-1.256,4.612-2.294,7.057-3.1
					c0.336-0.115,0.7-0.222,1.046-0.131c0.397,0.109,0.677,0.461,0.941,0.775c1.69,2.004,2.406,2.038,2.451,4.884
					c0.109,6.781,1.593,13.371,1.979,20.116c0.246,4.293,0.538,8.601,0.41,12.899C41.27,125.444,41.654,132.619,39.361,134.185z"/>
				<path fill="#F0BA00" d="M38.409,123.314c-5.779,3.942-5.598-11.27-5.738-13.697c-0.284-5.012-1.378-9.94-2.476-14.839
					c-1.33-5.938-2.586-11.827-3.639-17.821c-0.014-0.096-0.035-0.192-0.049-0.288c2.245-1.256,4.612-2.294,7.057-3.101
					c0.335-0.115,0.7-0.222,1.046-0.13c0.397,0.109,0.676,0.46,0.941,0.775c1.69,2.004,2.405,2.039,2.451,4.883
					c0.108,6.781,1.593,13.372,1.979,20.117c0.246,4.293,0.538,8.602,0.411,12.9C40.317,114.574,40.701,121.75,38.409,123.314z"/>
				<path fill="#FFD500" d="M32.451,81.874c-0.152-0.663-0.307-1.327-0.462-1.991c-0.149-0.64-0.245-1.44,0.279-1.834
					c0.228-0.172,0.523-0.218,0.807-0.259c2.093-0.302,4.187-0.604,6.279-0.906c-0.157,0.022,1.287,41.914,1.125,45.274
					c-0.05,1.048-2.291,2.534-3.263,2.229c-1.587-0.494-0.877-2.679-0.811-4.009c0.218-4.319,0.296-8.629,0.084-12.951
					C36.061,98.697,34.396,90.333,32.451,81.874z"/>
				<path fill="#FFD500" d="M38.587,77.318c-2.013,0.472-4.025,0.943-6.039,1.415c-0.175,0.041-0.355,0.082-0.533,0.054
					c-0.182-0.029-0.344-0.127-0.5-0.226c-0.912-0.581-1.605-0.803-2.67-1.011c-0.711-0.138-1.842-0.19-2.295-0.862
					c2.121-1.385,4.625-2.296,7.014-3.119c0.335-0.115,0.7-0.222,1.046-0.13c1.622,0.434,3.127,2.317,4.494,3.284
					c0.143,0.101,0.292,0.309,0.158,0.418c-0.033,0.028-0.077,0.038-0.118,0.047C38.958,77.232,38.772,77.275,38.587,77.318z"/>
			</g>
			<g>
				<path fill="#F0BA00" d="M48.274,122.781c-6.349,2.94-3.67-12.035-3.41-14.454c0.544-4.989,0.273-10.03-0.004-15.044
					c-0.335-6.075-0.607-12.09-0.661-18.175c0.001-0.098-0.002-0.196-0.001-0.292c2.422-0.87,4.927-1.506,7.471-1.899
					c0.351-0.059,0.728-0.104,1.053,0.043c0.374,0.172,0.591,0.565,0.802,0.918c1.337,2.255,2.038,2.405,1.615,5.219
					c-1.007,6.706-0.626,13.451-1.353,20.168c-0.463,4.275-0.883,8.573-1.715,12.792C51.593,114.474,50.793,121.614,48.274,122.781z
					"/>
				<path fill="#FFD500" d="M49.206,80.925c-0.042-0.679-0.084-1.359-0.129-2.04c-0.042-0.655-0.005-1.461,0.577-1.764
					c0.253-0.131,0.553-0.128,0.838-0.122c2.114,0.045,4.229,0.091,6.343,0.138c-0.158-0.003-5.617,41.555-6.328,44.843
					c-0.222,1.025-2.675,2.124-3.584,1.664c-1.484-0.749-0.426-2.787-0.141-4.088c0.924-4.226,1.709-8.463,2.21-12.762
					C50.004,98.112,49.735,89.589,49.206,80.925z"/>
				<path fill="#FFD500" d="M56.007,77.44c-2.063,0.134-4.126,0.268-6.189,0.402c-0.179,0.012-0.364,0.022-0.535-0.034
					c-0.174-0.059-0.319-0.183-0.457-0.306c-0.804-0.722-1.45-1.055-2.466-1.435c-0.679-0.253-1.786-0.49-2.124-1.228
					c2.321-1.018,4.94-1.506,7.432-1.924c0.351-0.059,0.728-0.104,1.053,0.043c1.528,0.693,2.704,2.799,3.894,3.978
					c0.123,0.122,0.238,0.352,0.087,0.438c-0.038,0.021-0.082,0.024-0.124,0.027C56.387,77.415,56.197,77.428,56.007,77.44z"/>
			</g>
			<g>
				<path fill="#DCAA00" d="M29.509,143.794c-4.855,5.036-7.774-9.895-8.407-12.242c-1.297-4.849-3.372-9.451-5.444-14.024
					c-2.51-5.543-4.939-11.053-7.189-16.707c-0.035-0.09-0.074-0.181-0.108-0.272c1.943-1.687,4.049-3.185,6.279-4.472
					c0.305-0.182,0.64-0.36,0.997-0.341c0.411,0.026,0.756,0.313,1.08,0.567c2.061,1.618,2.77,1.506,3.394,4.282
					c1.486,6.617,4.281,12.767,6.032,19.292c1.115,4.152,2.278,8.312,3.029,12.546C29.599,134.848,31.436,141.796,29.509,143.794z"
					/>
				<path fill="#F0BA00" d="M30.097,142.03c-4.855,5.036-7.775-9.894-8.406-12.242c-1.298-4.849-3.374-9.451-5.445-14.024
					c-2.51-5.543-4.939-11.053-7.19-16.706c-0.033-0.091-0.073-0.182-0.107-0.273c1.943-1.687,4.049-3.185,6.279-4.472
					c0.305-0.182,0.64-0.361,0.997-0.34c0.41,0.025,0.756,0.312,1.08,0.566c2.061,1.618,2.77,1.506,3.393,4.282
					c1.487,6.617,4.282,12.767,6.033,19.292c1.115,4.152,2.278,8.312,3.029,12.546C30.186,133.084,32.023,140.032,30.097,142.03z"/>
				<path fill="#FFD500" d="M15.827,102.67c-0.284-0.618-0.57-1.236-0.858-1.855c-0.277-0.596-0.534-1.359-0.101-1.853
					c0.188-0.214,0.468-0.32,0.736-0.417c1.988-0.722,3.977-1.444,5.964-2.166c-0.149,0.054,9.793,40.774,10.319,44.097
					c0.164,1.036-1.726,2.947-2.741,2.848c-1.654-0.161-1.404-2.444-1.609-3.76c-0.667-4.274-1.467-8.509-2.554-12.698
					C22.787,118.405,19.454,110.557,15.827,102.67z"/>
				<path fill="#FFD500" d="M20.907,96.961c-1.875,0.872-3.75,1.743-5.624,2.614c-0.163,0.076-0.332,0.152-0.511,0.162
					c-0.185,0.009-0.364-0.055-0.536-0.12c-1.011-0.383-1.735-0.459-2.819-0.446c-0.725,0.009-1.843,0.188-2.423-0.376
					c1.794-1.788,4.061-3.191,6.232-4.482c0.305-0.182,0.64-0.361,0.997-0.34c1.676,0.093,3.534,1.631,5.068,2.3
					c0.16,0.069,0.349,0.242,0.24,0.377c-0.027,0.033-0.067,0.052-0.106,0.07C21.253,96.801,21.08,96.881,20.907,96.961z"/>
			</g>
			<g>
				<path fill="#F0BA00" d="M61.118,131.001c-7.081,2.624-2.929-13.261-2.444-15.842c1.009-5.322,1.146-10.77,1.271-16.188
					c0.154-6.564,0.371-13.061,0.83-19.612c0.009-0.104,0.013-0.21,0.023-0.315c2.679-0.731,5.428-1.202,8.199-1.409
					c0.382-0.034,0.792-0.051,1.13,0.136c0.387,0.217,0.588,0.658,0.784,1.057c1.248,2.539,1.989,2.761,1.296,5.752
					c-1.652,7.131-1.814,14.42-3.166,21.586c-0.86,4.561-1.676,9.149-2.928,13.619C65.393,122.343,63.926,129.959,61.118,131.001z"
					/>
				<path fill="#FFD500" d="M65.668,86.043c0.013-0.734,0.024-1.469,0.035-2.206c0.01-0.709,0.117-1.572,0.77-1.85
					c0.284-0.12,0.605-0.091,0.912-0.06c2.271,0.229,4.542,0.457,6.814,0.686c-0.171-0.018-9.567,44.237-10.611,47.715
					c-0.326,1.084-3.058,2.058-3.998,1.486c-1.533-0.932-0.222-3.035,0.195-4.411c1.354-4.468,2.557-8.961,3.461-13.543
					C65.07,104.604,65.503,95.41,65.668,86.043z"/>
				<path fill="#FFD500" d="M73.282,82.87c-2.231-0.031-4.462-0.061-6.693-0.091c-0.194-0.003-0.393-0.006-0.572-0.082
					c-0.183-0.078-0.328-0.223-0.465-0.368c-0.803-0.845-1.471-1.259-2.532-1.753c-0.709-0.331-1.881-0.68-2.18-1.501
					c2.583-0.899,5.443-1.202,8.159-1.44c0.382-0.034,0.792-0.051,1.13,0.136c1.585,0.875,2.672,3.241,3.852,4.609
					c0.122,0.143,0.226,0.399,0.056,0.479c-0.042,0.02-0.09,0.02-0.137,0.019C73.693,82.875,73.488,82.873,73.282,82.87z"/>
			</g>
			<g>
				<path fill="#DCAA00" d="M53.591,150.461c-7.557,3.581-4.958-14.016-4.746-16.855c0.444-5.854-0.099-11.754-0.649-17.62
					c-0.667-7.106-1.254-14.146-1.58-21.272c-0.002-0.113-0.012-0.229-0.014-0.342c2.894-1.072,5.898-1.871,8.96-2.387
					c0.421-0.077,0.875-0.139,1.275,0.026c0.46,0.194,0.741,0.649,1.01,1.06c1.716,2.611,2.569,2.773,2.179,6.077
					c-0.931,7.876-0.181,15.768-0.772,23.651c-0.377,5.018-0.701,10.061-1.526,15.021C57.251,140.658,56.589,149.039,53.591,150.461
					z"/>
				<path fill="#F0BA00" d="M54.767,149.285c-7.557,3.582-4.958-14.017-4.746-16.854c0.444-5.855-0.099-11.755-0.65-17.62
					c-0.667-7.108-1.253-14.147-1.579-21.273c-0.002-0.113-0.012-0.229-0.014-0.342c2.893-1.073,5.897-1.871,8.96-2.388
					c0.421-0.076,0.875-0.138,1.276,0.028c0.46,0.194,0.741,0.649,1.009,1.059c1.715,2.611,2.57,2.772,2.179,6.078
					c-0.932,7.876-0.181,15.767-0.773,23.65c-0.376,5.018-0.7,10.061-1.525,15.021C58.427,139.482,57.765,147.863,54.767,149.285z"
					/>
				<path fill="#FFD500" d="M54.1,100.242c-0.08-0.794-0.16-1.591-0.243-2.387c-0.08-0.767-0.07-1.71,0.622-2.079
					c0.301-0.161,0.663-0.163,1.009-0.162c2.561,0.008,5.122,0.016,7.683,0.023c-0.192-0.001-5.017,48.794-5.738,52.661
					c-0.224,1.205-3.146,2.545-4.267,2.027c-1.828-0.846-0.634-3.255-0.345-4.785c0.938-4.97,1.706-9.95,2.128-14.995
					C55.802,120.354,55.111,110.377,54.1,100.242z"/>
				<path fill="#FFD500" d="M62.182,96.011c-2.491,0.203-4.982,0.405-7.473,0.607c-0.217,0.018-0.44,0.035-0.649-0.028
					c-0.214-0.064-0.394-0.207-0.565-0.348c-1.004-0.828-1.801-1.205-3.047-1.627c-0.833-0.281-2.184-0.534-2.622-1.391
					c2.764-1.244,5.915-1.872,8.912-2.417c0.421-0.076,0.875-0.138,1.276,0.028c1.879,0.779,3.393,3.22,4.883,4.574
					c0.155,0.14,0.302,0.407,0.123,0.512c-0.044,0.026-0.097,0.031-0.148,0.035C62.641,95.974,62.412,95.993,62.182,96.011z"/>
			</g>
			<g>
				<path fill="#F0BA00" d="M71.389,134.672c-6.632,2.228-2.333-12.365-1.81-14.741c1.085-4.899,1.368-9.94,1.64-14.954
					c0.33-6.075,0.717-12.084,1.329-18.139c0.012-0.096,0.018-0.194,0.03-0.291c2.502-0.6,5.062-0.958,7.633-1.07
					c0.355-0.021,0.735-0.024,1.043,0.157c0.352,0.213,0.526,0.627,0.695,1.001c1.083,2.387,1.763,2.614,1.035,5.364
					c-1.733,6.557-2.091,13.302-3.548,19.9c-0.926,4.198-1.814,8.425-3.101,12.528C75.595,126.776,74.02,133.787,71.389,134.672z"/>
				<path fill="#FFD500" d="M76.888,93.168c0.033-0.681,0.064-1.36,0.095-2.042c0.029-0.656,0.153-1.453,0.766-1.691
					c0.266-0.103,0.563-0.067,0.846-0.03c2.097,0.277,4.193,0.553,6.291,0.83c-0.158-0.021-10.124,40.694-11.19,43.883
					c-0.333,0.996-2.891,1.818-3.746,1.263c-1.393-0.906-0.118-2.816,0.308-4.078c1.381-4.1,2.624-8.227,3.591-12.444
					C75.804,110.339,76.467,101.837,76.888,93.168z"/>
				<path fill="#FFD500" d="M84.03,90.447c-2.066-0.093-4.131-0.185-6.196-0.276c-0.18-0.009-0.364-0.018-0.528-0.093
					c-0.167-0.077-0.297-0.216-0.42-0.354c-0.72-0.805-1.327-1.207-2.295-1.696c-0.647-0.326-1.722-0.682-1.976-1.452
					c2.417-0.759,5.075-0.957,7.597-1.101c0.355-0.021,0.735-0.024,1.043,0.157c1.443,0.857,2.382,3.079,3.435,4.38
					c0.109,0.135,0.197,0.376,0.039,0.445c-0.039,0.017-0.084,0.017-0.127,0.014C84.41,90.463,84.22,90.455,84.03,90.447z"/>
			</g>
			<g>
				<path fill="#DCAA00" d="M63.217,155.806c-6.101,4.45-6.421-11.967-6.655-14.581c-0.476-5.396-1.825-10.676-3.175-15.924
					c-1.636-6.36-3.192-12.671-4.53-19.1c-0.019-0.104-0.044-0.207-0.063-0.311c2.38-1.431,4.897-2.632,7.507-3.584
					c0.358-0.137,0.748-0.264,1.124-0.176c0.433,0.104,0.746,0.473,1.043,0.803c1.89,2.105,2.664,2.117,2.81,5.186
					c0.348,7.312,2.171,14.37,2.818,21.634c0.411,4.621,0.873,9.26,0.881,13.902C64.979,146.313,65.637,154.04,63.217,155.806z"/>
				<path fill="#F0BA00" d="M63.805,154.043c-6.101,4.448-6.421-11.967-6.656-14.582c-0.476-5.396-1.825-10.676-3.175-15.924
					c-1.635-6.36-3.191-12.671-4.53-19.102c-0.019-0.103-0.045-0.205-0.063-0.309c2.379-1.431,4.897-2.631,7.508-3.583
					c0.359-0.137,0.748-0.264,1.124-0.177c0.433,0.104,0.746,0.474,1.043,0.804c1.89,2.104,2.664,2.117,2.809,5.185
					c0.347,7.312,2.173,14.37,2.819,21.634c0.411,4.622,0.873,9.261,0.882,13.902C65.566,144.55,66.226,152.276,63.805,154.043z"/>
				<path fill="#FFD500" d="M55.97,109.54c-0.187-0.71-0.375-1.421-0.566-2.134c-0.183-0.684-0.314-1.543,0.238-1.988
					c0.24-0.193,0.558-0.252,0.86-0.307c2.249-0.396,4.497-0.793,6.744-1.189c-0.168,0.029,2.812,45.171,2.752,48.802
					c-0.019,1.133-2.383,2.812-3.444,2.517c-1.729-0.48-1.038-2.859-1.01-4.297c0.088-4.669,0.026-9.319-0.35-13.975
					C60.437,127.565,58.356,118.6,55.97,109.54z"/>
				<path fill="#FFD500" d="M62.435,104.418c-2.156,0.577-4.311,1.152-6.466,1.73c-0.187,0.05-0.38,0.101-0.573,0.076
					c-0.198-0.023-0.376-0.125-0.548-0.227c-1.003-0.596-1.757-0.812-2.914-0.999c-0.772-0.126-1.995-0.144-2.505-0.853
					c2.241-1.566,4.911-2.635,7.46-3.603c0.359-0.137,0.748-0.264,1.124-0.177c1.765,0.412,3.454,2.394,4.96,3.391
					c0.156,0.102,0.326,0.322,0.184,0.445c-0.034,0.029-0.081,0.043-0.125,0.055C62.833,104.311,62.633,104.363,62.435,104.418z"/>
			</g>
			<g>
				<path fill="#F0BA00" d="M44.293,149.521c-6.574,3.905-5.55-12.484-5.573-15.111c-0.041-5.42-0.979-10.799-1.921-16.147
					c-1.141-6.48-2.206-12.904-3.039-19.43c-0.01-0.104-0.027-0.209-0.039-0.314c2.54-1.22,5.201-2.197,7.935-2.921
					c0.376-0.104,0.783-0.198,1.159-0.078c0.431,0.141,0.719,0.536,0.994,0.892c1.751,2.262,2.536,2.341,2.432,5.411
					c-0.248,7.317,1.028,14.512,1.088,21.808c0.039,4.643,0.125,9.306-0.246,13.933C46.867,140.211,46.901,147.971,44.293,149.521z"
					/>
				<path fill="#FFD500" d="M39.981,104.484c-0.131-0.725-0.266-1.449-0.401-2.175c-0.13-0.698-0.192-1.566,0.406-1.962
					c0.26-0.171,0.589-0.203,0.901-0.23c2.32-0.201,4.64-0.402,6.961-0.602c-0.175,0.015-0.855,45.267-1.215,48.88
					c-0.112,1.127-2.657,2.596-3.711,2.21c-1.72-0.629-0.821-2.94-0.674-4.371c0.473-4.645,0.793-9.286,0.793-13.958
					C43.044,122.837,41.664,113.722,39.981,104.484z"/>
				<path fill="#FFD500" d="M46.981,99.94c-2.241,0.388-4.482,0.776-6.723,1.164c-0.194,0.034-0.396,0.068-0.589,0.027
					c-0.199-0.042-0.372-0.158-0.538-0.274c-0.972-0.681-1.723-0.961-2.884-1.248c-0.775-0.192-2.017-0.315-2.479-1.067
					c2.41-1.367,5.215-2.2,7.888-2.944c0.376-0.104,0.783-0.198,1.159-0.078c1.761,0.563,3.316,2.685,4.767,3.809
					c0.151,0.117,0.306,0.351,0.151,0.46c-0.038,0.028-0.085,0.036-0.132,0.044C47.395,99.869,47.188,99.904,46.981,99.94z"/>
			</g>
			<g>
				<path fill="#DCAA00" d="M30.689,153.731c-6.574,3.906-5.55-12.483-5.573-15.11c-0.041-5.419-0.979-10.8-1.92-16.146
					c-1.141-6.481-2.206-12.906-3.039-19.432c-0.011-0.104-0.028-0.209-0.039-0.312c2.54-1.221,5.2-2.199,7.935-2.922
					c0.375-0.104,0.783-0.198,1.158-0.078c0.431,0.141,0.719,0.536,0.994,0.891c1.751,2.262,2.536,2.341,2.433,5.411
					c-0.248,7.317,1.028,14.512,1.088,21.808c0.038,4.643,0.125,9.306-0.247,13.933C33.263,144.422,33.296,152.183,30.689,153.731z"
					/>
				<path fill="#F0BA00" d="M32.452,152.556c-6.574,3.906-5.55-12.484-5.573-15.11c-0.041-5.419-0.979-10.799-1.921-16.147
					c-1.141-6.48-2.205-12.905-3.038-19.431c-0.011-0.104-0.028-0.209-0.039-0.312c2.54-1.221,5.2-2.199,7.934-2.922
					c0.376-0.104,0.783-0.198,1.159-0.078c0.431,0.141,0.719,0.536,0.994,0.891c1.751,2.263,2.536,2.341,2.432,5.412
					c-0.248,7.316,1.029,14.511,1.089,21.806c0.038,4.644,0.125,9.307-0.247,13.934C35.026,143.246,35.06,151.007,32.452,152.556z"
					/>
				<path fill="#FFD500" d="M28.14,107.52c-0.131-0.723-0.265-1.449-0.4-2.174c-0.13-0.699-0.193-1.567,0.406-1.962
					c0.26-0.171,0.588-0.202,0.9-0.23c2.32-0.2,4.64-0.4,6.961-0.602c-0.174,0.015-0.855,45.267-1.215,48.88
					c-0.113,1.127-2.657,2.595-3.711,2.21c-1.719-0.629-0.821-2.941-0.675-4.372c0.474-4.643,0.793-9.285,0.794-13.958
					C31.203,125.874,29.823,116.757,28.14,107.52z"/>
				<path fill="#FFD500" d="M35.14,102.977c-2.241,0.388-4.481,0.775-6.722,1.163c-0.195,0.034-0.396,0.067-0.59,0.026
					c-0.199-0.041-0.372-0.157-0.538-0.273c-0.972-0.68-1.722-0.961-2.883-1.248c-0.776-0.191-2.018-0.315-2.479-1.066
					c2.409-1.368,5.214-2.201,7.887-2.945c0.376-0.104,0.783-0.198,1.159-0.078c1.761,0.563,3.316,2.685,4.768,3.808
					c0.15,0.117,0.305,0.352,0.151,0.462c-0.039,0.026-0.086,0.035-0.133,0.043C35.554,102.904,35.347,102.94,35.14,102.977z"/>
			</g>
			<g>
				<path fill="#DCAA00" d="M55.019,158.335c-4.852,5.786-9.11-10.073-9.966-12.555c-1.76-5.122-4.337-9.925-6.91-14.694
					c-3.117-5.78-6.144-11.53-8.989-17.451c-0.043-0.095-0.093-0.189-0.135-0.284c1.966-1.962,4.122-3.732,6.426-5.284
					c0.315-0.218,0.663-0.436,1.048-0.441c0.445-0.003,0.838,0.281,1.205,0.53c2.341,1.588,3.095,1.415,3.974,4.356
					c2.095,7.014,5.563,13.427,7.937,20.321c1.51,4.389,3.072,8.78,4.197,13.283C54.447,148.696,56.943,156.039,55.019,158.335z"/>
				<path fill="#F0BA00" d="M55.753,156.941c-4.852,5.785-9.109-10.072-9.965-12.555c-1.76-5.122-4.337-9.924-6.911-14.694
					c-3.116-5.779-6.144-11.53-8.989-17.45c-0.042-0.095-0.092-0.189-0.135-0.285c1.966-1.961,4.122-3.731,6.426-5.283
					c0.315-0.219,0.663-0.437,1.048-0.441c0.445-0.004,0.838,0.28,1.206,0.529c2.34,1.588,3.094,1.414,3.974,4.357
					c2.094,7.013,5.563,13.427,7.936,20.321c1.51,4.388,3.073,8.78,4.198,13.283C55.182,147.303,57.679,154.646,55.753,156.941z"/>
				<path fill="#FFD500" d="M37.45,115.627c-0.352-0.645-0.707-1.288-1.062-1.934c-0.343-0.621-0.677-1.424-0.247-1.988
					c0.186-0.244,0.48-0.379,0.761-0.504c2.086-0.926,4.173-1.852,6.26-2.777c-0.156,0.07,13.589,43.172,14.403,46.71
					c0.254,1.103-1.638,3.302-2.737,3.271c-1.793-0.051-1.695-2.527-2.015-3.929c-1.036-4.552-2.214-9.053-3.698-13.481
					C46.119,132.051,41.944,123.848,37.45,115.627z"/>
				<path fill="#FFD500" d="M42.494,109.102c-1.954,1.077-3.907,2.155-5.86,3.233c-0.17,0.094-0.345,0.189-0.538,0.213
					c-0.198,0.023-0.396-0.032-0.586-0.089c-1.117-0.338-1.902-0.366-3.068-0.27c-0.78,0.064-1.97,0.341-2.638-0.226
					c1.799-2.059,4.135-3.738,6.375-5.29c0.315-0.219,0.663-0.437,1.048-0.441c1.812-0.025,3.927,1.494,5.63,2.098
					c0.177,0.062,0.393,0.235,0.286,0.389c-0.027,0.038-0.069,0.061-0.109,0.084C42.854,108.902,42.675,109.002,42.494,109.102z"/>
			</g>
			<g>
				<path fill="#F0BA00" d="M60.707,147.313c-6.783,1.714-1.38-12.508-0.676-14.835c1.458-4.803,2.125-9.808,2.78-14.786
					c0.794-6.032,1.64-11.994,2.713-17.983c0.021-0.096,0.035-0.193,0.054-0.289c2.541-0.407,5.119-0.566,7.692-0.483
					c0.355,0.008,0.735,0.032,1.027,0.237c0.336,0.239,0.477,0.665,0.618,1.052c0.897,2.463,1.557,2.741,0.621,5.428
					c-2.23,6.404-3.104,13.103-5.061,19.569c-1.246,4.115-2.454,8.261-4.051,12.254C65.505,139.764,63.398,146.633,60.707,147.313z"
					/>
				<path fill="#FFD500" d="M69.368,106.352c0.085-0.674,0.169-1.352,0.251-2.029c0.08-0.65,0.265-1.436,0.893-1.626
					c0.273-0.083,0.566-0.024,0.846,0.034c2.069,0.438,4.139,0.873,6.208,1.31c-0.156-0.032-13.21,39.799-14.518,42.897
					c-0.407,0.967-3.021,1.593-3.831,0.974c-1.319-1.012,0.098-2.818,0.618-4.045c1.691-3.98,3.247-8,4.535-12.131
					C66.972,123.391,68.284,114.964,69.368,106.352z"/>
				<path fill="#FFD500" d="M76.696,104.186c-2.052-0.249-4.104-0.499-6.157-0.749c-0.178-0.022-0.361-0.045-0.519-0.132
					c-0.161-0.09-0.28-0.238-0.392-0.385c-0.657-0.859-1.23-1.307-2.159-1.867c-0.621-0.375-1.666-0.812-1.859-1.599
					c2.468-0.571,5.133-0.566,7.659-0.517c0.355,0.008,0.735,0.032,1.027,0.237c1.374,0.965,2.14,3.252,3.09,4.63
					c0.099,0.143,0.169,0.391,0.005,0.447c-0.041,0.014-0.085,0.008-0.127,0.004C77.075,104.232,76.886,104.209,76.696,104.186z"/>
			</g>
			<path fill="#DCAA00" d="M11.968,85.693c-1.386,0.054-2.165,1.005-3.373,1.476c-1.087,0.424-2.742-0.775-3.808-1.15
				c-0.215-0.076-0.342,0.25-0.153,0.361c1.061,0.618,2.617,1.029,3.49,1.898c0.15,0.148,0.406,0.188,0.589,0.075
				c1.11-0.685,2.392-1.225,3.438-1.983C12.419,86.174,12.358,85.677,11.968,85.693z"/>
			<path fill="#DCAA00" d="M69.686,81.677c-1.155-0.271-2.252,0.285-3.414,0.295c-1.411,0.013-2.489-1.246-3.54-2.067
				c-0.253-0.197-0.574,0.106-0.357,0.357c0.776,0.901,2.113,2.218,3.25,2.644c1.057,0.396,3.223-0.046,4.144-0.584
				C70.025,82.175,69.986,81.747,69.686,81.677z"/>
			<path fill="#DCAA00" d="M81.855,89.433c-1.411-0.128-2.718,0.654-4.182,0.395c-1.252-0.224-1.848-1.059-2.786-1.757
				c-0.121-0.09-0.267,0.035-0.276,0.158c-0.097,1.357,1.431,2.277,2.573,2.608c1.505,0.436,3.737,0.29,4.912-0.824
				C82.326,89.794,82.132,89.458,81.855,89.433z"/>
			<path fill="#DCAA00" d="M54.131,77.384c-1.565-0.173-2.957,0.196-4.49,0.322c-1.469,0.12-2.693-1.461-3.874-2.26
				c-0.222-0.15-0.473,0.185-0.284,0.368c0.64,0.616,1.334,1.173,2.016,1.745c0.351,0.294,0.857,0.949,1.336,1.049
				c0.66,0.137,1.686-0.307,2.358-0.382c0.978-0.107,1.955-0.083,2.938-0.107C54.614,78.107,54.592,77.435,54.131,77.384z"/>
			<path fill="#DCAA00" d="M35.582,77.598c-1.021-0.151-1.961,0.241-2.841,0.755c-1.686,0.985-3.09-0.359-4.546-1.226
				c-0.263-0.156-0.552,0.21-0.329,0.426c0.869,0.842,2.549,2.305,3.83,2.283c0.49-0.008,0.865-0.396,1.261-0.623
				c0.86-0.493,1.831-0.693,2.683-1.179C35.803,77.942,35.792,77.63,35.582,77.598z"/>
			<path fill="#DCAA00" d="M58.38,94.951c-1.403,0.229-2.891,1.536-4.259,1.416c-1.479-0.129-3.276-1.844-4.619-2.526
				c-0.295-0.15-0.51,0.244-0.254,0.436c0.839,0.633,1.72,1.197,2.607,1.761c0.507,0.323,1.571,1.299,2.205,1.357
				c0.606,0.056,1.456-0.547,2.014-0.779c0.866-0.36,1.73-0.672,2.486-1.237C58.775,95.219,58.648,94.907,58.38,94.951z"/>
			<path fill="#DCAA00" d="M60.413,104.74c-1.355,0.064-2.435,0.825-3.72,1.143c-1.419,0.348-2.901-0.956-4.196-1.504
				c-0.205-0.086-0.483,0.176-0.268,0.347c0.964,0.764,2.501,2.259,3.777,2.325c0.733,0.037,1.661-0.48,2.33-0.733
				c0.827-0.31,1.566-0.579,2.261-1.13C60.777,105.045,60.626,104.73,60.413,104.74z"/>
			<path fill="#DCAA00" d="M76.539,103.5c-1.645-0.405-3.895-0.385-5.553-0.045c-0.769,0.158-0.774,0.406-1.473-0.011
				c-0.932-0.556-1.775-1.755-2.499-2.538c-0.173-0.188-0.486,0.054-0.353,0.273c0.816,1.335,1.872,2.416,3.067,3.42
				c0.122,0.102,0.317,0.161,0.461,0.06c1.62-1.138,4.469-0.151,6.349-0.654C76.785,103.938,76.792,103.562,76.539,103.5z"/>
			<path fill="#DCAA00" d="M43.752,99.879c-1.48-0.195-2.531,1.224-4.076,0.916c-1.508-0.301-2.939-1.525-4.236-2.291
				c-0.23-0.136-0.47,0.178-0.284,0.368c1.186,1.208,3.039,2.657,4.768,2.876c1.33,0.168,2.98-0.697,3.981-1.5
				C44.07,100.115,43.912,99.901,43.752,99.879z"/>
			<path fill="#DCAA00" d="M39.612,109.561c-1.319,0.336-2.453,1.107-3.605,1.809c-1.802,1.095-3.083,0.234-4.951-0.086
				c-0.2-0.034-0.358,0.246-0.149,0.353c1.164,0.589,2.984,1.636,4.325,1.254c1.512-0.431,3.51-1.868,4.563-3.015
				C39.921,109.738,39.798,109.512,39.612,109.561z"/>
			<path fill="#DCAA00" d="M32.611,101.955c-1.566,0.205-2.946,1.346-4.446,1.531c-1.648,0.203-3.17-1.248-4.785-1.404
				c-0.111-0.011-0.169,0.148-0.091,0.22c0.726,0.661,1.55,0.987,2.444,1.4c0.569,0.263,1.293,0.771,1.954,0.789
				c1.386,0.039,3.954-1.421,5.008-2.228C32.805,102.18,32.796,101.932,32.611,101.955z"/>
			<path fill="#DCAA00" d="M18.97,97.674c-1.376,0.745-2.792,2.519-4.453,2.266c-1.376-0.209-2.608-1.025-4.012-1.154
				c-0.13-0.012-0.159,0.17-0.063,0.231c0.775,0.491,1.647,0.727,2.51,1.034c0.723,0.258,1.63,0.77,2.434,0.675
				c1.346-0.161,2.981-1.679,3.984-2.532C19.665,97.942,19.289,97.501,18.97,97.674z"/>
			<path fill="#DCAA00" d="M69.495,104.549c-1.39,3.868-2.518,8.888-2.334,13.018c0.009,0.188,0.267,0.223,0.326,0.044
				c0.732-2.226,0.946-4.636,1.371-6.938c0.373-2.02,0.853-4.021,1.079-6.062C69.966,104.342,69.575,104.326,69.495,104.549z"/>
			<path fill="#DCAA00" d="M56.243,108.199c-0.101-0.336-0.588-0.195-0.522,0.145c0.985,5.093,1.739,10.228,2.74,15.312
				c0.044,0.226,0.401,0.172,0.397-0.054C58.767,118.421,57.71,113.155,56.243,108.199z"/>
			<path fill="#DCAA00" d="M28.131,105.441c-0.065-0.271-0.439-0.189-0.46,0.062c-0.353,4.229-0.053,8.956,0.529,13.159
				c0.044,0.318,0.481,0.192,0.514-0.069C29.233,114.425,29.12,109.535,28.131,105.441z"/>
			<path fill="#DCAA00" d="M20.192,113.689c-0.658-2.57-1.765-5.066-2.74-7.533c-0.668-1.688-1.384-3.221-2.741-4.472
				c-0.243-0.224-0.596,0.126-0.364,0.363c2.972,3.036,3.512,8.106,5.441,11.812C19.906,114.086,20.253,113.928,20.192,113.689z"/>
			<path fill="#DCAA00" d="M40.465,105.307c-0.181-0.822-0.3-1.678-0.592-2.469c-0.071-0.191-0.335-0.158-0.352,0.047
				c-0.066,0.813,0.082,1.645,0.223,2.445c0.141,0.792,0.235,1.654,0.67,2.345c0.126,0.202,0.422,0.113,0.436-0.118
				C40.896,106.797,40.626,106.045,40.465,105.307z"/>
			<path fill="#DCAA00" d="M32.08,80.172c-0.07-0.307-0.539-0.233-0.542,0.073c-0.021,2.564,0.368,5.557,1.209,7.979
				c0.08,0.229,0.45,0.207,0.442-0.06C33.116,85.562,32.653,82.707,32.08,80.172z"/>
			<path fill="#DCAA00" d="M9.214,88.691c-0.068-0.291-0.569-0.237-0.533,0.071c0.257,2.181,0.577,4.655,1.683,6.585
				c0.104,0.182,0.444,0.116,0.42-0.113C10.55,93.043,9.718,90.837,9.214,88.691z"/>
			<path fill="#DCAA00" d="M49.502,78.872c-0.021-0.151-0.276-0.147-0.301,0c-0.517,2.968-0.611,6.465-0.233,9.447
				c0.028,0.215,0.38,0.321,0.424,0.057C49.881,85.388,49.914,81.871,49.502,78.872z"/>
			<path fill="#DCAA00" d="M65.739,83.031c-0.017-0.206-0.347-0.287-0.388-0.053c-0.504,2.859-0.767,6.181-0.437,9.064
				c0.023,0.204,0.337,0.29,0.388,0.053C65.908,89.252,65.97,85.919,65.739,83.031z"/>
			<path fill="#DCAA00" d="M76.777,91.583c-0.455,2.324-0.875,5.04-0.236,7.36c0.055,0.202,0.322,0.141,0.342-0.046
				c0.265-2.397,0.029-4.845,0.3-7.259C77.209,91.407,76.821,91.355,76.777,91.583z"/>
			<path fill="#FFD753" d="M73.753,105.758c-0.505,3.93-2.782,7.535-2.901,11.536c-0.007,0.254,0.347,0.339,0.471,0.128
				c1.096-1.861,1.547-4.021,2.121-6.086c0.509-1.84,1.127-3.654,1.099-5.578C74.535,105.234,73.816,105.267,73.753,105.758z"/>
			<path fill="#FFD753" d="M61.3,106.738c-0.031-0.392-0.598-0.4-0.615,0c-0.189,4.408-0.695,9.668,0.324,13.978
				c0.056,0.235,0.439,0.247,0.487,0C62.352,116.364,61.654,111.135,61.3,106.738z"/>
			<path fill="#FFD753" d="M82.251,92.24c-0.007-0.275-0.463-0.367-0.505-0.068c-0.524,3.744-1.33,7.849-1.116,11.622
				c0.019,0.346,0.497,0.419,0.604,0.082C82.382,100.285,82.354,95.973,82.251,92.24z"/>
			<path fill="#FFD753" d="M54.268,79.503c-0.036-0.358-0.526-0.362-0.56,0c-0.3,3.297-0.539,6.688-0.504,9.998
				c0.003,0.215,0.323,0.265,0.379,0.051C54.429,86.335,54.603,82.807,54.268,79.503z"/>
			<path fill="#FFD753" d="M37.036,82.245c-0.071-0.67-1.129-0.676-1.056,0c0.357,3.298,0.581,7.026,1.877,10.1
				c0.12,0.284,0.599,0.289,0.586-0.08C38.329,88.932,37.386,85.57,37.036,82.245z"/>
			<path fill="#FFD753" d="M59.727,96.595c-0.116-0.227-0.471-0.114-0.47,0.128c0.001,0.977,0.164,1.956,0.218,2.932
				c0.05,0.904,0.018,1.764,0.282,2.64c0.054,0.182,0.354,0.261,0.445,0.059C60.944,100.674,60.544,98.191,59.727,96.595z"/>
			<path fill="#FFD753" d="M70.453,84.945c-1.19,3.586-1.675,8.199-0.701,11.875c0.089,0.335,0.552,0.241,0.577-0.078
				c0.315-3.889,0.279-7.831,0.566-11.737C70.915,84.741,70.529,84.715,70.453,84.945z"/>
			<path fill="#FFFFFF" d="M62.881,104.102c-0.676-0.755-1.928-1.047-2.819-1.518c-1.057-0.558-2.063-1.199-3.093-1.799
				c-0.251-0.146-0.543,0.208-0.317,0.411c0.91,0.818,1.934,1.494,3.004,2.084c0.886,0.488,2.028,1.281,3.073,1.192
				C62.917,104.455,63.012,104.248,62.881,104.102z"/>
			<path fill="#FFFFFF" d="M77.629,102.689c-0.134-0.295-0.355-0.424-0.623-0.596c-0.344-0.221-0.639-0.488-0.907-0.796
				c-0.549-0.63-0.851-1.37-1.048-2.174c-0.076-0.306-0.501-0.217-0.523,0.071c-0.072,0.957,0.271,1.903,0.852,2.659
				c0.429,0.56,1.323,1.484,2.099,1.208C77.644,103.002,77.7,102.846,77.629,102.689z"/>
			<path fill="#FFFFFF" d="M62.675,94.961c-0.491-0.869-1.466-1.43-2.254-2.015c-0.975-0.726-1.956-1.46-3.015-2.062
				c-0.305-0.174-0.634,0.237-0.378,0.49c0.797,0.789,1.687,1.485,2.575,2.169c0.848,0.654,1.718,1.542,2.776,1.801
				C62.601,95.4,62.789,95.163,62.675,94.961z"/>
		</g>
		<path opacity="0.1" d="M72.329,177.756c-19.08,4.178-39.083,4.083-58.122-0.276c-4.352-0.997-8.829-2.308-12.134-5.308
			c-0.555-0.506-1.105-1.137-1.095-1.887c0.009-0.609,0.396-1.146,0.789-1.615c4.678-5.555,12.311-7.466,19.466-8.718
			c7.461-1.307,14.988-2.238,22.543-2.792c8.995-0.658,21.077-0.934,29.347,3.526C82.322,165.647,84.087,175.178,72.329,177.756z"/>
		<g>
			<path fill="#C53E0F" d="M27.32,176.203c-3.974-0.878-10.488-2.568-11.255-6.507c-0.296-1.521-0.601-3.032-0.892-4.533
				c-0.674-3.45-1.22-6.916-1.687-10.392c-0.009-0.063-0.018-0.129-0.027-0.193c-0.522-3.909-0.947-7.836-1.345-11.759v-0.028
				c-0.046-0.446-0.092-0.896-0.138-1.344c-0.758-7.563-2.167-15.049-2.033-22.616c3.581,1.991,7.393,3.677,11.366,5.031
				c-0.18,4.366,2.024,7.892,2.935,12.105c1.026,4.768,0.249,9.295,0.619,14.073C25.518,158.524,24.713,167.987,27.32,176.203z"/>
			<path fill="#F94705" d="M78.546,121.4c0.037,7.562-0.375,15.408-1.003,23.018c-0.069,0.832-0.138,1.659-0.212,2.481
				c-0.106,1.22-0.222,2.412-0.351,3.581c-0.194,1.844-0.416,3.631-0.688,5.396c-0.259,1.719-0.568,3.415-0.934,5.114
				c-0.624,2.935-1.432,5.892-2.5,9.01c-0.374,1.096-0.993,2.38-2.315,2.542c-11.218,1.399-22.63,3.386-34.347,3.446
				c-10.244,0.057-12.447,1.285-13.339-7.698c-0.098-0.956-0.185-1.916-0.273-2.878c-0.203-2.264-0.378-4.536-0.531-6.81
				c-0.258-3.701-0.462-7.407-0.646-11.118v-0.013c-0.384-7.943-0.666-15.899-1.123-23.818c5.905,0.009,11.81,0.019,17.714,0.023
				c-0.993,5.899,5.143,11.92,12.143,11.911c4.588-0.005,7.397-2.324,10.197-5.051c0.536-0.517,6.339-7.771,2.675-7.563
				C68.247,122.675,73.458,122.088,78.546,121.4z"/>
			<path fill="#E1970B" d="M43.86,127.056c-1.542-4.496-4.262-9.344-7.315-12.987c-0.167-0.2-0.456,0.055-0.347,0.267
				c2.232,4.315,4.746,8.737,7.284,12.881C43.601,127.408,43.938,127.285,43.86,127.056z"/>
			<path fill="#FFCF81" d="M41.254,111.336c0.081,0.132,0.275,0.016,0.206-0.121c-0.093-0.184-0.095-0.188-0.292-0.246
				c-0.148-0.043-0.28,0.102-0.244,0.245c0.873,3.495,2.671,6.829,4.023,10.159c1.249,3.078,2.406,6.2,3.837,9.201
				c0.095,0.2,0.388,0.054,0.344-0.146C47.641,123.765,44.789,117.057,41.254,111.336z"/>
			<path fill="#FF6C31" d="M72.945,136.736c-1.249-0.973-1.287,1.467-1.375,2.635c-0.17,2.239-0.145,4.492-0.265,6.749
				c-0.14,2.62-0.361,5.237-0.655,7.845c-0.581,5.162-1.988,10.319-2.284,15.495c-0.021,0.354,0.544,0.53,0.693,0.188
				c2.383-5.488,3.014-12.018,3.732-17.92c0.385-3.169,0.664-6.354,0.837-9.54c0.075-1.385,0.86-3.671-0.13-4.887
				C73.291,137.048,73.107,136.862,72.945,136.736z"/>
			<path fill="#FF6C31" d="M74.903,129.283c-0.107-0.287-0.182-0.563-0.405-0.791c-0.181-0.185-0.392-0.324-0.627-0.424
				c-0.307-0.13-0.644-0.164-0.971-0.082c-0.486,0.121-0.719,0.438-0.895,0.873c-0.221,0.547,0.245,1.221,0.771,1.356
				c0.067,0.02,0.136,0.031,0.206,0.035c0.032,0.007,0.063,0.005,0.095,0.008c0.022,0.015,0.044,0.03,0.066,0.045
				c0.001,0.001,0.003,0.002,0.004,0.003c0.351,0.29,0.86,0.433,1.275,0.164C74.788,130.233,75.068,129.729,74.903,129.283z"/>
			<path fill="#FF6C31" d="M62.321,131.244c-1.241,1.407-1.991,2.97-3.631,4.028c-1.897,1.224-4.145,1.676-6.361,1.856
				c-3.894,0.316-8.296,0.362-11.592-1.974c-0.469-0.332-0.891,0.359-0.573,0.743c3.071,3.711,9.521,3.449,13.841,2.888
				c3.618-0.47,9.367-2.657,9.508-7.049C63.532,131.153,62.722,130.789,62.321,131.244z"/>
		</g>
		<path fill="#FFD500" d="M77.543,144.418c-0.069,0.832-0.138,1.659-0.212,2.481c-0.106,1.22-0.222,2.412-0.351,3.581
			c-0.194,1.844-0.416,3.631-0.688,5.396c-5.609,1.141-18.135,1.788-19.549,1.922c-11.505,1.091-23.098,0.476-34.69,0.805
			c-0.258-3.701-0.462-7.407-0.646-11.118c11.773-0.364,23.549,0.282,35.239-0.821C58.188,146.521,72.955,145.763,77.543,144.418z"
			/>
		<path fill="#F0BA00" d="M21.918,158.825c-0.947-0.952-2.245-1.267-3.451-1.868c-1.659-0.825-3.299-1.51-4.981-2.186
			c-0.009-0.063-0.018-0.129-0.027-0.193c-0.152-0.111-0.287-0.235-0.383-0.397c-0.18-0.291-0.231-0.646-0.268-0.983
			c-0.234-1.944-0.415-3.895-0.543-5.849c-0.035-0.533,0.153-4.314-0.337-4.493c1.71,0.623,3.238,1.957,4.9,2.778
			c1.03,0.507,3.903,1.048,4.569,1.917c0.846,1.09,0.411,4.338,0.472,5.702C21.946,155.114,22.057,156.962,21.918,158.825z"/>
		<path fill="#FFDD96" d="M73.431,145.199c-0.162,2.181-0.374,4.356-0.638,6.528c-0.189,1.562-0.375,3.16-0.587,4.777
			c-0.628,0.078-1.275,0.152-1.936,0.222c0.143-0.924,0.277-1.843,0.378-2.763c0.296-2.605,0.518-5.226,0.656-7.845
			c0.015-0.218,0.023-0.439,0.028-0.656C72.063,145.379,72.765,145.291,73.431,145.199z"/>
	</g>
	<g>
		<path opacity="0.1" d="M56.916,177.061c1.063,0.78,2.255,1.425,3.433,2.019c14.212,7.187,27.124,10.915,43.241,9.881
			c12.47-0.799,26.335-2.77,37.728-8.086c5.459-2.546,13.464-7.099,12.339-14.38c-1.499-9.708-15.903-8.575-23.074-8.513
			c-11.635,0.1-21.655,1.641-33.275,0.244c-11.087-1.333-33.123-2.535-41.774,6.571c-2.335,2.458-2.99,6.46-1.299,9.4
			C54.897,175.351,55.841,176.275,56.916,177.061z"/>
		<g>
			<path fill="#EB850C" d="M68.036,168.863c3.303,3.812,7.783,6.708,12.424,8.833c8.979,4.118,18.856,6.236,28.73,6.239
				c8.826,0.007,19.649-0.122,27.7-4.105c18.029-8.922,19.802-34.576,0.918-43.047c-11.615-5.21-24.746-5.718-37.473-5.443
				c-9.747,0.211-20.013,1-28.108,6.433c-6.639,4.455-10.572,12.452-9.289,20.445C63.604,162.37,65.463,165.894,68.036,168.863z"/>
			<path fill="#E66C14" d="M146.237,164.602c-3.502,2.849-7.92,4.283-12.246,5.582c-11.868,3.548-24.181,6.516-36.536,5.598
				c-8.067-0.609-15.914-2.855-23.68-5.105c-5.033-1.459-7.476-3.779-10.266-8.398c-1.537-2.545-2.761-5.492-2.289-8.428
				c1.574-9.777,24.856-1.082,31.664-0.571c16.964,1.269,34.146-0.326,50.567-4.786c1.193-0.322,2.442-0.667,3.661-0.443
				c1.719,0.321,3.003,1.719,3.691,3.361c0.188,0.431,0.329,0.883,0.422,1.331C152.186,157.151,149.746,161.754,146.237,164.602z"/>
			<path fill="#E66C14" d="M141.536,175.933c-8.051,3.986-18.876,4.111-27.701,4.108c-9.873-0.006-19.751-2.122-28.73-6.24
				c-4.64-2.127-9.121-5.021-12.424-8.834c-2.572-2.968-4.432-6.492-5.097-10.644c-0.994-6.196,1.154-12.387,5.258-16.936
				c-0.204,0.13-0.413,0.25-0.615,0.385c-6.639,4.455-10.572,12.452-9.289,20.445c0.666,4.152,2.525,7.676,5.097,10.646
				c3.303,3.812,7.783,6.708,12.424,8.833c8.979,4.118,18.856,6.236,28.73,6.239c8.826,0.007,19.649-0.122,27.7-4.105
				c2.924-1.449,5.412-3.338,7.463-5.523C143.46,174.895,142.526,175.442,141.536,175.933z"/>
			<g>
				<path fill="#AA3915" d="M149.551,157.139c-3.195,3.188-7.447,5.062-11.619,6.792c-11.445,4.732-23.396,8.933-35.779,9.27
					c-8.087,0.21-16.122-1.229-24.077-2.682c-7.433-1.353-15.823-3.71-17.256-12.357c-0.086-0.515-0.139-0.997-0.165-1.459
					c-0.35-5.631,3.38-7.454,9.004-6.944c8.603,0.771,16.999,1.749,25.667,1.518c17.006-0.455,33.939-3.782,49.823-9.883
					c1.155-0.441,2.362-0.91,3.598-0.812c1.743,0.146,3.162,1.406,4.013,2.971c0.231,0.409,0.417,0.846,0.555,1.28
					C154.713,149.124,152.753,153.949,149.551,157.139z"/>
				<path fill="#832C04" d="M141.232,161.29c-11.445,4.732-23.396,8.933-35.779,9.27c-8.087,0.21-16.122-1.229-24.077-2.682
					c-7.433-1.353-15.823-3.71-17.256-12.357c-0.086-0.516-0.139-0.997-0.165-1.459c-0.101-1.616,0.145-2.908,0.665-3.932
					c-2.663,0.833-4.195,2.88-3.965,6.572c0.026,0.462,0.079,0.944,0.165,1.459c1.433,8.647,9.823,11.005,17.256,12.357
					c7.955,1.452,15.989,2.892,24.077,2.682c12.384-0.337,24.334-4.537,35.779-9.27c4.167-1.728,8.412-3.601,11.606-6.781
					C146.973,158.844,144.089,160.106,141.232,161.29z"/>
				<path fill="#FA5013" d="M110.514,168.016c-1.334,0-1.337,2.073,0,2.073C111.848,170.089,111.85,168.016,110.514,168.016z"/>
				<path fill="#FA5013" d="M123.057,166.894c-0.797,0-0.797,1.237,0,1.237S123.854,166.894,123.057,166.894z"/>
				<path fill="#FA5013" d="M124.765,161.864c-0.034,0.004-0.07,0.009-0.105,0.016c-0.565,0.081-0.565,1.061,0,1.144
					c0.035,0.004,0.071,0.01,0.105,0.015c0.385,0.055,0.771-0.159,0.771-0.586S125.149,161.808,124.765,161.864z"/>
				<path fill="#FA5013" d="M116.015,169.289c-0.829,0-0.831,1.289,0,1.289C116.845,170.578,116.846,169.289,116.015,169.289z"/>
				<path fill="#FA5013" d="M92.159,168.041c-0.36-0.358-0.924-0.333-1.287,0c-0.108,0.101-0.198,0.214-0.265,0.346
					c-0.407,0.796,0.409,1.614,1.206,1.207c0.132-0.067,0.245-0.157,0.345-0.264C92.492,168.969,92.517,168.399,92.159,168.041z"/>
				<path fill="#FA5013" d="M95.88,170.262c-0.437-0.437-1.415-0.149-1.329,0.552c0.01,0.048,0.012,0.098,0.005,0.146
					c-0.02,0.325,0.303,0.646,0.627,0.627c0.049-0.006,0.099-0.006,0.146,0.003c0.302,0.038,0.604-0.22,0.712-0.478
					C96.162,170.826,96.104,170.485,95.88,170.262z"/>
				<path fill="#FA5013" d="M86.733,170.104c-0.419-0.245-1.017,0.163-0.852,0.655c0.009,0.028,0.019,0.059,0.028,0.086
					c0.083,0.246,0.339,0.427,0.606,0.343c0.026-0.008,0.053-0.016,0.079-0.024C87.066,171.015,87.174,170.361,86.733,170.104z"/>
				<path fill="#FA5013" d="M74.286,167.528c-0.009-0.034-0.017-0.068-0.024-0.104c-0.168-0.707-1.265-0.71-1.434,0
					c-0.008,0.035-0.017,0.069-0.024,0.104c-0.115,0.482,0.231,0.972,0.741,0.972C74.053,168.5,74.401,168.011,74.286,167.528z"/>
				<path fill="#FA5013" d="M128.777,163.335c-0.842,0-0.844,1.311,0,1.311C129.62,164.646,129.622,163.335,128.777,163.335z"/>
				<path fill="#FA5013" d="M144.182,158.529c-1.082,0-1.083,1.681,0,1.681C145.263,160.21,145.266,158.529,144.182,158.529z"/>
				<path fill="#FA5013" d="M146.382,156.219c-0.657,0-0.658,1.021,0,1.021C147.039,157.24,147.04,156.219,146.382,156.219z"/>
				<path fill="#FA5013" d="M148.582,155.457c-0.504,0-0.504,0.784,0,0.784C149.087,156.241,149.087,155.457,148.582,155.457z"/>
				<path fill="#FA5013" d="M136.699,162.584c-0.677,0-0.677,1.053,0,1.053C137.377,163.637,137.379,162.584,136.699,162.584z"/>
			</g>
			<g>
				<path fill="#FFBB27" d="M76.009,144.46c-1.981,1.458-4.781,0.704-7.005-0.345c-2.224-1.051-4.575-2.383-6.985-1.895
					c-2.408,8.008-3.2,18.074,1.228,25.557c0.919,1.553,3.857,6.904,5.452,7.423c1.855,0.601,3.485-1.252,4.871-2.626
					c2.216-2.196,4.975-3.693,7.914-4.845c3.167-1.238,6.544-2.074,9.679-2.942c7.945-2.2,15.89-4.402,23.835-6.604
					c5.827-1.614,11.742-3.242,17.789-3.239c6.578,0.004,12.648,1.581,18.711,4.148c1.726,0.73,3.92,1.473,5.3,0.201
					c1-0.922,1.025-2.472,0.918-3.829c-0.586-7.447-2.391-13.975-7.335-19.643c-0.965-1.106-1.979-2.248-3.336-2.809
					c-1.806-0.747-3.858-0.325-5.767,0.107c-7.218,1.636-13.757,4.216-20.854,6.198c-14.438,4.031-31.345,8.029-46.259,5.067
					c0.184,0.001,0.368,0.003,0.552,0.003"/>
				<path fill="#D9961E" d="M80.854,168.027c-4.007,2.051-8.071,4.135-12.219,0.966c-3.073-2.345-6.336-6.85-7.343-10.575
					c-0.699-2.584-0.834-5.285-0.966-7.959c-2.317,4.234,0.66,13.498,2.921,17.318c0.92,1.553,3.856,6.904,5.451,7.423
					c1.855,0.601,3.485-1.252,4.87-2.626C75.633,170.531,78.18,169.104,80.854,168.027z"/>
				<path fill="#EDA321" d="M150.59,149.262c0.941-0.969,1.825-2.03,2.342-3.278c0.513-1.239,0.64-2.606,0.634-3.948
					c-0.004-0.507-0.03-1.035-0.27-1.482c-0.238-0.447-0.749-0.789-1.244-0.674c-0.255,0.059-0.469,0.228-0.675,0.391
					c-4.841,3.829-10.122,7.1-15.707,9.728c-0.851,0.401-1.728,0.799-2.398,1.457c-0.671,0.66-1.104,1.648-0.841,2.552
					c0.745,2.542,7.362,1.322,9.152,0.812C145.008,153.84,148.119,151.802,150.59,149.262z"/>
				<path fill="#D9961E" d="M68.516,159.572c3.697,3.043,9.168,3.951,13.769,4.541c2.785,0.356,5.667,0.431,8.416-0.225
					c1.006-0.239,7.188-2.364,6.881-3.85c0.28,1.356,2.071,1.635,3.456,1.609s2.894-0.096,3.94-1.001
					c-1.993-2.664-4.26-5.511-7.507-6.233c-0.932-0.208-1.896-0.224-2.851-0.238c-3.72-0.057-7.495,0.068-11.206-0.137
					c-3.441-0.19-6.942-1.39-10.422-1.39c-1.401,0-4.963,0.024-5.718-1.092c-0.625,0.261-1.302,0.405-1.979,0.393
					c-0.568,2.04,0.218,4.265,1.538,5.921C67.337,158.503,67.902,159.066,68.516,159.572z"/>
				<path fill="#FFEECB" d="M155.86,153.326c-0.129-1.243-0.254-2.593-1.054-3.588c-0.271-0.337-0.862-0.056-0.844,0.351
					c0.065,1.526,0.871,2.962,0.993,4.522c0.046,0.581,0.19,1.867-0.212,2.338c-0.858,1.009-2.374,0.543-3.375,0.071
					c-0.284-0.135-0.528,0.263-0.25,0.427c1.477,0.864,3.774,1.751,4.6-0.442C156.134,155.902,155.977,154.463,155.86,153.326z"/>
				<path fill="#FFEECB" d="M153.718,145.902c-0.53,0-1.037,0.466-1.014,1.013c0.024,0.549,0.444,1.013,1.014,1.013
					c0.529,0,1.037-0.467,1.012-1.013C154.705,146.366,154.285,145.902,153.718,145.902z"/>
				<path fill="#FFEECB" d="M80.361,164.941c-2.034,0.011-4.274,1.3-5.964,2.349c-1.742,1.078-3.611,2.43-4.667,4.219
					c-0.123,0.207,0.127,0.475,0.339,0.338c1.703-1.105,3.153-2.511,4.946-3.502c1.804-0.997,3.871-1.344,5.641-2.318
					C81.165,165.746,80.932,164.937,80.361,164.941z"/>
				<path fill="#FFEECB" d="M83.667,164.19c-0.73,0-0.895,0.914-0.352,1.298l0.091,0.063c0.138,0.097,0.382,0.097,0.521,0
					c0.03-0.022,0.061-0.045,0.091-0.063C84.56,165.104,84.397,164.19,83.667,164.19z"/>
			</g>
			<g>
				<path fill="#FF5107" d="M66.6,154.057c4.649,6.965,11.427,7.449,17.61,7.195c2.423-0.099,4.908-0.246,7.258-1.353
					c1.603-0.754,4.302-2.021,5.342-4.349c3.093-6.918-4.806-9.051-6.977-10.049c-5.207-2.394-10.616-3.494-16.006-3.267
					C69.719,142.407,59.973,144.129,66.6,154.057z"/>
				<path fill="#FF703A" d="M66.6,149.726c4.649,6.966,11.427,7.449,17.61,7.196c3.701-0.151,7.585-0.53,10.74-3.842
					c0.71-0.745,1.405-1.713,1.662-3.067c0.325-1.719-0.167-3.646-0.949-4.862c-0.781-1.217-1.804-1.862-2.808-2.431
					c-6.116-3.463-12.586-5.086-19.027-4.815C69.719,138.077,59.973,139.798,66.6,149.726z"/>
				<path fill="#EC5929" d="M78.957,156.067c3.901,1.047,8.061,1.33,11.984,0.366c0.137-0.032,0.284-0.074,0.372-0.185
					c0.242-0.303-0.159-0.696-0.504-0.87c-4.017-2.012-8.349-3.387-12.786-4.084c-2.28-0.358-4.587-0.536-6.895-0.532
					c-0.578,0.001-2.228-0.211-2.168,0.801c0.037,0.647,2.06,1.348,2.59,1.613C73.922,154.363,76.391,155.377,78.957,156.067z"/>
			</g>
			<g>
				<path fill="#FF5107" d="M96.715,156.908c5.217,6.55,12.011,6.466,18.151,5.694c2.406-0.302,4.869-0.655,7.118-1.955
					c1.534-0.887,4.118-2.376,4.961-4.781c2.502-7.152-5.548-8.615-7.796-9.429c-5.388-1.95-10.87-2.592-16.223-1.915
					C98.848,145.038,89.28,147.569,96.715,156.908z"/>
				<path fill="#FF703A" d="M96.353,152.592c5.218,6.551,12.011,6.467,18.15,5.696c3.677-0.461,7.515-1.164,10.38-4.729
					c0.646-0.802,1.258-1.823,1.398-3.195c0.181-1.74-0.47-3.619-1.352-4.767c-0.88-1.146-1.953-1.703-3.002-2.187
					c-6.385-2.938-12.969-4.014-19.364-3.204C98.485,140.723,88.917,143.255,96.353,152.592z"/>
				<path fill="#EC5929" d="M113.21,157.531c3.513-0.755,6.959-1.812,10.289-3.158c0.781-0.315,1.57-0.656,2.202-1.215
					c0.631-0.558,1.087-1.378,1.008-2.216c-1.065-0.08-2.13,0.103-3.18,0.291c-4.763,0.85-9.503,1.814-14.218,2.896
					c-1.179,0.271-2.356,0.548-3.531,0.831c-0.795,0.193-2.752,0.295-3.314,0.895c-1.583,1.688,2.168,2.249,3.038,2.335
					C108.082,158.444,110.692,158.072,113.21,157.531z"/>
			</g>
			<g>
				<path fill="#FF5107" d="M130.227,153.676c7.658,3.388,13.641,0.164,18.724-3.364c1.991-1.383,4.012-2.839,5.402-5.032
					c0.949-1.496,2.548-4.014,2.18-6.535c-1.097-7.498-8.908-5.064-11.277-4.744c-5.679,0.771-10.834,2.741-15.263,5.821
					C126.616,142.169,119.311,148.846,130.227,153.676z"/>
				<path fill="#FF703A" d="M127.905,150.02c7.659,3.388,13.641,0.164,18.724-3.364c3.044-2.112,6.12-4.514,7.009-9
					c0.199-1.01,0.267-2.198-0.242-3.479c-0.646-1.625-2.096-2.989-3.406-3.598c-1.312-0.608-2.521-0.604-3.673-0.547
					c-7.021,0.356-13.353,2.453-18.646,6.134C124.295,138.513,116.99,145.19,127.905,150.02z"/>
				<path fill="#EC5929" d="M134.636,150.544c5.026-1.697,9.551-4.622,13.783-7.821c1.271-0.961,2.532-1.961,3.513-3.216
					c0.982-1.255,1.67-2.8,1.624-4.392c-0.018-0.639-0.312-1.421-0.948-1.456c-0.382-0.021-0.71,0.248-0.999,0.496
					c-3.715,3.184-8.015,5.56-12.217,8.021c-2.161,1.269-4.314,2.561-6.36,4.009c-0.833,0.59-5.211,3.314-4.984,4.407
					C128.382,152.221,133.839,150.812,134.636,150.544z"/>
			</g>
			<g>
				<path fill="#AA3915" d="M149.551,141.089c-3.195,3.188-7.447,5.063-11.619,6.792c-11.445,4.733-23.396,8.933-35.779,9.27
					c-8.087,0.211-16.122-1.228-24.077-2.681c-7.433-1.354-15.823-3.71-17.256-12.358c-0.086-0.515-0.139-0.996-0.165-1.458
					c-0.35-5.632,3.38-7.454,9.004-6.945c8.603,0.772,16.999,1.749,25.667,1.519c17.006-0.455,33.939-3.783,49.823-9.883
					c1.155-0.442,2.362-0.911,3.598-0.812c1.743,0.145,3.162,1.405,4.013,2.971c0.231,0.409,0.417,0.845,0.555,1.28
					C154.713,133.074,152.753,137.9,149.551,141.089z"/>
				<path fill="#832C04" d="M141.232,145.241c-11.445,4.732-23.396,8.932-35.779,9.269c-8.087,0.211-16.122-1.229-24.077-2.681
					c-7.433-1.354-15.823-3.71-17.256-12.358c-0.086-0.515-0.139-0.996-0.165-1.458c-0.101-1.616,0.145-2.909,0.665-3.933
					c-2.663,0.834-4.195,2.881-3.965,6.573c0.026,0.462,0.079,0.943,0.165,1.458c1.433,8.648,9.823,11.005,17.256,12.358
					c7.955,1.453,15.989,2.892,24.077,2.681c12.384-0.337,24.334-4.536,35.779-9.27c4.167-1.727,8.412-3.6,11.606-6.781
					C146.973,142.795,144.089,144.057,141.232,145.241z"/>
				<path fill="#FA5013" d="M110.514,151.966c-1.334,0-1.337,2.074,0,2.074C111.848,154.04,111.85,151.966,110.514,151.966z"/>
				<path fill="#FA5013" d="M123.057,150.844c-0.797,0-0.797,1.238,0,1.238S123.854,150.844,123.057,150.844z"/>
				<path fill="#FA5013" d="M124.765,145.814c-0.034,0.005-0.07,0.01-0.105,0.016c-0.565,0.081-0.565,1.062,0,1.144
					c0.035,0.005,0.071,0.01,0.105,0.016c0.385,0.056,0.771-0.159,0.771-0.588C125.536,145.976,125.149,145.759,124.765,145.814z"/>
				<path fill="#FA5013" d="M116.015,153.238c-0.829,0-0.831,1.29,0,1.29C116.845,154.528,116.846,153.238,116.015,153.238z"/>
				<path fill="#FA5013" d="M92.159,151.993c-0.36-0.36-0.924-0.334-1.287,0c-0.108,0.1-0.198,0.214-0.265,0.345
					c-0.407,0.796,0.409,1.614,1.206,1.207c0.132-0.067,0.245-0.156,0.345-0.266C92.492,152.919,92.517,152.352,92.159,151.993z"/>
				<path fill="#FA5013" d="M95.88,154.212c-0.437-0.436-1.415-0.149-1.329,0.552c0.01,0.048,0.012,0.097,0.005,0.146
					c-0.02,0.324,0.303,0.646,0.627,0.627c0.049-0.007,0.099-0.005,0.146,0.005c0.302,0.037,0.604-0.222,0.712-0.479
					C96.162,154.778,96.104,154.437,95.88,154.212z"/>
				<path fill="#FA5013" d="M86.733,154.054c-0.419-0.244-1.017,0.164-0.852,0.655c0.009,0.029,0.019,0.058,0.028,0.087
					c0.083,0.245,0.339,0.426,0.606,0.343c0.026-0.008,0.053-0.017,0.079-0.024C87.066,154.967,87.174,154.312,86.733,154.054z"/>
				<path fill="#FA5013" d="M74.286,151.479c-0.009-0.034-0.017-0.068-0.024-0.104c-0.168-0.708-1.265-0.708-1.434,0
					c-0.008,0.035-0.017,0.069-0.024,0.104c-0.115,0.483,0.231,0.973,0.741,0.973C74.053,152.451,74.401,151.962,74.286,151.479z"/>
				<path fill="#FA5013" d="M128.777,147.287c-0.842,0-0.844,1.31,0,1.31C129.62,148.597,129.622,147.287,128.777,147.287z"/>
				<path fill="#FA5013" d="M144.182,142.48c-1.082,0-1.083,1.681,0,1.681C145.263,144.161,145.266,142.48,144.182,142.48z"/>
				<path fill="#FA5013" d="M146.382,140.17c-0.657,0-0.658,1.021,0,1.021C147.039,141.19,147.04,140.17,146.382,140.17z"/>
				<path fill="#FA5013" d="M148.582,139.408c-0.504,0-0.504,0.783,0,0.783C149.087,140.191,149.087,139.408,148.582,139.408z"/>
				<path fill="#FA5013" d="M136.699,146.535c-0.677,0-0.677,1.053,0,1.053C137.377,147.588,137.379,146.535,136.699,146.535z"/>
			</g>
			<path fill="#832C04" d="M148.403,132.294c1.104,0.567,1.902,1.94,1.691,3.222c-0.317,1.895-2.185,3.222-4.087,3.538
				c-1.894,0.324-3.822-0.151-5.689-0.62c0.414,3.849-2.562,7.75-6.385,8.377c-3.815,0.621-7.883-2.132-8.715-5.915
				c-0.099,2.271-2.938,3.921-4.956,2.879c2.487,2.211-0.259,6.746-3.578,6.964c-3.321,0.213-6.199-2.111-8.708-4.304
				c1.822,3.479-1.815,8.047-5.73,7.836c-3.77-0.212-6.727-3.79-7.209-7.546c0.086,1.855-1.763,3.546-3.677,3.578
				c-2.053,0.027-3.901-1.445-4.884-3.255c1.135,3.453-2.041,7.553-5.671,7.315c-3.624-0.244-6.238-4.721-4.66-7.994
				c-2.021,3.379-6.093,5.954-9.856,4.786c-3.473-1.077-4.998-6.318-2.502-8.615c-0.72,0.448-1.519,0.752-2.351,0.91
				c-0.349-5.63,3.38-7.453,9.005-6.944c8.602,0.772,16.999,1.749,25.667,1.519c17.005-0.456,33.938-3.783,49.823-9.883
				c1.155-0.441,2.362-0.911,3.598-0.812c1.741,0.146,3.161,1.406,4.013,2.972c-0.126,0.29-0.31,0.561-0.549,0.778
				C151.791,132.188,150.095,132.38,148.403,132.294z"/>
			<path fill="#00B53E" d="M153.674,124.389c2.032-0.206,2.873,3.256,1.298,4.708c-1.205,1.111-2.898,1.305-4.585,1.223
				c1.105,0.564,1.899,1.934,1.687,3.216c-0.317,1.893-2.187,3.222-4.079,3.539c-1.898,0.316-3.833-0.153-5.695-0.623
				c0.411,3.85-2.564,7.753-6.385,8.377c-3.821,0.622-7.883-2.135-8.711-5.914c-0.101,2.274-2.939,3.926-4.963,2.88
				c2.487,2.21-0.258,6.742-3.579,6.96c-3.315,0.217-6.201-2.11-8.705-4.297c1.821,3.474-1.811,8.048-5.731,7.83
				c-3.733-0.206-6.667-3.703-7.195-7.419c0,1.805-1.817,3.427-3.686,3.45c-2.058,0.03-3.904-1.445-4.885-3.25
				c1.135,3.456-2.046,7.554-5.673,7.312s-6.237-4.715-4.661-7.995c-2.022,3.386-6.096,5.955-9.858,4.786
				c-3.468-1.071-4.991-6.308-2.509-8.606c-3.904,2.422-10.094,0.5-11.328-4.003c-1.546-5.654,2.792-7.578,7.078-7.948
				c1.323-0.123,2.639-0.088,3.78,0.023c7.519,0.759,15.055,0.971,22.603,0.519c14.884-0.905,29.626-4.245,43.423-9.923
				c5.979-2.47,12.109-5.414,18.446-5.914c1.369-0.106,2.745-0.1,4.139,0.054c3.127,0.34,6.725,2.121,6.83,5.261
				C160.838,121.972,157,123.906,153.674,124.389z"/>
			<g>
				<path fill="#009127" d="M109.25,147.264c-3.778-0.208-6.729-3.79-7.206-7.554c0.088,1.859-1.763,3.561-3.677,3.586
					c-2.056,0.027-3.903-1.444-4.885-3.251c0.896,2.732-0.906,5.857-3.494,6.93c0.946,0.824,2.11,1.361,3.354,1.345
					c1.915-0.025,3.766-1.726,3.676-3.585c0.477,3.764,3.428,7.346,7.207,7.553c2.937,0.162,5.713-2.364,6.155-5.104
					C110.009,147.248,109.632,147.284,109.25,147.264z"/>
				<path fill="#009127" d="M158.52,119.391c0.838-0.164,1.488,0.278,1.882,0.967c0.193-0.449,0.297-0.938,0.313-1.457
					C159.986,119.131,159.239,119.298,158.52,119.391z"/>
				<path fill="#009127" d="M87.811,147.356c-3.628-0.239-6.24-4.717-4.663-7.992c-2.022,3.383-6.095,5.954-9.858,4.786
					c-3.494-1.085-5.009-6.386-2.443-8.656c-3.907,2.484-10.153,0.574-11.391-3.954c-0.26-0.951-0.351-1.795-0.307-2.545
					c-3.337,0.834-5.975,2.964-4.717,7.568c1.238,4.528,7.484,6.439,11.391,3.955c-2.566,2.271-1.051,7.571,2.444,8.656
					c3.764,1.168,7.835-1.404,9.857-4.787c-1.577,3.276,1.035,7.754,4.663,7.993c2.85,0.188,5.411-2.3,5.834-5.05
					C88.354,147.36,88.084,147.375,87.811,147.356z"/>
				<path fill="#009127" d="M114.981,139.434c1.31,2.496-0.205,5.551-2.612,6.997c1.901,1.401,3.993,2.476,6.295,2.324
					c2.506-0.163,4.682-2.787,4.529-5.014C120.081,143.71,117.36,141.513,114.981,139.434z"/>
				<path fill="#009127" d="M147.323,131.427c0.219,2.043-0.523,4.098-1.834,5.673c0.835,0.098,1.672,0.116,2.502-0.023
					c1.897-0.317,3.765-1.646,4.084-3.543c0.078-0.465,0.021-0.942-0.136-1.388C150.394,132.185,148.837,131.809,147.323,131.427z"
					/>
				<path fill="#009127" d="M140.94,139.804c-3.821,0.624-7.883-2.133-8.716-5.913c-0.098,2.271-2.939,3.923-4.961,2.881
					c1.139,1.01,1.175,2.503,0.569,3.851c1.49,2.857,4.868,4.73,8.082,4.206c2.772-0.453,5.093-2.637,6.005-5.27
					C141.599,139.661,141.273,139.748,140.94,139.804z"/>
			</g>
			<path fill="#009127" d="M149.582,123.842c-1.988,3.392-5.932,5.05-9.652,6.325c-13.95,4.803-28.634,7.453-43.383,7.906
				c-9.317,0.288-24.107,1.334-31.813-5.285c-1.458-1.252-2.516-2.662-3.227-4.174c1.323-0.123,2.639-0.088,3.78,0.023
				c7.519,0.759,15.055,0.971,22.603,0.519c14.884-0.905,29.626-4.245,43.423-9.923c5.979-2.47,12.109-5.414,18.446-5.914
				C151.093,116.823,151.434,120.685,149.582,123.842z"/>
			<path fill="#EB850C" d="M140.52,128.405c3.717-1.279,7.66-2.934,9.647-6.327c2.469-4.215,1.036-9.678-1.443-13.885
				c-8.645-14.673-27.605-20.04-44.615-19.213c-13.126,0.638-27.193,4.524-35.957,14.949c-6.067,7.221-11.342,19.791-2.832,27.097
				c7.707,6.616,22.498,5.573,31.816,5.285C111.882,135.856,126.566,133.206,140.52,128.405z"/>
			<path fill="#E66C14" d="M106.818,131.471c-9.319,0.287-24.11,1.33-31.816-5.285c-8.51-7.306-3.235-19.877,2.833-27.097
				c2.152-2.561,4.626-4.725,7.326-6.546c-6.513,2.349-12.472,5.99-17.009,11.387c-6.067,7.221-11.342,19.791-2.832,27.097
				c7.707,6.616,22.498,5.573,31.816,5.285c14.746-0.455,29.43-3.105,43.383-7.906c2.882-0.991,5.896-2.213,8.033-4.291
				C135.093,128.564,120.986,131.033,106.818,131.471z"/>
			<path fill="#00D958" d="M138.04,137.537c-0.339,1.627-0.965,3.427-2.791,3.825c-2.212,0.483-4.035-1.016-4.799-2.969
				c-0.11-0.283-0.487-0.171-0.448,0.123c0.8,5.9,10.062,5.06,10.151-0.693C140.172,136.635,138.293,136.33,138.04,137.537z"/>
			<path fill="#00D958" d="M155.44,114.66c-0.833-0.045-1.377,1.159-0.711,1.717c0.884,0.741,3.411,1.465,2.222,2.967
				c-1.119,1.415-2.96,1.235-4.409,1.983c-0.284,0.147-0.371,0.438-0.314,0.709c-0.096,0.154-0.095,0.379,0.039,0.527
				c0.652,0.732,1.312,1.602,1.646,2.504c-0.356,0.112-0.646,0.404-0.612,0.846c0.206,2.732-3.344,2.303-5.103,2.23
				c-0.604-0.025-0.611,0.776-0.132,0.973c0.557,0.227,1.135,0.42,1.723,0.55c-0.095,0.191-0.119,0.409-0.051,0.643
				c0.12,0.399,0.479,0.672,0.896,0.681c2.481,0.056,4.904-1.61,5.255-4.171c0.184-1.349-0.224-2.87-1.116-3.867
				c1.919-0.239,3.99-1.697,4.611-3.21C160.417,117.232,157.85,114.79,155.44,114.66z"/>
			<path fill="#00D958" d="M151.119,131.799c-0.383-0.898-1.535-0.293-1.623,0.44c-0.185,1.495-0.396,3.089-2.08,3.619
				c-1.555,0.489-2.832-0.532-3.966-1.431c-0.413-0.328-0.929-0.021-0.852,0.497c0.003,0.029,0.013,0.056,0.019,0.085
				c-0.331,0.206-0.562,0.58-0.475,1.063c0.651,3.559-2.01,5.708-4.941,6.896c-0.51,0.206-0.704,1.126,0,1.238
				c3.943,0.633,6.793-3.441,6.96-7.077c1.213,0.724,2.878,0.874,4.121,0.427C150.487,136.764,152.073,134.032,151.119,131.799z"/>
			<path fill="#FFCF81" d="M95.707,99.516c-0.235-0.571-1.078-1.034-1.572-0.415c-0.798,1.001-0.646,2.392-0.298,3.554
				c0.151,0.503,0.811,0.572,1.089,0.143C95.491,101.923,96.135,100.559,95.707,99.516z"/>
			<path fill="#FFCF81" d="M116.104,106.044c-0.495-0.495-0.817-1.188-0.869-1.891c-0.054-0.735-1.007-0.856-1.261-0.171
				c-0.445,1.196-0.072,2.481,0.838,3.354C115.661,108.149,116.936,106.879,116.104,106.044z"/>
			<path fill="#FFCF81" d="M82.863,118.83c-0.668,0.109-0.997,0.847-1.163,1.432c-0.151,0.534-0.12,1.018-0.042,1.553
				c0.039,0.268,0.354,0.46,0.604,0.46c0.295,0,0.503-0.199,0.604-0.46c0.118-0.303,0.343-0.64,0.548-0.896
				c0.31-0.387,0.614-0.65,0.624-1.191C84.053,119.07,83.438,118.736,82.863,118.83z"/>
			<path fill="#FFCF81" d="M137.222,107.291c-0.552-0.324-1.108-0.789-1.196-1.48c-0.031-0.264-0.175-0.479-0.456-0.518
				c-0.239-0.032-0.528,0.119-0.577,0.377c-0.114,0.609-0.088,1.203,0.272,1.739c0.335,0.499,0.841,0.975,1.449,1.086
				C137.42,108.624,137.9,107.69,137.222,107.291z"/>
			<path fill="#FFCF81" d="M128.388,118.836c-0.647-0.684-1.274-1.285-1.762-2.102c-0.31-0.518-1.039-0.264-1.082,0.293
				c-0.089,1.184,0.373,2.569,1.31,3.343C127.915,121.247,129.368,119.866,128.388,118.836z"/>
			<path fill="#FFCF81" d="M106.112,119.379c-0.26-0.537-1.248-0.301-1.167,0.316c0.17,1.307,0.215,3.217,1.52,3.914
				c0.166,0.089,0.392,0.045,0.487-0.128C107.663,122.185,106.688,120.573,106.112,119.379z"/>
			<path fill="#FFCF81" d="M74.205,107.643c-0.086-0.474-0.611-0.645-1.021-0.579c-0.888,0.142-1.34,1.382-1.62,2.122
				c-0.196,0.52-0.58,1.882,0.386,1.93c0.811,0.039,1.085-0.807,1.439-1.391C73.798,109.051,74.355,108.471,74.205,107.643z"/>
			<path fill="#E66C14" d="M108.342,121.893c-0.203-0.337-0.806-0.408-0.988,0c-0.248,0.551-0.056,1.796-0.81,2.031
				c-1.035,0.322-1.16-1.698-1.299-2.273c-0.105-0.439-0.793-0.446-0.895,0c-0.199,0.87-0.193,1.763,0.302,2.547
				c0.413,0.654,1.139,1.113,1.928,1.039c0.721-0.067,1.282-0.571,1.591-1.204C108.462,123.437,108.707,122.498,108.342,121.893z"/>
			<path fill="#E66C14" d="M84.106,121.3c-0.218-0.214-0.515-0.225-0.778-0.101c-0.401,0.189-0.407,0.647-0.722,0.919
				c-0.217,0.188-0.57,0.311-0.85,0.204c-0.649-0.248-0.499-1.288-0.344-1.794c0.088-0.293-0.213-0.618-0.514-0.514
				c-1.67,0.572-1.172,2.959,0.16,3.632c0.725,0.365,1.633,0.266,2.306-0.174C83.997,123.057,84.814,121.996,84.106,121.3z"/>
			<path fill="#E66C14" d="M73.492,109.529c-0.452,0.585-0.66,1.416-1.442,1.678c-0.689,0.23-1.464-0.292-1.569-0.99
				c-0.036-0.232-0.431-0.289-0.523-0.068c-0.495,1.171,0.489,2.274,1.677,2.375c1.375,0.114,2.817-1.202,2.954-2.541
				C74.641,109.455,73.826,109.097,73.492,109.529z"/>
			<path fill="#E66C14" d="M95.62,102.418c-0.318,0.79-1.137,1.344-1.92,0.707c-0.711-0.576-0.52-1.688-0.616-2.491
				c-0.047-0.402-0.547-0.479-0.698-0.095c-0.537,1.361-0.306,3.164,1.172,3.801c1.252,0.539,2.95-0.188,3.149-1.623
				C96.807,101.999,95.896,101.736,95.62,102.418z"/>
			<path fill="#E66C14" d="M117.489,106.111c-0.114-0.305-0.326-0.454-0.643-0.489c-0.61-0.067-0.653,0.611-0.614,1.025
				c0.041,0.429-0.063,0.879-0.382,1.188c-0.724,0.703-1.788-0.271-1.573-1.113c0.077-0.307-0.303-0.535-0.531-0.309
				c-1.157,1.146,0.157,2.967,1.562,2.994C116.863,109.439,118.01,107.512,117.489,106.111z"/>
			<path fill="#E66C14" d="M129.216,117.769c-0.37-0.131-0.888,0.222-0.834,0.635c0.089,0.707,0.633,1.732-0.123,2.278
				c-0.849,0.613-1.812-0.402-2.218-1.073c-0.15-0.25-0.503-0.183-0.594,0.077c-0.651,1.857,1.985,3.011,3.41,2.271
				C130.254,121.234,131.1,118.434,129.216,117.769z"/>
			<path fill="#E66C14" d="M138.522,106.495c-0.402-0.112-0.761,0.2-0.779,0.595c-0.018,0.32,0.175,0.58,0.115,0.896
				c-0.056,0.282-0.263,0.551-0.523,0.665c-0.829,0.365-1.608-0.551-2.07-1.104c-0.294-0.354-0.788,0.036-0.711,0.414
				c0.302,1.474,2.119,2.666,3.546,1.881C139.082,109.299,140.142,106.949,138.522,106.495z"/>
			<path fill="#FFEECB" d="M153.554,142.829c-0.635,1.228-1.422,2.347-2.404,3.323c-1.001,0.995-2.163,1.65-3.316,2.433
				c-0.278,0.189-0.115,0.696,0.242,0.575c2.697-0.914,4.936-3.442,6.254-5.878C154.604,142.773,153.818,142.317,153.554,142.829z"
				/>
			<path fill="#FFEECB" d="M155.861,140.589c-0.062-0.172-0.138-0.249-0.311-0.312c-0.172-0.062-0.425,0.038-0.505,0.205
				c-0.016,0.034-0.033,0.067-0.049,0.103c-0.18,0.375,0.183,0.737,0.558,0.557c0.033-0.017,0.068-0.032,0.103-0.049
				C155.822,141.014,155.925,140.763,155.861,140.589z"/>
			<path fill="#FFEECB" d="M122.264,158.294c-1.482,0.505-2.783,1.382-4.319,1.8c-1.696,0.464-3.423,0.522-5.168,0.61
				c-0.339,0.016-0.446,0.537-0.083,0.616c3.05,0.656,7.679-0.08,9.923-2.423C122.852,158.651,122.619,158.174,122.264,158.294z"/>
			<path fill="#FFEECB" d="M124.486,156.649c-0.617,0-0.617,0.959,0,0.959C125.104,157.608,125.105,156.649,124.486,156.649z"/>
			<path fill="#FFEECB" d="M89.35,157.998c-1.457-0.168-2.851,0.451-4.266,0.745c-1.91,0.396-3.514,0.294-5.419-0.118
				c-0.21-0.045-0.316,0.22-0.143,0.34c1.283,0.894,2.884,0.915,4.396,0.736c1.781-0.212,3.903-0.582,5.525-1.357
				C89.628,158.256,89.511,158.017,89.35,157.998z"/>
		</g>
	</g>
</g>
</svg>
