<?xml version="1.0" encoding="utf-8"?>
<!-- Generator: Adobe Illustrator 16.0.0, SVG Export Plug-In . SVG Version: 6.00 Build 0)  -->
<!DOCTYPE svg PUBLIC "-//W3C//DTD SVG 1.1//EN" "http://www.w3.org/Graphics/SVG/1.1/DTD/svg11.dtd">
<svg version="1.1" id="Layer_1" xmlns="http://www.w3.org/2000/svg" xmlns:xlink="http://www.w3.org/1999/xlink" x="0px" y="0px"
	 width="130.989px" height="55.007px" viewBox="0 0 130.989 55.007" enable-background="new 0 0 130.989 55.007"
	 xml:space="preserve">
<path fill-rule="evenodd" clip-rule="evenodd" fill="#FFFFFF" d="M57.983,13.212v33.17h-2.797v-27.33h-6.785v27.33H45.35V29.007
	c0-0.465-0.016-0.914-0.05-1.352V13.213c0.98,2.556,3.455,4.378,6.341,4.378C54.528,17.591,57.002,15.768,57.983,13.212 M51.667,0
	c2.203,0,4.328,0.336,6.316,0.954v7.391c-0.98-2.556-3.455-4.378-6.342-4.378c-2.886,0-5.361,1.821-6.341,4.377V0.969
	C47.302,0.341,49.443,0,51.667,0z"/>
<g>
	<g>
		<path fill="#FFFFFF" d="M81.313,54.921h0.639v-4.828h-0.639V54.921z M92.331,52.072H89.83v-1.979h-0.64v4.828h0.64v-2.275h2.501
			v2.275h0.645v-4.828h-0.645V52.072z M60.339,52.71h2.663v-0.574h-2.663v-1.469h2.848v-0.574h-3.486v4.828h3.596v-0.572h-2.957
			V52.71z M102.657,52.771c-0.082-0.098-0.182-0.182-0.291-0.252c-0.113-0.07-0.23-0.127-0.353-0.174
			c-0.126-0.047-0.273-0.094-0.443-0.143c-0.168-0.049-0.362-0.096-0.577-0.143c-0.213-0.043-0.39-0.086-0.531-0.133
			c-0.141-0.043-0.252-0.094-0.338-0.15c-0.084-0.055-0.145-0.119-0.182-0.191c-0.035-0.074-0.055-0.158-0.055-0.26
			c0-0.227,0.098-0.406,0.289-0.539c0.192-0.135,0.467-0.199,0.826-0.199c0.734,0,1.131,0.291,1.194,0.875h0.618
			c-0.006-0.227-0.056-0.43-0.146-0.609c-0.093-0.18-0.218-0.334-0.38-0.457c-0.16-0.125-0.353-0.221-0.577-0.287
			c-0.224-0.066-0.471-0.1-0.741-0.1c-0.254,0-0.487,0.033-0.697,0.1c-0.213,0.066-0.393,0.158-0.543,0.279
			c-0.147,0.119-0.265,0.262-0.348,0.426c-0.084,0.16-0.124,0.34-0.124,0.533c0,0.178,0.03,0.338,0.09,0.477s0.153,0.26,0.278,0.363
			c0.126,0.105,0.287,0.197,0.482,0.277s0.429,0.15,0.697,0.209c0.279,0.061,0.514,0.119,0.705,0.174
			c0.19,0.055,0.345,0.117,0.465,0.186c0.119,0.068,0.205,0.148,0.258,0.24c0.051,0.09,0.076,0.203,0.076,0.336
			c0,0.127-0.029,0.24-0.087,0.344c-0.058,0.1-0.14,0.188-0.245,0.26c-0.104,0.07-0.229,0.127-0.375,0.164
			c-0.146,0.039-0.309,0.059-0.488,0.059c-0.185,0-0.359-0.021-0.523-0.062c-0.16-0.041-0.305-0.107-0.432-0.195
			s-0.229-0.199-0.309-0.332s-0.127-0.291-0.145-0.477h-0.613c0.007,0.24,0.055,0.461,0.143,0.662
			c0.087,0.201,0.217,0.375,0.386,0.52s0.381,0.258,0.634,0.338c0.255,0.08,0.551,0.119,0.891,0.119
			c0.258,0,0.498-0.035,0.717-0.107s0.408-0.172,0.564-0.301c0.158-0.127,0.281-0.281,0.372-0.459
			c0.09-0.178,0.134-0.373,0.134-0.586c0-0.164-0.025-0.311-0.074-0.439C102.81,52.984,102.743,52.871,102.657,52.771z
			 M77.324,50.093h-0.639v4.828h2.981v-0.572h-2.343V50.093z M68.167,53.908l-2.518-3.814h-0.658v4.828h0.604v-3.809l2.528,3.809
			h0.652v-4.828h-0.608V53.908z M73.028,53.035h1.27v0.742c-0.339,0.455-0.855,0.682-1.549,0.682c-0.244,0-0.471-0.045-0.674-0.133
			c-0.204-0.088-0.379-0.217-0.525-0.383c-0.146-0.17-0.258-0.375-0.34-0.615s-0.123-0.516-0.123-0.822
			c0-0.311,0.041-0.584,0.123-0.826s0.195-0.445,0.342-0.609s0.319-0.291,0.521-0.377c0.202-0.088,0.426-0.131,0.673-0.131
			c0.415,0,0.749,0.088,1.003,0.264c0.254,0.174,0.394,0.418,0.421,0.736h0.661c-0.023-0.238-0.092-0.451-0.204-0.643
			s-0.262-0.354-0.448-0.488c-0.186-0.137-0.401-0.24-0.646-0.312c-0.246-0.074-0.512-0.109-0.797-0.109
			c-0.342,0-0.654,0.057-0.936,0.176c-0.282,0.115-0.523,0.281-0.726,0.5s-0.36,0.48-0.473,0.789c-0.114,0.309-0.17,0.65-0.17,1.031
			c0,0.377,0.056,0.717,0.167,1.025c0.109,0.309,0.268,0.572,0.473,0.789c0.203,0.219,0.447,0.387,0.733,0.508
			c0.285,0.119,0.602,0.18,0.95,0.18c0.699,0,1.215-0.197,1.543-0.594l0.164,0.508h0.459v-2.465h-1.893V53.035z M87.229,52.771
			c-0.084-0.098-0.182-0.182-0.293-0.252s-0.229-0.127-0.352-0.174c-0.125-0.047-0.273-0.094-0.443-0.143
			c-0.168-0.049-0.361-0.096-0.578-0.143c-0.212-0.043-0.389-0.086-0.529-0.133c-0.141-0.043-0.254-0.094-0.338-0.15
			c-0.086-0.055-0.145-0.119-0.182-0.191c-0.036-0.074-0.055-0.158-0.055-0.26c0-0.227,0.097-0.406,0.289-0.539
			c0.191-0.135,0.467-0.199,0.825-0.199c0.733,0,1.132,0.291,1.194,0.875h0.619c-0.008-0.227-0.057-0.43-0.146-0.609
			c-0.092-0.18-0.218-0.334-0.379-0.457c-0.162-0.125-0.354-0.221-0.578-0.287s-0.471-0.1-0.74-0.1c-0.255,0-0.488,0.033-0.699,0.1
			s-0.392,0.158-0.541,0.279c-0.148,0.119-0.266,0.262-0.35,0.426c-0.082,0.16-0.123,0.34-0.123,0.533
			c0,0.178,0.031,0.338,0.09,0.477c0.06,0.139,0.152,0.26,0.279,0.363c0.125,0.105,0.287,0.197,0.482,0.277s0.428,0.15,0.696,0.209
			c0.278,0.061,0.513,0.119,0.705,0.174c0.19,0.055,0.345,0.117,0.466,0.186c0.119,0.068,0.203,0.148,0.256,0.24
			c0.051,0.09,0.076,0.203,0.076,0.336c0,0.127-0.027,0.24-0.086,0.344c-0.058,0.1-0.139,0.188-0.244,0.26
			c-0.104,0.07-0.23,0.127-0.376,0.164c-0.146,0.039-0.31,0.059-0.487,0.059c-0.186,0-0.361-0.021-0.523-0.062
			s-0.307-0.107-0.432-0.195c-0.128-0.088-0.229-0.199-0.309-0.332c-0.08-0.133-0.129-0.291-0.145-0.477h-0.614
			c0.007,0.24,0.055,0.461,0.144,0.662c0.086,0.201,0.215,0.375,0.385,0.52c0.168,0.145,0.381,0.258,0.635,0.338
			s0.55,0.119,0.89,0.119c0.259,0,0.498-0.035,0.717-0.107c0.22-0.072,0.407-0.172,0.564-0.301c0.157-0.127,0.282-0.281,0.372-0.459
			s0.135-0.373,0.135-0.586c0-0.164-0.026-0.311-0.076-0.439C87.381,52.984,87.313,52.871,87.229,52.771z M128.646,50.093h-0.639
			v4.828h2.981v-0.572h-2.343V50.093z M119.67,50.695c-0.203-0.217-0.447-0.387-0.729-0.508c-0.282-0.119-0.59-0.178-0.921-0.178
			c-0.335,0-0.642,0.059-0.923,0.178c-0.28,0.117-0.523,0.285-0.729,0.504c-0.206,0.219-0.367,0.48-0.481,0.789
			c-0.113,0.309-0.171,0.648-0.171,1.025c0,0.373,0.055,0.715,0.17,1.021c0.111,0.309,0.27,0.572,0.474,0.791
			c0.204,0.221,0.446,0.389,0.729,0.51c0.282,0.119,0.593,0.18,0.932,0.18c0.338,0,0.647-0.061,0.927-0.182
			c0.281-0.121,0.523-0.295,0.729-0.516c0.203-0.221,0.361-0.484,0.474-0.791c0.114-0.307,0.17-0.645,0.17-1.014
			c0-0.373-0.058-0.713-0.172-1.021C120.035,51.175,119.875,50.914,119.67,50.695z M119.542,53.328
			c-0.082,0.24-0.195,0.445-0.342,0.615c-0.145,0.166-0.319,0.295-0.521,0.383s-0.423,0.133-0.662,0.133
			c-0.24,0-0.459-0.045-0.66-0.133c-0.2-0.088-0.375-0.217-0.52-0.383c-0.146-0.17-0.26-0.375-0.342-0.615
			c-0.081-0.24-0.122-0.516-0.122-0.822s0.041-0.58,0.124-0.82c0.084-0.238,0.197-0.441,0.344-0.607
			c0.146-0.168,0.32-0.295,0.526-0.383c0.204-0.088,0.425-0.133,0.664-0.133c0.233,0,0.448,0.043,0.649,0.131
			c0.2,0.086,0.373,0.213,0.518,0.379c0.145,0.168,0.259,0.369,0.342,0.609c0.084,0.24,0.125,0.514,0.125,0.824
			C119.665,52.812,119.624,53.087,119.542,53.328z M125.708,50.695c-0.205-0.217-0.447-0.387-0.729-0.508
			c-0.282-0.119-0.589-0.178-0.921-0.178c-0.335,0-0.643,0.059-0.923,0.178c-0.28,0.117-0.522,0.285-0.729,0.504
			s-0.367,0.48-0.481,0.789c-0.113,0.309-0.172,0.648-0.172,1.025c0,0.373,0.057,0.715,0.171,1.021
			c0.112,0.309,0.271,0.572,0.474,0.791c0.204,0.221,0.447,0.389,0.729,0.51c0.283,0.119,0.594,0.18,0.932,0.18
			s0.647-0.061,0.928-0.182s0.523-0.295,0.728-0.516s0.362-0.484,0.474-0.791c0.114-0.307,0.17-0.645,0.17-1.014
			c0-0.373-0.058-0.713-0.172-1.021C126.071,51.175,125.911,50.914,125.708,50.695z M125.579,53.328
			c-0.082,0.24-0.195,0.445-0.342,0.615c-0.145,0.166-0.32,0.295-0.521,0.383c-0.203,0.088-0.424,0.133-0.663,0.133
			s-0.459-0.045-0.659-0.133c-0.201-0.088-0.375-0.217-0.52-0.383c-0.146-0.17-0.261-0.375-0.342-0.615
			c-0.082-0.24-0.123-0.516-0.123-0.822s0.041-0.58,0.125-0.82c0.082-0.238,0.196-0.441,0.343-0.607
			c0.146-0.168,0.321-0.295,0.526-0.383c0.204-0.088,0.425-0.133,0.664-0.133c0.233,0,0.449,0.043,0.65,0.131
			c0.199,0.086,0.373,0.213,0.518,0.379c0.145,0.168,0.258,0.369,0.342,0.609c0.082,0.24,0.123,0.514,0.123,0.824
			C125.7,52.812,125.659,53.087,125.579,53.328z M113.417,52.072h-2.501v-1.979h-0.639v4.828h0.639v-2.275h2.501v2.275h0.645v-4.828
			h-0.645V52.072z M105.487,51.06c0.139-0.164,0.305-0.287,0.5-0.373c0.197-0.086,0.416-0.127,0.659-0.127
			c0.175,0,0.341,0.023,0.495,0.068c0.154,0.047,0.289,0.113,0.404,0.199c0.113,0.088,0.207,0.193,0.276,0.316
			s0.108,0.26,0.12,0.414h0.65c-0.024-0.234-0.09-0.445-0.199-0.637c-0.11-0.191-0.252-0.355-0.427-0.492
			c-0.173-0.137-0.374-0.242-0.601-0.314c-0.229-0.074-0.47-0.109-0.727-0.109c-0.342,0-0.648,0.059-0.924,0.178
			c-0.277,0.117-0.512,0.283-0.705,0.5s-0.346,0.48-0.451,0.789c-0.106,0.311-0.159,0.654-0.159,1.033
			c0,0.381,0.053,0.725,0.157,1.035c0.104,0.309,0.254,0.572,0.447,0.789c0.194,0.215,0.429,0.383,0.706,0.5
			c0.274,0.117,0.585,0.178,0.929,0.178c0.271,0,0.519-0.035,0.748-0.109c0.229-0.072,0.428-0.18,0.6-0.316
			c0.172-0.139,0.31-0.309,0.413-0.508c0.105-0.199,0.168-0.428,0.192-0.684h-0.65c-0.031,0.346-0.162,0.609-0.395,0.795
			c-0.233,0.182-0.537,0.273-0.916,0.273c-0.24,0-0.457-0.043-0.65-0.129c-0.194-0.088-0.361-0.213-0.497-0.381
			c-0.136-0.166-0.241-0.369-0.315-0.611c-0.075-0.24-0.112-0.518-0.112-0.83c0-0.314,0.037-0.592,0.112-0.836
			C105.243,51.431,105.35,51.226,105.487,51.06z M40.919,25.001c-0.979-1.133-2.25-2.007-3.811-2.623
			c-1.561-0.616-3.454-0.925-5.678-0.925c-2.092,0-3.927,0.325-5.504,0.975c-1.578,0.649-2.897,1.59-3.96,2.822
			c-0.963-1.165-2.225-2.057-3.786-2.673s-3.47-0.924-5.728-0.924c-4.019,0-7.098,1.174-9.24,3.522C1.071,27.523,0,30.729,0,34.792
			v11.592h5.728V33.244c0-1.666,0.166-3.064,0.498-4.197c0.332-1.132,0.805-2.031,1.419-2.697s1.354-1.133,2.217-1.399
			c0.863-0.266,1.81-0.383,2.839-0.35c1.029-0.033,1.934,0.092,2.714,0.375c0.781,0.283,1.437,0.758,1.968,1.424
			s0.938,1.549,1.22,2.647c0.282,1.1,0.423,2.465,0.423,4.097v13.24h5.729V35.341c0-0.865-0.008-1.432-0.025-1.697
			c-0.016-0.268-0.025-0.467-0.025-0.6c0-1.666,0.166-3.065,0.499-4.197c0.332-1.133,0.805-2.032,1.419-2.698
			s1.353-1.133,2.216-1.398c0.864-0.267,1.81-0.384,2.839-0.35c1.03-0.034,1.943,0.091,2.74,0.374s1.461,0.758,1.992,1.424
			s0.93,1.558,1.196,2.673c0.266,1.116,0.398,2.507,0.398,4.172v13.34h5.728V34.593c0-2.031-0.224-3.856-0.672-5.471
			S41.899,26.133,40.919,25.001z M78.229,29.072c0.266,1.116,0.398,2.506,0.398,4.171v13.141h5.729V34.792
			c0-2.031-0.225-3.855-0.672-5.47c-0.449-1.615-1.163-2.989-2.143-4.122c-0.979-1.132-2.25-2.007-3.811-2.623
			s-3.453-0.924-5.678-0.924c-4.02,0-7.099,1.174-9.24,3.522c-2.143,2.348-3.213,5.554-3.213,9.617v11.592h5.729V33.244
			c0-1.666,0.166-3.064,0.498-4.197c0.332-1.132,0.805-2.031,1.419-2.697s1.354-1.133,2.217-1.399
			c0.863-0.266,1.81-0.383,2.839-0.35c1.029-0.033,1.943,0.092,2.74,0.375s1.461,0.758,1.992,1.424S77.963,27.956,78.229,29.072z
			 M110.499,39.138c0.498-1.531,0.781-3.264,0.848-5.195V8.913h-5.729l-0.1,13.989c-0.963-0.467-2.018-0.874-3.163-1.225
			c-1.146-0.35-2.466-0.524-3.96-0.524c-2.191,0-4.051,0.309-5.578,0.924c-1.528,0.617-2.79,1.482-3.786,2.599
			c-0.996,1.115-1.743,2.456-2.241,4.021s-0.781,3.314-0.848,5.246c0.066,1.932,0.35,3.664,0.848,5.195
			c0.498,1.533,1.245,2.84,2.241,3.924c0.996,1.082,2.258,1.914,3.786,2.498c1.527,0.582,3.387,0.873,5.578,0.873
			c2.291,0,4.242-0.291,5.854-0.873c1.609-0.584,2.93-1.416,3.959-2.498C109.237,41.978,110,40.671,110.499,39.138z M105.618,34.843
			c0,1.664-0.166,3.055-0.498,4.172c-0.332,1.115-0.806,2.006-1.42,2.672s-1.354,1.141-2.217,1.424s-1.81,0.408-2.839,0.375
			c-1.029,0.033-1.976-0.084-2.839-0.35s-1.602-0.732-2.217-1.398s-1.088-1.566-1.42-2.699s-0.498-2.531-0.498-4.195v-1.75
			c0-1.665,0.166-3.08,0.498-4.246s0.805-2.106,1.42-2.823c0.615-0.716,1.354-1.224,2.217-1.523s1.81-0.433,2.839-0.399
			c1.029-0.033,1.976,0.107,2.839,0.425c0.863,0.316,1.603,0.832,2.217,1.548c0.614,0.717,1.088,1.649,1.42,2.798
			c0.332,1.149,0.498,2.557,0.498,4.221V34.843z M130.122,42.712c0.58-0.949,0.871-2.074,0.871-3.373
			c0-1.166-0.232-2.156-0.697-2.973s-1.07-1.516-1.818-2.1c-0.747-0.582-1.586-1.082-2.516-1.498
			c-0.93-0.416-1.859-0.807-2.789-1.174c-0.73-0.3-1.436-0.591-2.117-0.874c-0.68-0.283-1.287-0.607-1.818-0.974
			c-0.531-0.367-0.954-0.767-1.27-1.199c-0.316-0.434-0.473-0.949-0.473-1.549c0-0.566,0.148-1.058,0.447-1.474
			c0.299-0.417,0.682-0.767,1.146-1.05s1.004-0.499,1.619-0.649c0.613-0.149,1.236-0.225,1.867-0.225
			c1.096,0.1,2.043,0.241,2.84,0.425c0.797,0.183,1.494,0.408,2.092,0.675c0.598,0.266,1.12,0.549,1.568,0.849
			c0.449,0.3,0.872,0.6,1.271,0.899c0-0.5,0.009-0.991,0.024-1.474c0.018-0.483-0.024-1.058-0.124-1.724
			c-0.664-0.399-1.278-0.741-1.843-1.024s-1.162-0.508-1.793-0.675c-0.631-0.166-1.312-0.282-2.043-0.35
			c-0.73-0.066-1.561-0.1-2.49-0.1c-1.195,0-2.342,0.15-3.438,0.449c-1.096,0.3-2.066,0.741-2.913,1.324s-1.52,1.291-2.018,2.124
			c-0.498,0.832-0.747,1.765-0.747,2.797c0,1.232,0.232,2.273,0.697,3.123c0.465,0.849,1.07,1.565,1.818,2.149
			c0.747,0.582,1.586,1.072,2.516,1.473s1.875,0.766,2.838,1.1c0.731,0.266,1.429,0.533,2.093,0.799
			c0.664,0.268,1.254,0.574,1.769,0.924c0.515,0.352,0.93,0.75,1.245,1.199c0.315,0.451,0.474,0.975,0.474,1.574
			c0,0.666-0.15,1.25-0.449,1.748c-0.299,0.5-0.713,0.926-1.244,1.275c-0.532,0.35-1.138,0.615-1.818,0.799
			c-0.682,0.184-1.403,0.275-2.167,0.275c-1.595,0.066-2.98-0.033-4.159-0.301c-1.18-0.266-2.383-0.832-3.611-1.699l0.448,3.398
			c1.361,0.398,2.698,0.682,4.01,0.85c1.312,0.166,2.599,0.266,3.86,0.299c1.129,0,2.274-0.141,3.438-0.424
			c1.162-0.283,2.208-0.725,3.137-1.324C128.785,44.435,129.54,43.66,130.122,42.712z"/>
	</g>
</g>
</svg>
