<?xml version="1.0" encoding="iso-8859-1"?>
<!-- Generator: Adobe Illustrator 19.1.0, SVG Export Plug-In . SVG Version: 6.00 Build 0)  -->
<svg xmlns="http://www.w3.org/2000/svg" xmlns:xlink="http://www.w3.org/1999/xlink" version="1.1" id="Capa_1" x="0px" y="0px" viewBox="0 0 484.975 484.975" style="enable-background:new 0 0 484.975 484.975;" xml:space="preserve" width="512px" height="512px">
<g>
	<g>
		<g>
			<path d="M462.419,165.912H22.556c0,0-22.556,0-22.556-38.287s22.556-38.287,22.556-38.287h439.863     c0,0,22.556,0,22.556,38.287S462.419,165.912,462.419,165.912z" fill="#FFFFFF"/>
			<path d="M462.419,280.776H22.556c0,0-22.556,0-22.556-38.288S22.556,204.2,22.556,204.2h439.863     c0,0,22.556,0,22.556,38.287C484.975,280.776,462.419,280.776,462.419,280.776z" fill="#FFFFFF"/>
			<path d="M462.419,395.637H22.556c0,0-22.556,0-22.556-38.286c0-38.288,22.556-38.288,22.556-38.288     h439.863c0,0,22.556,0,22.556,38.288C484.975,395.637,462.419,395.637,462.419,395.637z" fill="#FFFFFF"/>
		</g>
	</g>
	<g>
	</g>
	<g>
	</g>
	<g>
	</g>
	<g>
	</g>
	<g>
	</g>
	<g>
	</g>
	<g>
	</g>
	<g>
	</g>
	<g>
	</g>
	<g>
	</g>
	<g>
	</g>
	<g>
	</g>
	<g>
	</g>
	<g>
	</g>
	<g>
	</g>
</g>
<g>
</g>
<g>
</g>
<g>
</g>
<g>
</g>
<g>
</g>
<g>
</g>
<g>
</g>
<g>
</g>
<g>
</g>
<g>
</g>
<g>
</g>
<g>
</g>
<g>
</g>
<g>
</g>
<g>
</g>
</svg>
