<?xml version="1.0" encoding="utf-8"?>
<!-- Generator: Adobe Illustrator 16.0.0, SVG Export Plug-In . SVG Version: 6.00 Build 0)  -->
<!DOCTYPE svg PUBLIC "-//W3C//DTD SVG 1.1//EN" "http://www.w3.org/Graphics/SVG/1.1/DTD/svg11.dtd">
<svg version="1.1" id="Layer_1" xmlns="http://www.w3.org/2000/svg" xmlns:xlink="http://www.w3.org/1999/xlink" x="0px" y="0px"
	 width="100px" height="100px" viewBox="0 0 100 100" enable-background="new 0 0 100 100" xml:space="preserve">
<g display="none">
	<g display="inline">
		<path fill="#F2BA49" d="M38.197,57.913C14.22,46.667,8.175,34.788,10.513,27.42c1.854-5.846,8.614-8.636,17.223-7.104l-1.12,6.296
			c-5.172-0.919-9.195,0.183-10.006,2.742c-1.263,3.978,4.167,13.325,24.304,22.769L38.197,57.913z"/>
	</g>
	<g display="inline">
		<path fill="#F2BA49" d="M60.791,57.913l-2.716-5.79c20.136-9.444,25.567-18.791,24.306-22.769
			c-0.812-2.56-4.835-3.662-10.008-2.742l-1.119-6.296c8.609-1.531,15.368,1.259,17.222,7.104
			C90.813,34.788,84.769,46.667,60.791,57.913z"/>
	</g>
	<rect x="46.547" y="49.775" display="inline" fill="#F2BA49" width="5.896" height="33.054"/>
	<path display="inline" fill="#CE9736" d="M17.935,12.95l15.566,42.204c2.47,6.699,8.854,11.148,15.994,11.148
		c7.14,0,13.523-4.449,15.994-11.148L81.056,12.95H17.935z"/>
	<path display="inline" fill="#CE9736" d="M52.966,82.829h-6.944c-6.273,0-11.359,5.086-11.359,11.36h29.665
		C64.327,87.915,59.24,82.829,52.966,82.829z"/>
	<rect x="32.967" y="94.127" display="inline" fill="#F2BA49" width="33.055" height="5.895"/>
	<polygon display="inline" fill="#F2BA49" points="49.495,19.815 53.041,30.73 64.518,30.73 55.232,37.476 58.779,48.391 
		49.495,41.646 40.21,48.391 43.757,37.476 34.472,30.73 45.948,30.73 	"/>
	<polygon display="inline" fill="#F2BA49" points="28.91,64.735 28.91,61.52 27.129,61.52 27.129,64.735 23.912,64.735 
		23.912,66.519 27.129,66.519 27.129,69.734 28.91,69.734 28.91,66.519 32.127,66.519 32.127,64.735 	"/>
	<circle display="inline" fill="#FFD34D" cx="19.965" cy="56.969" r="2.111"/>
	<polygon display="inline" fill="#F2BA49" points="40.774,6.532 40.774,3.979 39.358,3.979 39.358,6.532 36.807,6.532 36.807,7.947 
		39.358,7.947 39.358,10.5 40.774,10.5 40.774,7.947 43.327,7.947 43.327,6.532 	"/>
	<circle display="inline" fill="#FFD34D" cx="69.099" cy="64.611" r="1.69"/>
	<circle display="inline" fill="#FFD34D" cx="88.063" cy="13.336" r="1.89"/>
	<circle display="inline" fill="#FFD34D" cx="63.434" cy="2.65" r="2.672"/>
	<circle display="inline" fill="#F2BA49" cx="70.212" cy="5.609" r="1.631"/>
</g>
<g>
	<g>
		<path fill="#F2BA49" d="M38.286,57.854C14.488,46.692,8.488,34.902,10.809,27.589c1.84-5.802,8.55-8.571,17.094-7.052l-1.112,6.25
			c-5.133-0.913-9.126,0.181-9.931,2.722c-1.253,3.947,4.137,13.225,24.122,22.597L38.286,57.854z"/>
	</g>
	<g>
		<path fill="#F2BA49" d="M60.711,57.854l-2.695-5.747C78,42.734,83.393,33.457,82.139,29.509c-0.807-2.541-4.799-3.635-9.934-2.722
			l-1.109-6.25c8.545-1.519,15.252,1.25,17.092,7.052C90.508,34.902,84.508,46.692,60.711,57.854z"/>
	</g>
	<rect x="46.573" y="49.776" fill="#F2BA49" width="5.851" height="32.807"/>
	<path fill="#FFD34D" d="M18.176,13.228l15.449,41.888c2.452,6.648,8.788,11.064,15.874,11.064c7.087,0,13.423-4.416,15.874-11.064
		l15.451-41.888H18.176z"/>
	<path fill="#FFD34D" d="M52.945,82.583h-6.893c-6.227,0-11.274,5.048-11.274,11.274h29.441
		C64.219,87.631,59.172,82.583,52.945,82.583z"/>
	<rect x="33.095" y="93.797" fill="#F2BA49" width="32.807" height="5.85"/>
	<polygon fill="#F2BA49" points="49.499,20.042 53.02,30.875 64.41,30.875 55.193,37.57 58.715,48.403 49.499,41.708 40.284,48.403 
		43.804,37.57 34.589,30.875 45.979,30.875 	"/>
	<polygon fill="#F2BA49" points="29.069,64.626 29.069,61.433 27.3,61.433 27.3,64.626 24.108,64.626 24.108,66.395 27.3,66.395 
		27.3,69.586 29.069,69.586 29.069,66.395 32.262,66.395 32.262,64.626 	"/>
	<circle fill="#FFD34D" cx="20.191" cy="56.916" r="2.095"/>
	<polygon fill="#F2BA49" points="40.844,6.858 40.844,4.324 39.439,4.324 39.439,6.858 36.906,6.858 36.906,8.262 39.439,8.262 
		39.439,10.796 40.844,10.796 40.844,8.262 43.377,8.262 43.377,6.858 	"/>
	<circle fill="#FFD34D" cx="68.956" cy="64.502" r="1.677"/>
	<circle fill="#FFD34D" cx="87.778" cy="13.611" r="1.876"/>
	<circle fill="#FFD34D" cx="63.333" cy="3.005" r="2.651"/>
	<circle fill="#F2BA49" cx="70.061" cy="5.942" r="1.619"/>
</g>
<g display="none">
	<g display="inline">
		<path fill="#B2ACA4" d="M38.315,57.834C14.577,46.701,8.593,34.94,10.907,27.646c1.835-5.788,8.528-8.55,17.051-7.034
			l-1.109,6.234c-5.12-0.91-9.103,0.181-9.906,2.715c-1.25,3.938,4.127,13.191,24.062,22.541L38.315,57.834z"/>
	</g>
	<g display="inline">
		<path fill="#B2ACA4" d="M60.683,57.834l-2.688-5.732c19.936-9.35,25.312-18.603,24.062-22.541
			c-0.804-2.534-4.786-3.625-9.907-2.715l-1.107-6.234c8.522-1.515,15.214,1.247,17.05,7.034
			C90.406,34.94,84.421,46.701,60.683,57.834z"/>
	</g>
	<rect x="46.581" y="49.777" display="inline" fill="#B2ACA4" width="5.837" height="32.724"/>
	<path display="inline" fill="#C6C0B5" d="M18.255,13.32l15.411,41.781c2.445,6.632,8.766,11.037,15.834,11.037
		s13.389-4.405,15.835-11.037l15.41-41.781H18.255z"/>
	<path display="inline" fill="#C6C0B5" d="M52.937,82.501h-6.875c-6.211,0-11.246,5.035-11.246,11.246h29.368
		C64.184,87.536,59.147,82.501,52.937,82.501z"/>
	<rect x="33.137" y="93.686" display="inline" fill="#B2ACA4" width="32.725" height="5.836"/>
	<polygon display="inline" fill="#D8D2CA" points="49.5,20.117 53.011,30.923 64.372,30.923 55.181,37.602 58.691,48.407 
		49.5,41.729 40.308,48.407 43.819,37.602 34.627,30.923 45.989,30.923 	"/>
	<polygon display="inline" fill="#B2ACA4" points="29.121,64.589 29.121,61.404 27.357,61.404 27.357,64.589 24.173,64.589 
		24.173,66.354 27.357,66.354 27.357,69.537 29.121,69.537 29.121,66.354 32.306,66.354 32.306,64.589 	"/>
	<circle display="inline" fill="#C6C0B5" cx="20.266" cy="56.899" r="2.09"/>
	<polygon display="inline" fill="#B2ACA4" points="40.866,6.966 40.866,4.439 39.465,4.439 39.465,6.966 36.938,6.966 36.938,8.367 
		39.465,8.367 39.465,10.895 40.866,10.895 40.866,8.367 43.394,8.367 43.394,6.966 	"/>
	<circle display="inline" fill="#C6C0B5" cx="68.908" cy="64.466" r="1.673"/>
	<circle display="inline" fill="#C6C0B5" cx="87.683" cy="13.703" r="1.871"/>
	<circle display="inline" fill="#C6C0B5" cx="63.299" cy="3.124" r="2.645"/>
	<circle display="inline" fill="#B2ACA4" cx="70.01" cy="6.053" r="1.614"/>
</g>
</svg>
