<?xml version="1.0" encoding="utf-8"?>
<!-- Generator: Adobe Illustrator 16.0.0, SVG Export Plug-In . SVG Version: 6.00 Build 0)  -->
<!DOCTYPE svg PUBLIC "-//W3C//DTD SVG 1.1//EN" "http://www.w3.org/Graphics/SVG/1.1/DTD/svg11.dtd">
<svg version="1.1" id="Layer_1" xmlns="http://www.w3.org/2000/svg" xmlns:xlink="http://www.w3.org/1999/xlink" x="0px" y="0px"
	 width="100px" height="100px" viewBox="0 0 100 100" enable-background="new 0 0 100 100" xml:space="preserve">
<g display="none">
	<g display="inline">
		<path fill="#F2BA49" d="M38.197,57.913C14.22,46.667,8.175,34.788,10.513,27.42c1.854-5.846,8.614-8.636,17.223-7.104l-1.12,6.296
			c-5.172-0.919-9.195,0.183-10.006,2.742c-1.263,3.978,4.167,13.325,24.304,22.769L38.197,57.913z"/>
	</g>
	<g display="inline">
		<path fill="#F2BA49" d="M60.791,57.913l-2.716-5.79c20.136-9.444,25.567-18.791,24.306-22.769
			c-0.812-2.56-4.835-3.662-10.008-2.742l-1.119-6.296c8.609-1.531,15.368,1.259,17.222,7.104
			C90.813,34.788,84.769,46.667,60.791,57.913z"/>
	</g>
	<rect x="46.547" y="49.775" display="inline" fill="#F2BA49" width="5.896" height="33.054"/>
	<path display="inline" fill="#CE9736" d="M17.935,12.95l15.566,42.204c2.47,6.699,8.854,11.148,15.994,11.148
		c7.14,0,13.523-4.449,15.994-11.148L81.056,12.95H17.935z"/>
	<path display="inline" fill="#CE9736" d="M52.966,82.829h-6.944c-6.273,0-11.359,5.086-11.359,11.36h29.665
		C64.327,87.915,59.24,82.829,52.966,82.829z"/>
	<rect x="32.967" y="94.127" display="inline" fill="#F2BA49" width="33.055" height="5.895"/>
	<polygon display="inline" fill="#F2BA49" points="49.495,19.815 53.041,30.73 64.518,30.73 55.232,37.476 58.779,48.391 
		49.495,41.646 40.21,48.391 43.757,37.476 34.472,30.73 45.948,30.73 	"/>
	<polygon display="inline" fill="#F2BA49" points="28.91,64.735 28.91,61.52 27.129,61.52 27.129,64.735 23.912,64.735 
		23.912,66.519 27.129,66.519 27.129,69.734 28.91,69.734 28.91,66.519 32.127,66.519 32.127,64.735 	"/>
	<circle display="inline" fill="#FFD34D" cx="19.965" cy="56.969" r="2.111"/>
	<polygon display="inline" fill="#F2BA49" points="40.774,6.532 40.774,3.979 39.358,3.979 39.358,6.532 36.807,6.532 36.807,7.947 
		39.358,7.947 39.358,10.5 40.774,10.5 40.774,7.947 43.327,7.947 43.327,6.532 	"/>
	<circle display="inline" fill="#FFD34D" cx="69.099" cy="64.611" r="1.69"/>
	<circle display="inline" fill="#FFD34D" cx="88.063" cy="13.336" r="1.89"/>
	<circle display="inline" fill="#FFD34D" cx="63.434" cy="2.65" r="2.672"/>
	<circle display="inline" fill="#F2BA49" cx="70.212" cy="5.609" r="1.631"/>
</g>
<g display="none">
	<g display="inline">
		<path fill="#F2BA49" d="M-12.327,56.727l-2.309-4.922C2.481,43.776,7.099,35.831,6.025,32.45c-0.69-2.176-4.109-3.113-8.507-2.331
			l-0.951-5.353c7.318-1.301,13.063,1.07,14.64,6.04C13.194,37.069,8.056,47.167-12.327,56.727z"/>
	</g>
	<path display="inline" fill="#FFD34D" d="M-48.758,18.505l13.232,35.876c2.1,5.694,7.526,9.477,13.596,9.477
		s11.496-3.782,13.597-9.477L4.899,18.505H-48.758z"/>
	<circle display="inline" fill="#FFD34D" cx="10.856" cy="18.833" r="1.606"/>
</g>
<g>
	<g>
		<path fill="#B2ACA4" d="M38.315,57.834C14.577,46.701,8.593,34.94,10.907,27.646c1.835-5.788,8.528-8.55,17.051-7.034
			l-1.109,6.234c-5.12-0.91-9.103,0.181-9.906,2.715c-1.25,3.938,4.127,13.191,24.062,22.541L38.315,57.834z"/>
	</g>
	<g>
		<path fill="#B2ACA4" d="M60.683,57.834l-2.688-5.732c19.936-9.35,25.312-18.603,24.062-22.541
			c-0.804-2.534-4.786-3.625-9.907-2.715l-1.107-6.234c8.522-1.515,15.214,1.247,17.05,7.034
			C90.406,34.94,84.421,46.701,60.683,57.834z"/>
	</g>
	<rect x="46.581" y="49.777" fill="#B2ACA4" width="5.837" height="32.724"/>
	<path fill="#C6C0B5" d="M18.255,13.32l15.411,41.781c2.445,6.632,8.766,11.037,15.834,11.037s13.389-4.405,15.835-11.037
		l15.41-41.781H18.255z"/>
	<path fill="#C6C0B5" d="M52.937,82.501h-6.875c-6.211,0-11.246,5.035-11.246,11.246h29.368
		C64.184,87.536,59.147,82.501,52.937,82.501z"/>
	<rect x="33.137" y="93.686" fill="#B2ACA4" width="32.725" height="5.836"/>
	<polygon fill="#D8D2CA" points="49.5,20.117 53.011,30.923 64.372,30.923 55.181,37.602 58.691,48.407 49.5,41.729 40.308,48.407 
		43.819,37.602 34.627,30.923 45.989,30.923 	"/>
	<polygon fill="#B2ACA4" points="29.121,64.589 29.121,61.404 27.357,61.404 27.357,64.589 24.173,64.589 24.173,66.354 
		27.357,66.354 27.357,69.537 29.121,69.537 29.121,66.354 32.306,66.354 32.306,64.589 	"/>
	<circle fill="#C6C0B5" cx="20.266" cy="56.899" r="2.09"/>
	<polygon fill="#B2ACA4" points="40.866,6.966 40.866,4.439 39.465,4.439 39.465,6.966 36.938,6.966 36.938,8.367 39.465,8.367 
		39.465,10.895 40.866,10.895 40.866,8.367 43.394,8.367 43.394,6.966 	"/>
	<circle fill="#C6C0B5" cx="68.908" cy="64.466" r="1.673"/>
	<circle fill="#C6C0B5" cx="87.683" cy="13.703" r="1.871"/>
	<circle fill="#C6C0B5" cx="63.299" cy="3.124" r="2.645"/>
	<circle fill="#B2ACA4" cx="70.01" cy="6.053" r="1.614"/>
</g>
</svg>
