<?xml version="1.0" encoding="utf-8"?>
<!-- Generator: Adobe Illustrator 16.0.0, SVG Export Plug-In . SVG Version: 6.00 Build 0)  -->
<!DOCTYPE svg PUBLIC "-//W3C//DTD SVG 1.1//EN" "http://www.w3.org/Graphics/SVG/1.1/DTD/svg11.dtd">
<svg version="1.1" id="Layer_1" xmlns="http://www.w3.org/2000/svg" xmlns:xlink="http://www.w3.org/1999/xlink" x="0px" y="0px"
	 width="100px" height="100px" viewBox="0 0 100 100" enable-background="new 0 0 100 100" xml:space="preserve">
<g>
	<g>
		<path fill="#F2BA49" d="M38.197,57.913C14.22,46.667,8.175,34.788,10.513,27.42c1.854-5.846,8.614-8.636,17.223-7.104l-1.12,6.296
			c-5.172-0.919-9.195,0.183-10.006,2.742c-1.263,3.978,4.167,13.325,24.304,22.769L38.197,57.913z"/>
	</g>
	<g>
		<path fill="#F2BA49" d="M60.791,57.913l-2.716-5.79c20.136-9.444,25.567-18.791,24.306-22.769
			c-0.812-2.56-4.835-3.662-10.008-2.742l-1.119-6.296c8.609-1.531,15.368,1.259,17.222,7.104
			C90.813,34.788,84.769,46.667,60.791,57.913z"/>
	</g>
	<rect x="46.547" y="49.775" fill="#F2BA49" width="5.896" height="33.054"/>
	<path fill="#CE9736" d="M17.935,12.95l15.566,42.204c2.47,6.699,8.854,11.148,15.994,11.148c7.14,0,13.523-4.449,15.994-11.148
		L81.056,12.95H17.935z"/>
	<path fill="#CE9736" d="M52.966,82.829h-6.944c-6.273,0-11.359,5.086-11.359,11.36h29.665
		C64.327,87.915,59.24,82.829,52.966,82.829z"/>
	<rect x="32.967" y="94.127" fill="#F2BA49" width="33.055" height="5.895"/>
	<polygon fill="#F2BA49" points="49.495,19.815 53.041,30.73 64.518,30.73 55.232,37.476 58.779,48.391 49.495,41.646 40.21,48.391 
		43.757,37.476 34.472,30.73 45.948,30.73 	"/>
	<polygon fill="#F2BA49" points="28.91,64.735 28.91,61.52 27.129,61.52 27.129,64.735 23.912,64.735 23.912,66.519 27.129,66.519 
		27.129,69.734 28.91,69.734 28.91,66.519 32.127,66.519 32.127,64.735 	"/>
	<circle fill="#FFD34D" cx="19.965" cy="56.969" r="2.111"/>
	<polygon fill="#F2BA49" points="40.774,6.532 40.774,3.979 39.358,3.979 39.358,6.532 36.807,6.532 36.807,7.947 39.358,7.947 
		39.358,10.5 40.774,10.5 40.774,7.947 43.327,7.947 43.327,6.532 	"/>
	<circle fill="#FFD34D" cx="69.099" cy="64.611" r="1.69"/>
	<circle fill="#FFD34D" cx="88.063" cy="13.336" r="1.89"/>
	<circle fill="#FFD34D" cx="63.434" cy="2.65" r="2.672"/>
	<circle fill="#F2BA49" cx="70.212" cy="5.609" r="1.631"/>
</g>
<g display="none">
	<g display="inline">
		<path fill="#F2BA49" d="M-12.327,56.727l-2.309-4.922C2.481,43.776,7.099,35.831,6.025,32.45c-0.69-2.176-4.109-3.113-8.507-2.331
			l-0.951-5.353c7.318-1.301,13.063,1.07,14.64,6.04C13.194,37.069,8.056,47.167-12.327,56.727z"/>
	</g>
	<path display="inline" fill="#FFD34D" d="M-48.758,18.505l13.232,35.876c2.1,5.694,7.526,9.477,13.596,9.477
		s11.496-3.782,13.597-9.477L4.899,18.505H-48.758z"/>
	<circle display="inline" fill="#FFD34D" cx="10.856" cy="18.833" r="1.606"/>
</g>
<g display="none">
	<g display="inline">
		<path fill="#B2ACA4" d="M118.902,55.727c-20.383-9.56-25.521-19.658-23.534-25.921c1.576-4.969,7.323-7.341,14.641-6.04
			l-0.952,5.353c-4.396-0.781-7.816,0.155-8.506,2.331c-1.073,3.381,3.543,11.327,20.66,19.355L118.902,55.727z"/>
	</g>
</g>
</svg>
